<?xml version="1.0" encoding="utf-8"?>
<!-- Generator: Adobe Illustrator 16.0.0, SVG Export Plug-In . SVG Version: 6.00 Build 0)  -->
<!DOCTYPE svg PUBLIC "-//W3C//DTD SVG 1.1//EN" "http://www.w3.org/Graphics/SVG/1.1/DTD/svg11.dtd">
<svg version="1.1" id="Layer_1" xmlns="http://www.w3.org/2000/svg" xmlns:xlink="http://www.w3.org/1999/xlink" x="0px" y="0px"
	 width="256px" height="256px" viewBox="0 0 256 256" enable-background="new 0 0 256 256" xml:space="preserve">
<path d="M17.166,172.604c0-3.41,0.169-6.833-0.042-10.233c-0.232-3.665-1.405-7.086-3.675-10.074
	c-2.397-3.158-4.763-6.337-7.118-9.536c-5.291-7.213-5.882-15.029-2.112-22.917c2.334-4.879,5.439-9.409,8.396-13.972
	c3.21-4.963,4.192-10.339,3.929-16.158c-0.254-5.555-0.56-11.163-0.042-16.665c0.718-7.699,4.646-13.602,11.754-17.14
	c4.15-2.07,8.29-4.161,12.409-6.305c4.403-2.292,7.751-5.618,9.821-10.181c1.658-3.643,3.326-7.276,5.08-10.877
	c4.309-8.807,11.543-13.032,21.237-13.053c5.228-0.011,10.455,0.327,15.693,0.454c4.277,0.105,8.3-0.908,11.965-3.126
	c4.33-2.619,8.564-5.396,12.948-7.942c7.899-4.593,15.893-4.593,23.792,0c4.235,2.461,8.332,5.122,12.504,7.699
	c3.918,2.418,8.185,3.474,12.778,3.39c5.776-0.116,11.585-0.57,17.33-0.18c7.952,0.528,14.003,4.604,17.9,11.585
	c2.302,4.119,4.393,8.353,6.558,12.546c2.091,4.055,5.143,7.181,9.104,9.42c4.668,2.629,9.347,5.238,14.003,7.878
	c5.587,3.168,9.547,7.572,10.772,14.088c0.728,3.875,0.221,7.74-0.011,11.605c-0.18,3.115-0.496,6.221-0.623,9.336
	c-0.201,4.773,1.014,9.177,3.791,13.105c2.334,3.306,4.573,6.695,7.022,9.917c2.566,3.39,3.464,7.266,3.781,11.342
	c0.264,3.306,0.032,6.601-1.099,9.736c-0.528,1.447-1.246,2.873-2.102,4.15c-2.396,3.569-4.837,7.118-7.393,10.582
	c-3.421,4.646-4.53,9.853-4.256,15.514c0.254,5.048,0.476,10.117,0.476,15.164c0,8.935-6.326,17.235-13.201,19.823
	c-3.464,1.31-6.832,2.893-10.254,4.309c-4.394,1.826-7.625,4.974-9.874,9.062c-2.387,4.36-4.51,8.859-6.854,13.242
	c-4.815,9.008-12.45,13.021-22.578,12.546c-4.932-0.231-9.864-0.549-14.796-0.644c-4.224-0.074-8.185,1.065-11.743,3.379
	c-3.749,2.439-7.445,4.953-11.215,7.371c-7.287,4.678-17.267,4.488-24.416-0.391c-3.591-2.45-7.192-4.879-10.836-7.255
	c-3.749-2.45-7.899-3.623-12.366-3.38c-4.89,0.265-9.769,0.665-14.648,1.141c-8.279,0.813-17.583-4.192-21.343-11.637
	c-1.975-3.908-3.939-7.837-5.861-11.766c-2.281-4.646-5.734-8.068-10.402-10.286c-4.372-2.08-8.829-4.034-13.074-6.356
	c-6.378-3.497-10.296-9.019-11.279-16.2c-0.507-3.76-0.084-7.646-0.074-11.479c0-0.212,0.021-0.423,0.032-0.634
	C17.019,172.604,17.092,172.604,17.166,172.604z M129.352,238.522c60.217,0.148,111.002-48.441,110.991-110.886
	c-0.011-61.558-49.508-110.2-109.65-110.854C68.564,16.117,18.993,65.931,18.434,126.549
	C17.853,188.909,68.396,238.628,129.352,238.522z"/>
<path d="M129.436,21.239c58.749-0.116,107.359,48.199,106.451,108.098c-0.866,57.364-47.744,104.813-106.673,104.729
	C70.486,233.992,22.837,186.374,22.88,127.584C22.922,68.127,71.448,21.07,129.436,21.239z M129.468,225.66
	c53.415-0.053,97.157-43.035,97.991-96.407c0.866-54.884-43.288-98.964-96.809-99.608c-54.831-0.666-99.333,43.721-99.344,97.971
	C31.296,181.675,75.344,225.66,129.468,225.66z"/>
<path d="M129.246,198.478c-39.095-0.212-69.468-32.021-68.897-69.997c0.56-36.983,30.572-67.778,68.897-67.798
	c39.358-0.021,69.91,32.495,68.949,70.661C197.309,167.144,168.193,198.255,129.246,198.478z M129.341,63.819
	c-36.571,0.127-65.106,29.316-65.803,64.388c-0.729,36.899,28.989,67.071,65.761,67.06c35.896-0.011,64.926-28.693,65.739-64.166
	C195.873,94.191,166.281,63.956,129.341,63.819z"/>
<path d="M190.265,166.954c0.845-1.986,1.7-3.972,2.566-5.999c0.528,0.359,0.866,0.719,1.257,0.824
	c3.696,0.961,7.402,1.879,11.437,2.883c-3.474-3.812-6.717-7.383-9.969-10.951c0.042-0.159,0.095-0.316,0.137-0.486
	c4.7-0.369,9.41-0.729,14.469-1.13c-2.134-1.193-3.981-2.238-5.84-3.274c-1.099-0.623-2.197-1.256-3.306-1.857
	c-1.447-0.782-1.605-0.719-2.439,0.749c-0.074,0.138-0.19,0.265-0.285,0.392c-0.116-0.053-0.222-0.096-0.338-0.148
	c0.76-1.912,1.51-3.834,2.271-5.744c0.158-0.033,0.327-0.054,0.485-0.085c-1.034,2.196,0.623,2.682,1.827,3.4
	c4.488,2.671,9.008,5.312,13.507,7.973c0.412,0.243,0.761,0.571,1.141,0.856c-0.031,0.157-0.053,0.316-0.084,0.475
	c-5.629,0.401-11.258,0.803-17.183,1.225c3.939,4.287,7.752,8.438,11.554,12.589c-0.063,0.127-0.127,0.253-0.201,0.38
	c-0.411-0.021-0.823,0.011-1.225-0.074c-4.764-1.108-9.516-2.25-14.278-3.368C192.535,164.82,192.535,164.831,190.265,166.954z"/>
<path d="M188.237,66.533c-4.837,2.175-9.283,4.615-14.024,6.336c-0.095-0.116-0.18-0.232-0.274-0.348
	c0.169-0.455,0.295-0.93,0.496-1.362c2.323-5.006,4.646-10.001,6.991-14.997c0.57-1.214,1.362-2.408-0.127-3.664
	c0.127-0.063,0.264-0.138,0.391-0.201c1.669,1.563,3.337,3.137,4.995,4.7c-0.053,0.084-0.105,0.169-0.158,0.253
	c-0.38-0.158-0.75-0.327-1.457-0.633c-2.112,4.086-4.235,8.206-6.368,12.313c0.073,0.084,0.147,0.158,0.222,0.243
	c4.53-2.186,9.071-4.382,13.603-6.568c0.126,0.116,0.253,0.232,0.39,0.349c-1.806,4.71-3.611,9.42-5.555,14.489
	c0.898-0.517,1.489-0.855,2.091-1.204c2.704-1.553,5.418-3.095,8.122-4.647c1.879-1.077,1.869-1.088,1.256-3.052
	c1.395,1.331,2.788,2.651,4.183,3.982c-0.042,0.137-0.085,0.274-0.127,0.412c-1.446-1.479-2.683-0.507-3.907,0.127
	c-4.858,2.534-9.695,5.101-14.542,7.646c-0.434,0.221-0.888,0.38-1.342,0.57c-0.137-0.084-0.274-0.168-0.4-0.264
	C184.509,76.291,186.326,71.539,188.237,66.533z"/>
<path d="M45.49,163.595c0.518,1.722,1.341,1.151,2.186,0.55c3.326-2.365,6.674-4.731,10-7.097c-0.021-0.116-0.032-0.232-0.052-0.338
	c-5.027-0.138-10.054-0.285-15.091-0.423c-0.063-0.158-0.137-0.316-0.201-0.475c3.76-3.348,7.53-6.695,11.29-10.055
	c-0.032-0.084-0.074-0.168-0.106-0.253c-2.25,0.105-4.499,0.212-6.759,0.307c-1.521,0.063-3.031,0.095-4.551,0.18
	c-2.144,0.104-2.133,0.115-2.535,2.122c-0.623-1.806-1.257-3.611-1.88-5.428c0.084-0.096,0.158-0.201,0.243-0.296
	c0.887,2.228,2.735,1.679,4.33,1.679c5.238,0,10.465-0.074,15.704-0.105c0.476,0,0.961,0.074,1.436,0.105
	c0.074,0.138,0.159,0.285,0.232,0.434c-3.77,3.357-7.54,6.717-11.585,10.318c5.344,0.316,10.402,0.137,15.387,0.822
	c0.032,0.127,0.063,0.254,0.105,0.381c-0.38,0.359-0.728,0.739-1.14,1.056c-4.446,3.422-8.892,6.843-13.349,10.255
	c-0.993,0.76-2.081,1.457-1.214,3.104c-0.18,0-0.359-0.011-0.528-0.011c-0.75-2.165-1.51-4.33-2.26-6.495
	C45.257,163.817,45.374,163.711,45.49,163.595z"/>
<path d="M48.552,81.888c1.616-2.102,3.221-4.213,4.89-6.389c0.126,0.253,0.211,0.338,0.19,0.391
	c-0.792,1.837-0.803,1.848,0.877,3.168c1.32,1.046,2.671,2.06,4.14,3.189c2.059-2.683,4.076-5.312,6.199-8.1
	c-1.795-1.32-3.527-2.641-5.333-3.845c-0.317-0.211-1.035-0.021-1.458,0.211c-0.359,0.201-0.549,0.708-0.813,1.077
	c-0.158-0.137-0.317-0.274-0.464-0.412c1.615-2.123,3.221-4.246,4.868-6.421c0.18,0.232,0.232,0.274,0.222,0.296
	c-0.687,2.091-0.697,2.102,1.151,3.516c3.284,2.514,6.558,5.038,9.874,7.499c2.312,1.721,2.334,1.689,4.467-0.021
	c0.084,0.063,0.179,0.126,0.264,0.19c-1.648,2.175-3.295,4.351-4.975,6.569c-0.158-0.18-0.253-0.253-0.243-0.285
	c0.645-1.933,0.665-1.954-1.014-3.295c-1.743-1.394-3.517-2.735-5.365-4.171c-2.091,2.735-4.098,5.365-6.221,8.143
	c2.229,1.616,4.372,3.167,6.516,4.709c0.761,0.55,1.415,0.349,1.985-0.348c0.253-0.306,0.539-0.57,0.813-0.866
	c0.105,0.095,0.211,0.179,0.316,0.274c-1.668,2.176-3.327,4.361-5.016,6.568c-0.18-0.2-0.285-0.295-0.275-0.306
	c1.056-1.299,0.412-2.197-0.676-3.02c-3.897-2.968-7.783-5.925-11.669-8.914c-0.866-0.665-1.595-0.644-2.292,0.201
	c-0.201,0.243-0.464,0.433-0.697,0.645C48.731,82.068,48.647,81.972,48.552,81.888z"/>
<path d="M200.783,139.147c-0.612-2.683,0.105-4.573,2.302-5.988c1.236-0.802,2.408-1.742,3.718-2.387
	c1.647-0.803,2.534-1.857,2.006-3.875c-2.059,0-4.234-0.053-6.399,0.053c-0.349,0.021-0.76,0.655-0.981,1.088
	c-0.201,0.379-0.17,0.866-0.508,1.288c0-2.608,0-5.228,0-7.878c0.201,0.063,0.328,0.074,0.338,0.116
	c0.476,1.827,0.539,1.943,2.557,1.975c4.678,0.095,9.366,0.127,14.045,0.159c1.753,0.011,1.943-0.19,2.187-1.869
	c0.031-0.19,0.095-0.38,0.401-0.57c0.042,0.285,0.126,0.57,0.126,0.855c-0.031,2.44-0.063,4.89-0.115,7.33
	c-0.011,0.507-0.011,1.014-0.085,1.511c-0.602,4.256-4.552,5.967-8.068,3.463c-0.877-0.622-1.627-1.446-2.556-2.291
	C207.162,134.871,202.832,135.483,200.783,139.147z M219.074,126.866c-2.683,0-5.333-0.011-7.974,0.011
	c-0.2,0-0.485,0.147-0.591,0.316c-0.75,1.12-0.338,3.453,0.718,4.288c1.437,1.141,4.298,1.341,6.02,0.38
	C219.053,130.857,219.401,129.21,219.074,126.866z"/>
<path d="M96.001,54.874c2.503,1.552,4.932,3.137,7.445,4.562c0.813,0.464,1.869,0.496,2.746,0.708
	c-0.951,1.246-4.002,1.858-5.576,0.961c-1.605-0.919-3.285-1.774-4.742-2.904c-1.488-1.162-2.767-1.151-4.298,0.116
	c0.929,1.795,1.869,3.665,2.851,5.512c0.349,0.655,0.898,0.834,1.605,0.528c0.37-0.159,0.771-0.222,1.161-0.338
	c0.053,0.116,0.095,0.243,0.148,0.359c-2.376,1.108-4.752,2.207-7.129,3.315c-0.126-0.084-0.253-0.179-0.38-0.264
	c2.388-0.972,1.395-2.439,0.771-3.781c-1.722-3.749-3.475-7.477-5.249-11.205c-1.193-2.503-1.225-2.482-3.865-2.112
	c0.169-0.211,0.243-0.412,0.38-0.476c2.672-1.246,5.302-2.587,8.026-3.696c2.968-1.193,5.619-0.338,6.527,2.134
	c0.443,1.193,0.411,2.619,0.359,3.928C96.772,53.121,96.307,53.945,96.001,54.874z M90.625,47.492
	c-1.056,0.37-1.838,0.57-2.523,0.94c-0.254,0.137-0.476,0.792-0.36,1.066c0.898,2.176,1.87,4.319,2.873,6.453
	c0.127,0.264,0.528,0.56,0.803,0.56c2.45-0.021,3.929-1.88,3.316-4.266c-0.274-1.067-0.739-2.197-1.457-3.021
	C92.59,48.442,91.471,48.031,90.625,47.492z"/>
<path d="M157.833,63.238c-1.953-1.035-3.918-2.081-6.21-3.285c0.518-0.105,0.697-0.201,0.782-0.159
	c1.479,0.908,2.63,0.243,3.759-0.707c4.394-3.675,8.809-7.34,13.223-11.004c0.401-0.328,0.866-0.581,1.647-1.109
	c-0.063,1.257-0.053,2.155-0.148,3.031c-0.56,5.069-1.161,10.127-1.7,15.196c-0.306,2.862-0.243,2.904,1.658,4.731
	c-0.053,0.105-0.105,0.2-0.169,0.306c-1.954-1.056-3.907-2.112-5.692-3.073c0.328-0.687,0.687-1.173,0.782-1.711
	c0.264-1.404,0.475-2.83,0.58-4.255c0.032-0.423-0.264-1.056-0.612-1.268c-1.277-0.813-2.629-1.521-3.981-2.186
	c-0.285-0.148-0.834-0.116-1.077,0.074c-1.066,0.824-2.08,1.722-3.062,2.64c-1.13,1.056-1.077,1.257,0.349,2.471
	C157.918,63.027,157.875,63.133,157.833,63.238z M167.443,51.727c-0.105-0.053-0.2-0.116-0.307-0.169
	c-1.499,1.679-2.999,3.358-4.509,5.038c1.141,0.549,2.556,1.225,4.098,1.964C166.979,56.142,167.211,53.934,167.443,51.727z"/>
<path d="M155.268,197.305c0.274,1.679,0.549,3.305,0.823,4.984c-0.296-0.042-0.434-0.031-0.443-0.063
	c-1.162-3.39-3.687-3.495-6.464-3.062c-4.741,0.74-6.663,3.295-6.336,8.089c0.327,4.89,3.58,8.587,7.974,9.072
	c1.816,0.201,3.622-0.105,5.079-1.13c0.845-0.591,1.31-1.742,1.891-2.672c0.169-0.285,0.137-0.687,0.211-1.141
	c1.352,1.732,0.708,4.71-1.108,5.375c-3.38,1.247-6.844,1.933-10.402,0.962c-4.087-1.109-6.938-4.764-7.16-8.987
	c-0.254-4.657,1.975-8.195,6.252-9.959C148.086,197.728,151.93,197.136,155.268,197.305z"/>
<path d="M108.821,218.573c-2.65-0.602-5.301-1.203-7.983-1.806c0.084-0.189,0.116-0.316,0.148-0.316
	c2.006-0.117,2.07-0.106,2.587-2.239c1.109-4.583,2.144-9.188,3.232-13.771c0.274-1.173,0-1.985-1.299-2.271
	c-0.243-0.052-0.465-0.242-0.634-0.58c0.264,0.021,0.528,0.011,0.781,0.063c2.471,0.55,4.932,1.099,7.403,1.657
	c0.244,0.054,0.486,0.138,0.729,0.211c2.851,0.898,4.129,2.524,3.981,5.08c-0.148,2.599-2.165,4.869-4.806,5.302
	c-1.256,0.211-2.513,0.264-3.632-0.634c0.147-0.031,0.295-0.116,0.433-0.084c1.827,0.306,3.158-0.465,4.013-1.985
	c0.939-1.658,1.193-3.422,0.169-5.165c-0.265-0.453-0.666-0.876-1.099-1.192c-1.795-1.299-2.545-1.024-3.021,1.099
	c-1.003,4.435-2.028,8.859-2.967,13.316c-0.423,1.975-0.338,1.996,1.583,2.725c0.169,0.063,0.317,0.179,0.476,0.274
	C108.896,218.362,108.864,218.469,108.821,218.573z"/>
<path d="M104.903,40.3c4.013-0.982,8.026-1.964,12.134-2.967c0.158,1.172,0.328,2.408,0.496,3.654
	c-0.094,0.084-0.2,0.18-0.295,0.264c-0.697-2.376-2.323-1.87-3.897-1.51c-0.739,0.169-1.478,0.328-2.355,0.518
	c0.549,2.292,1.088,4.52,1.679,6.959c2.007-0.645,3.886-1.246,5.84-1.87c0.168,1.088,0.39,2.461,0.612,3.876
	c-0.211-0.021-0.338,0-0.37-0.042c-1.077-1.764-1.077-1.774-3.21-1.32c-0.824,0.169-1.637,0.38-2.609,0.612
	c0.582,2.302,1.077,4.552,1.764,6.738c0.138,0.454,1.004,1.014,1.5,0.972c1.193-0.095,2.429-0.38,3.527-0.855
	c0.518-0.222,0.834-1.045,1.13-1.647c0.147-0.296,0.074-0.708,0.095-1.066c0.158-0.011,0.327-0.021,0.485-0.042
	c0.095,1.214,0.222,2.429,0.264,3.644c0.012,0.158-0.391,0.444-0.644,0.496c-3.643,0.855-7.308,1.679-10.961,2.503
	c-0.063,0.011-0.159-0.052-0.232-0.084c0.021-0.084,0.01-0.2,0.063-0.232c1.668-0.855,1.753-0.876,1.309-2.809
	c-1.045-4.594-2.132-9.188-3.252-13.76c-0.465-1.891-0.634-1.954-2.535-1.711c-0.159,0.021-0.317-0.021-0.476-0.031
	C104.935,40.512,104.924,40.406,104.903,40.3z"/>
<path d="M211.006,86.229c1.637,3.875,3.263,7.762,4.953,11.775c-1.078,0.338-2.303,0.718-3.518,1.098
	c-0.115-0.073-0.221-0.158-0.338-0.232c2.472-1.088,1.437-2.662,0.856-4.161c-0.307-0.781-0.634-1.552-1.014-2.481
	c-2.134,0.887-4.214,1.753-6.453,2.682c0.993,1.859,1.151,4.056,3.095,5.502c-1.405,0.443-2.704,0.855-4.014,1.257
	c0.824-0.919,1.584-1.689,0.961-3.01c-0.475-1.014-0.855-2.08-1.319-3.252c-2.334,1.024-4.552,2.017-6.78,2.967
	c-1.183,0.507-1.637,1.247-1.057,2.471c0.116,0.253,0.148,0.539,0.222,0.803c-0.126,0.053-0.242,0.095-0.369,0.148
	c-1.066-2.535-2.134-5.069-3.221-7.646c0.253-0.053,0.38-0.105,0.401-0.073c1.161,1.542,1.192,1.626,3.073,0.876
	c4.487-1.817,8.944-3.717,13.411-5.576c1.024-0.422,1.447-1.109,0.972-2.197c-0.105-0.253-0.147-0.528-0.211-0.802
	C210.763,86.323,210.89,86.281,211.006,86.229z"/>
<path d="M54.424,105.153c0.687,0.074,1.383,0.19,2.07,0.222c1.648,0.063,2.683-0.834,3.327-2.26
	c0.602-1.331,0.666-2.651-0.401-3.771c-1.088-1.15-2.503-1.225-3.876-0.708c-1.098,0.412-2.081,1.109-3.147,1.605
	c-1.214,0.57-2.418,1.246-3.707,1.553c-4.15,1.014-7.308-2.07-6.315-6.221c0.348-1.436,1.151-2.777,1.858-4.108
	c0.138-0.264,0.845-0.454,1.183-0.348c1.035,0.348,2.006,0.855,3.009,1.298c-0.032,0.106-0.074,0.223-0.105,0.328
	c-0.179,0-0.359,0.021-0.539,0c-2.249-0.274-3.76,0.813-4.192,3.021c-0.38,1.922,1.289,3.602,3.179,3.062
	c1.109-0.327,2.133-0.961,3.189-1.479c1.288-0.623,2.502-1.437,3.844-1.89c4.573-1.553,8.575,1.774,7.656,6.484
	c-0.328,1.668-1.362,3.21-2.207,4.742c-0.18,0.317-1.025,0.517-1.458,0.401c-1.003-0.285-1.943-0.802-2.904-1.225
	c-0.253-0.117-0.497-0.233-0.75-0.349C54.223,105.396,54.318,105.279,54.424,105.153z"/>
<path d="M36.523,121.005c0.412-2.641,0.813-5.281,1.225-7.974c0.243,0.106,0.359,0.127,0.37,0.169
	c0.201,2.323,0.201,2.355,2.588,2.735c3.823,0.613,7.656,1.183,11.49,1.774c0.126,0.021,0.253,0.032,0.38,0.042
	c2.492,0.221,2.798-0.011,3.284-2.471c0.105-0.539,0.19-1.077,0.253-1.626c0.201-1.542-0.179-2.26-1.553-2.968
	c-0.201-0.105-0.401-0.232-0.602-0.348c0.042-0.126,0.084-0.253,0.126-0.391c1.162,0.349,2.334,0.655,3.453,1.077
	c0.222,0.085,0.412,0.655,0.359,0.972c-0.602,3.865-1.246,7.72-1.89,11.574c-0.011,0.063-0.096,0.127-0.159,0.18
	c-0.074-0.032-0.201-0.053-0.201-0.085c-0.18-1.837-0.243-1.996-2.091-2.313c-4.815-0.802-9.652-1.51-14.479-2.292
	c-1.616-0.264-1.87,0.898-2.176,2.049C36.777,121.078,36.65,121.036,36.523,121.005z"/>
<path d="M150.019,55.286c-0.37,1.12-0.687,2.25-1.151,3.327c-0.105,0.243-0.739,0.423-1.088,0.359
	c-3.812-0.697-7.614-1.447-11.416-2.186c-0.105-0.021-0.189-0.126-0.274-0.19c0.053-0.096,0.085-0.222,0.127-0.233
	c1.869-0.074,1.985-0.074,2.365-1.974c0.95-4.742,1.816-9.505,2.715-14.268c0.211-1.12-0.096-1.912-1.32-2.144
	c-0.222-0.042-0.412-0.179-0.624-0.274c0.032-0.106,0.064-0.222,0.096-0.328c2.641,0.486,5.28,0.972,8.11,1.489
	c-0.274,0.253-0.327,0.338-0.38,0.348c-2.312,0.117-2.334,0.117-2.746,2.397c-0.75,4.098-1.489,8.195-2.196,12.303
	c-0.327,1.89,0.042,2.376,1.943,2.83c0.527,0.127,1.077,0.222,1.615,0.328c2.06,0.391,2.472,0.201,3.591-1.616
	c0.085-0.137,0.085-0.327,0.127-0.496C149.67,55.064,149.85,55.17,150.019,55.286z"/>
<path d="M135.782,216.261c-0.147,1.141-0.222,2.292-0.496,3.39c-0.073,0.296-0.771,0.603-1.183,0.612
	c-2.735,0.054-5.48,0.021-8.227,0.021c-1.15,0-2.312,0-3.854,0c0.507-0.242,0.666-0.38,0.834-0.38
	c1.257-0.011,1.542-0.803,1.532-1.848c-0.011-3.2-0.011-6.4-0.042-9.61c-0.021-1.722-0.116-3.453-0.116-5.175
	c-0.011-1.299-0.443-2.134-1.911-2.038c-0.117,0.011-0.233-0.074-0.349-0.116c-0.032-0.011-0.042-0.063-0.19-0.317
	c2.767,0,5.418,0,8.078,0c-0.01,0.054-0.021,0.169-0.062,0.181c-2.176,0.527-2.207,0.527-2.176,2.809
	c0.063,4.256,0.148,8.512,0.275,12.757c0.053,1.785,0.528,2.176,2.324,2.249c0.211,0.012,0.422,0,0.633,0
	c3.189,0.012,3.189,0.012,4.562-2.598C135.54,216.229,135.656,216.25,135.782,216.261z"/>
<path d="M36.228,130.002c1.109,1.922,1.12,1.975,3.485,1.869c4.594-0.201,9.177-0.465,13.771-0.729
	c1.594-0.096,1.827-0.381,1.901-2.017c0.01-0.274,0.084-0.539,0.126-0.813c0.116,0,0.222,0,0.338,0
	c0.137,2.725,0.274,5.449,0.401,8.174c-0.116,0.085-0.243,0.18-0.359,0.264c-0.106-2.852-2.091-2.176-3.591-2.133
	c-4.002,0.127-8.005,0.369-12.007,0.56c-2.651,0.127-2.651,0.116-3.707,2.334C36.471,135.008,36.354,132.505,36.228,130.002z"/>
<path d="M75.387,53.691c0.106,0.253,0.148,0.306,0.138,0.327c-1.162,1.816-1.173,1.827,0.253,3.686
	c2.64,3.453,5.291,6.896,7.963,10.317c1.806,2.312,2.017,1.827,3.538,0.718c0.117-0.084,0.296-0.084,0.444-0.116
	c0.052,0.095,0.116,0.179,0.169,0.274c-2.176,1.668-4.352,3.337-6.558,5.038c-0.106-0.253-0.18-0.359-0.159-0.391
	c1.183-1.573,1.236-1.616,0.042-3.199c-2.84-3.771-5.766-7.488-8.596-11.269c-0.94-1.246-1.89-1.373-3.125-0.232
	c-0.053-0.169-0.105-0.327-0.148-0.496C71.332,56.817,73.338,55.275,75.387,53.691z"/>
<path d="M217.986,105.628c0.496,2.46,0.993,4.911,1.499,7.445c-0.253-0.053-0.38-0.053-0.401-0.095
	c-0.876-1.774-0.981-1.837-2.978-1.436c-4.457,0.897-8.913,1.785-13.37,2.725c-2.133,0.454-2.122,0.496-2.069,2.64
	c0,0.18-0.042,0.359-0.063,0.549c-0.105,0.011-0.211,0.011-0.316,0.021c-0.539-2.651-1.067-5.302-1.616-7.995
	c0.243,0.021,0.369,0,0.38,0.032c0.845,1.732,0.855,1.816,2.831,1.437c4.752-0.897,9.493-1.901,14.246-2.809
	c1.446-0.274,1.668-1.257,1.437-2.598C217.722,105.555,217.859,105.597,217.986,105.628z"/>
<path d="M81.85,90.336c2.809-3.738,6.231-6.854,9.938-9.663c11.5-8.734,24.522-12.937,38.947-12.662
	c29.295,0.549,54.535,22.04,59.267,50.986c3.78,23.128-3.58,42.517-21.174,58.042c-1.109,0.981-2.134,0.939-3.348,0.538
	c-1.236-0.4-1.489-1.457-1.521-2.524c-0.127-3.748-0.179-7.497-0.253-11.257c-0.021-0.877,0-1.753,0-2.915
	c2.915,0.148,5.682,0.211,8.427,0.465c1.141,0.105,1.838,0.939,1.996,2.145c0.085,0.654,0.265,1.288,0.401,1.932
	c0.158-0.021,0.317-0.042,0.476-0.063c0.18-3.168,0.369-6.325,0.549-9.494c-0.074-0.084-0.158-0.157-0.232-0.242
	c-1.658,2.692-4.267,1.722-6.548,1.891c-1.626,0.115-3.273,0.021-5.079,0.021c0-1.31,0-2.471,0-3.644
	c0-2.577,0.021-5.143-0.011-7.72c-0.01-0.729,0.18-1.088,0.993-1.056c2.481,0.116,4.984,0.116,7.466,0.285
	c2.091,0.147,2.735,0.877,3.053,2.989c0.062,0.422,0.168,0.844,0.507,1.267c0.823-2.714,0.591-5.534,1.14-8.058
	c-8.775,0-17.435,0-26.095,0c-0.021,0.201-0.042,0.401-0.063,0.603c0.56,0.115,1.13,0.264,1.7,0.327
	c1.975,0.211,2.672,0.802,2.683,2.799c0.031,9.778,0.021,19.568-0.042,29.348c-0.021,2.439-0.454,2.798-2.873,3.305
	c-0.285,0.063-0.56,0.212-0.845,0.316c0.021,0.138,0.032,0.275,0.053,0.402c4.879,0,9.748,0,14.627,0
	c0.031,0.116,0.063,0.231,0.095,0.338c-0.211,0.2-0.412,0.443-0.645,0.612c-11.754,8.374-24.849,12.292-39.285,11.553
	c-16.052-0.823-29.771-7.032-40.997-18.47c-10.265-10.455-16.094-23.086-17.319-37.712c-1.362-16.21,3.042-30.764,13.032-43.626
	c0.306-0.401,0.676-0.739,1.024-1.109c0.116,0.434,0.19,0.888,0.359,1.299c0.687,1.679,1.468,3.316,2.081,5.016
	c3.559,9.948,7.065,19.928,10.635,29.876c0.264,0.729,0.897,1.32,1.362,1.975c0.559-0.634,1.298-1.183,1.647-1.922
	c1.352-2.904,2.598-5.851,3.823-8.808c1.753-4.225,3.465-8.47,5.27-12.884c0.254,0.528,0.444,0.887,0.612,1.256
	c3.095,6.833,6.2,13.655,9.293,20.488c0.211,0.454,0.423,0.929,0.708,1.341c0.527,0.76,1.119,0.707,1.583-0.042
	c0.328-0.528,0.582-1.12,0.803-1.711c0.95-2.513,1.87-5.038,2.788-7.53c0.729,0.127,1.341,0.254,1.964,0.317
	c2.43,0.243,2.979,0.76,3.042,3.252c0.085,3.538,0.116,7.085,0.085,10.634c-0.053,6.157-0.138,12.313-0.265,18.47
	c-0.052,2.377-0.412,2.673-2.799,3.032c-0.527,0.073-1.045,0.211-1.573,0.316c0.011,0.169,0.021,0.338,0.032,0.507
	c0.75,0.053,1.5,0.158,2.249,0.147c2.577-0.011,5.154-0.116,7.72-0.095c5.069,0.053,10.128,0.148,15.196,0.265
	c1.331,0.03,2.081-0.476,2.271-1.796c0.296-2.165,0.624-4.33,0.898-6.506c0.042-0.369-0.096-0.76-0.148-1.129
	c-0.147-0.021-0.296-0.043-0.454-0.063c-0.2,0.644-0.422,1.277-0.602,1.933c-0.645,2.344-2.134,3.696-4.594,3.812
	c-1.933,0.085-3.887,0.159-5.809,0.054c-2.83-0.158-3.538-0.834-3.559-3.633c-0.042-8.734-0.021-17.467,0.042-26.191
	c0.011-2.239,0.612-2.746,2.862-3c0.56-0.062,1.098-0.232,1.647-0.348c-0.021-0.169-0.054-0.338-0.074-0.507
	c-5.936,0-11.87,0-17.942,0c1.721-4.911,3.348-9.61,5.005-14.288c1.183-3.338,2.397-6.653,3.623-9.97
	c0.57-1.521,1.658-2.387,3.348-2.439c0.359-0.011,0.707-0.19,1.056-0.295c-0.011-0.117-0.021-0.232-0.021-0.349
	c-0.296-0.074-0.592-0.211-0.888-0.211c-3.76-0.042-7.509-0.074-11.268-0.084c-0.348,0-0.708,0.2-1.056,0.306
	c0.011,0.126,0.011,0.253,0.021,0.38c0.507,0.095,1.003,0.211,1.51,0.285c2.102,0.295,2.555,0.803,2.017,2.83
	c-1.183,4.436-2.461,8.84-3.738,13.254c-0.676,2.354-1.437,4.689-2.26,7.35c-0.391-0.856-0.634-1.384-0.866-1.912
	c-3.095-7.011-6.178-14.034-9.304-21.036c-0.232-0.518-0.782-0.887-1.193-1.32c-0.37,0.475-0.782,0.929-1.109,1.446
	c-0.222,0.349-0.316,0.782-0.465,1.172c-2.565,6.78-5.122,13.549-7.699,20.33c-0.116,0.316-0.274,0.623-0.549,1.214
	c-0.919-2.777-1.774-5.238-2.545-7.72c-1.384-4.425-2.767-8.85-4.076-13.285c-0.507-1.7-0.159-2.102,1.562-2.366
	c0.359-0.053,0.708-0.221,1.056-0.327c-0.011-0.179-0.032-0.349-0.042-0.528c-1.172-0.032-2.333-0.063-3.506-0.084
	C88.408,90.421,85.124,90.378,81.85,90.336z"/>
</svg>
