<?xml version="1.0" encoding="utf-8"?>
<!-- Generator: Adobe Illustrator 24.0.0, SVG Export Plug-In . SVG Version: 6.00 Build 0)  -->
<svg version="1.1" id="Layer_1" xmlns="http://www.w3.org/2000/svg" xmlns:xlink="http://www.w3.org/1999/xlink" x="0px" y="0px"
	 viewBox="0 0 46 46" style="enable-background:new 0 0 46 46;" xml:space="preserve">
<style type="text/css">
	.st0{fill:none;}
	.st1{fill:#FFFFFF;}
	.st2{fill:#F26724;}
</style>
<title>Chat_Widget</title>
<circle class="st0" cx="22.9" cy="23.1" r="22.7"/>
<path class="st1" d="M22.9,0.1c-12.7,0-23,10.3-23,23s10.3,23,23,23s23-10.3,23-23S35.6,0.1,22.9,0.1z M22.9,45.4
	c-12.3,0-22.3-10-22.3-22.3s10-22.3,22.3-22.3s22.3,10,22.3,22.3S35.2,45.4,22.9,45.4L22.9,45.4L22.9,45.4z"/>
<path class="st1" d="M19.4,28.7c-2.2,0-3.7-2.1-3.7-3.5v-6.9h-2.9c-1.9,0-3.4,1.5-3.4,3.4l0,0v5.5c0,1.9,1.5,3.4,3.4,3.4h0.5l-0.5,2
	l2.9-2h7.6c1.3,0,2.6-0.8,3.1-2L19.4,28.7L19.4,28.7z"/>
<path class="st1" d="M32,14.2H20.1c-2.2,0-3.9,1.7-3.9,3.9l0,0v6.3c0,2.2,1.7,3.9,3.9,3.9l0,0h8.6l3.3,2.2l-0.5-2.2h0.6
	c2.1,0,3.9-1.7,3.9-3.9v-6.3C35.9,15.9,34.2,14.2,32,14.2L32,14.2z M23,22.1c-0.5,0-1-0.4-1-1s0.4-1,1-1s1,0.4,1,1l0,0
	C24,21.7,23.6,22.1,23,22.1L23,22.1L23,22.1z M26.2,22.1c-0.5,0-1-0.4-1-1s0.4-1,1-1s1,0.4,1,1l0,0C27.2,21.7,26.7,22.1,26.2,22.1
	L26.2,22.1L26.2,22.1z M29.4,22.1c-0.5,0-1-0.4-1-1s0.4-1,1-1c0.5,0,1,0.4,1,1l0,0C30.4,21.7,29.9,22.1,29.4,22.1L29.4,22.1z"/>
<circle class="st0" cx="-74.8" cy="23.1" r="22.7"/>
<path class="st1" d="M-74.8,0.1c-12.7,0-23,10.3-23,23s10.3,23,23,23s23-10.3,23-23S-62.1,0.1-74.8,0.1z M-74.8,45.4
	c-12.3,0-22.3-10-22.3-22.3s10-22.3,22.3-22.3s22.3,10,22.3,22.3S-62.5,45.4-74.8,45.4L-74.8,45.4L-74.8,45.4z"/>
<circle class="st1" cx="-60.6" cy="5.9" r="4.5"/>
<circle class="st2" cx="-60.6" cy="5.9" r="3.9"/>
<path class="st1" d="M-78.3,28.7c-2.2,0-3.7-2.1-3.7-3.5v-6.9h-2.9c-1.9,0-3.4,1.5-3.4,3.4l0,0v5.5c0,1.9,1.5,3.4,3.4,3.4h0.5
	l-0.5,2l2.9-2h7.6c1.3,0,2.6-0.8,3.1-2L-78.3,28.7L-78.3,28.7z"/>
<path class="st1" d="M-65.7,14.2h-11.9c-2.2,0-3.9,1.7-3.9,3.9l0,0v6.3c0,2.2,1.7,3.9,3.9,3.9l0,0h8.6l3.3,2.2l-0.5-2.2h0.6
	c2.1,0,3.9-1.7,3.9-3.9v-6.3C-61.8,15.9-63.5,14.2-65.7,14.2L-65.7,14.2z M-74.7,22.1c-0.5,0-1-0.4-1-1s0.4-1,1-1s1,0.4,1,1l0,0
	C-73.7,21.7-74.1,22.1-74.7,22.1L-74.7,22.1L-74.7,22.1z M-71.5,22.1c-0.5,0-1-0.4-1-1s0.4-1,1-1c0.6,0,1,0.4,1,1l0,0
	C-70.5,21.7-71,22.1-71.5,22.1L-71.5,22.1L-71.5,22.1z M-68.3,22.1c-0.5,0-1-0.4-1-1s0.4-1,1-1c0.5,0,1,0.4,1,1l0,0
	C-67.3,21.7-67.8,22.1-68.3,22.1L-68.3,22.1z"/>
</svg>
