<?xml version="1.0" encoding="utf-8"?>
<!-- Generator: Adobe Illustrator 23.0.3, SVG Export Plug-In . SVG Version: 6.00 Build 0)  -->
<svg version="1.1" id="Layer_1" xmlns="http://www.w3.org/2000/svg" xmlns:xlink="http://www.w3.org/1999/xlink" x="0px" y="0px"
	 viewBox="0 0 2000 800" style="enable-background:new 0 0 2000 800;" xml:space="preserve">
<style type="text/css">
	.st0{fill:none;stroke:#072C74;stroke-width:10;stroke-miterlimit:10;}
	.st1{fill:none;stroke:#072C74;stroke-width:9;stroke-miterlimit:10;}
	.st2{fill:#072C74;}
</style>
<g>
	<g>
		<path class="st0" d="M906,413.8c-15,12.4-7.7,47.5,27.3,26.3c0,0,42.8-21.4,67.8-35.6c5.5-3.1,9.1-2.1,13.6,3.1
			c4.5,3.2,95.3,104.5,114.6,126.1c2,2.3,5.5,2.5,7.9,0.6c8.8-7.3,29.1-25.2,40.9-44.7c2.2-3.7,2.3-8.3,0.3-12.1
			c-8.4-15.9-32.7-61.9-56.4-108.3c-0.9-1.8-3.2-2.5-5-1.5c-7.3,4.1-14.1,7.3-22.7,4.9c-10.3-2.9-18.8-11-28.1-16.4
			c-10.6-6.2-19.6-11.7-31.4-13.4c-17.5-2.5-31.3,5.3-46.3,14c-17.1,9.8-33.8,20.9-50.1,32.4C927.2,396.9,916.5,405.1,906,413.8z"/>
		<path class="st0" d="M923.5,626.2c-5.9-8.1-4.8-20.2,2.5-27l35.9-32.7c7.3-6.8,17.9-5.8,23.8,2.3l0,0c5.9,8.1,4.8,20.2-2.5,27
			l-35.9,32.7C940.1,635.3,929.4,634.3,923.5,626.2L923.5,626.2z"/>
		<path class="st0" d="M886.3,592.1c-5.9-8.1-4.8-20.2,2.5-27l28.3-25.8c7.3-6.8,17.9-5.8,23.8,2.3l0,0c5.9,8.1,4.8,20.2-2.5,27
			l-28.3,25.8C902.9,601.2,892.2,600.2,886.3,592.1L886.3,592.1z"/>
		<path class="st0" d="M853.4,551.4c-5.5-8.5-5.1-19.6,2.5-26l8.3-6.1c7.6-6.4,18.9-5.4,24.4,3.1l0.4,0.5c5.5,8.5,3.8,19.4-3.8,25.8
			l-8.1,6.6C869.5,561.6,858.9,559.9,853.4,551.4L853.4,551.4z"/>
		<path class="st0" d="M1014.1,611c-5.8-8-16.4-9.1-23.8-2.3L973.9,624c-7.3,6.8-8.6,18.9-2.8,27c5.8,8.1,16.5,9.1,23.8,2.3
			l16.3-15.2C1018.6,631.2,1019.9,619.1,1014.1,611z"/>
		<path class="st1" d="M1238.9,450.7c2.6,4.9,1.2,10.7-3.1,12.9l-26,13.7c-4.3,2.2-9.8,0-12.3-4.9l-61.9-119.6
			c-2.5-4.9-1.2-10.7,3.1-12.9l26.1-13.7c4.3-2.2,9.8,0,12.3,4.9L1238.9,450.7z"/>
	</g>
	<path class="st0" d="M793.9,472.1c-1.9,5.2-6.9,8.1-11.1,6.5l-26.3-9.1c-4.2-1.6-6-7.1-4.1-12.2l47.4-126c1.9-5.2,6.9-8.1,11.1-6.5
		l26.3,9.1c4.2,1.6,6,7.1,4.1,12.2L793.9,472.1z"/>
	<path class="st2" d="M1148.1,555.9L1148.1,555.9c-0.6,3-8.5,12.6-10.7,15.2c-3.7,4.1-8.4,6.2-13.2,6.2c-5,0-10.1-2.3-14-6.7
		l-46.8-53.7c-0.9-1.1-2-1.5-3.1-1.5c-4.5,0-9.4,7.4-5.4,11.7l38.4,43c7.3,8.5,7.5,21.6,0.2,29.8c-3.3,3.8-7.5,5.6-11.7,5.6
		c-4.9,0-9.9-2.4-13.8-7l-44-49.7c-1-1.6-2.2-2.2-3.5-2.2c-4.1,0-8.5,7-4.1,12l33.9,39.3c7.1,8.2,6.5,21-0.5,29
		c-3.2,3.6-7.2,5.3-11.2,5.3c-2.3,0-4.7-0.6-7-1.7c0,0,0,0,0,0c-1.4,3.8-3.4,7.3-6.1,10.4c0,0,0,0,0,0c4.2,2.3,8.6,3.6,13.1,3.6
		c7.4,0,14.4-3.3,19.6-9.2c5.5-6.2,8.3-14,8.7-22c0,0,0,0,0,0c4.6,2.9,9.7,4.5,14.9,4.5c7.6,0,14.8-3.4,20.2-9.5
		c5.4-6.2,8.2-14.1,8.4-22.1c0,0,0,0,0,0c4.2,2.3,8.9,3.5,13.6,3.5c8.3,0,16-3.6,21.7-10.1c5.5-6.2,14-19,14.7-23.7
		c0.3-1.7,0.1-3.4-0.3-5.1c-0.3-1.3-1.6-3.2-2.5-4.1c-0.7-0.7-1.5-1.7-2.4-2.7c-1.6-1.9-4.5-2.1-6.4-0.3l-3.3,3
		c-1.5,1.4-1.7,3.8-0.5,5.5L1148.1,555.9z"/>
	<path class="st2" d="M848.5,509c-16.9-17.2-25.7-26.2-28.4-29c-0.6-0.6-0.7-1.4-0.4-2.2c18.2-46.5,38.4-101.3,43.3-114.7
		c0.5-1.4,2.3-1.8,3.4-0.7c5.8,5.8,10.4,7.9,12.5,9c6.9,3.4,15.7,2.4,16.9,2.3c13.1-1.3,25.5-8.9,37.1-15.5
		c7.8-4.4,17.5-8.9,26.7-8.9c4,0,7.9,0.9,11.4,3c0.6,0.4,1.4,0.3,2.1,0c2.4-1.4,4.7-2.8,7-4.2c1.2-0.7,1.4-2.5,0.3-3.3c0,0,0,0,0,0
		c-5.9-4.7-13-7.1-20.8-7.1c-12.2,0-24.1,5.9-31.9,10.3l-3,1.7c-9.9,5.6-20.1,11.4-29.9,12.4c-0.9,0.1-8.3,1.4-11.9-1.6
		c-1.6-1.4-12.9-11-16.4-11.9c-0.8-0.2-1.6-0.3-2.3-0.3c-4.5,0-8.7,2.9-10.4,7.5c-0.2,0.7-24,65.9-44.8,118.8
		c-1.6,4.1-0.9,8.7,1.8,12c0.6,0.7,8.9,9.3,29.6,30.3c0.8,0.8,2.2,0.8,3,0c1.5-1.6,3.7-3.6,5.1-4.9
		C849.3,511.2,849.3,509.9,848.5,509z"/>
</g>
<g>
	<path class="st2" d="M1012.1,318.8h-6.1c-1.7,0-3.1-1.4-3.1-3.1v-13.6c0-1.5-1.1-2.8-2.6-3c-19.7-2.8-32.8-12.2-39.3-28.2
		c-0.6-1.6,0.2-3.4,1.7-4l7.9-3.1c1.5-0.6,3.3,0.1,3.9,1.7c4.9,11.2,13.2,17.8,24.7,19.8c1.9,0.3,3.6-1.1,3.6-3v-40.7
		c0-1.4-0.9-2.6-2.3-3c-14.3-3.7-23.7-8.4-28.1-14.1c-4.7-6-7-12.7-7-20.1c0-18.8,11.6-30.4,34.9-34.9c1.4-0.3,2.5-1.5,2.5-3v-18
		c0-1.7,1.4-3.1,3.1-3.1h6.1c1.7,0,3.1,1.4,3.1,3.1v17.8c0,1.5,1.1,2.8,2.7,3c17,2.1,28.6,9.8,34.8,23.1c0.8,1.6-0.1,3.6-1.8,4.2
		l-7.6,2.5c-1.5,0.5-3.1-0.3-3.8-1.7c-3.7-8.3-10.6-13.2-20.7-14.7c-1.9-0.3-3.5,1.1-3.5,3v37c0,1.4,1,2.7,2.4,3
		c26,5.2,39,17.5,39,36.9c0,8.6-3.1,16.5-9.4,23.8c-5.9,6.9-15.7,11.1-29.3,12.7c-1.5,0.2-2.7,1.5-2.7,3v13.6
		C1015.2,317.4,1013.8,318.8,1012.1,318.8z M1002.9,185.8c0-1.9-1.7-3.3-3.6-3c-5.2,0.9-9.6,2.9-12.9,5.9c-4.1,3.7-6.2,8.3-6.2,14
		c0,10.1,6.3,16.8,18.8,20.1c1.9,0.5,3.8-1,3.8-3V185.8z M1015.2,282.4c0,1.8,1.6,3.2,3.3,3c6.5-0.8,11.8-2.9,15.7-6.5
		c4.6-4.1,6.8-9.1,6.8-15c0-11.5-7.4-18.7-22.2-21.6c-1.9-0.4-3.7,1.1-3.7,3V282.4z"/>
</g>
</svg>
