<?xml version="1.0" encoding="utf-8"?>
<!-- Generator: Adobe Illustrator 23.0.3, SVG Export Plug-In . SVG Version: 6.00 Build 0)  -->
<svg version="1.1" id="Layer_1" xmlns="http://www.w3.org/2000/svg" xmlns:xlink="http://www.w3.org/1999/xlink" x="0px" y="0px"
	 viewBox="0 0 128.3 81.5" style="enable-background:new 0 0 128.3 81.5;" xml:space="preserve">
<style type="text/css">
	.st0{fill:none;stroke:#072C72;stroke-width:3;stroke-linecap:round;stroke-miterlimit:10;}
	.st1{display:none;}
	.st2{display:inline;fill:none;stroke:#344154;stroke-width:3;stroke-linecap:round;stroke-miterlimit:10;}
</style>
<path class="st0" d="M18,20.3c0,3.6,2.9,5.6,6.4,5.7c26.1,1.3,53.4,1.3,79.5,0c3.5-0.2,6.4-2.2,6.4-5.7 M116.1,41.8l-17.7,2.1
	 M12.1,41.8l17.7,2.1 M104.5,70.3l0.1,6.9c0,1.4,1.2,2.6,2.7,2.6h14.1c1.5,0,2.7-1.2,2.7-2.6c0-10,0-13.3,0-35.5
	c0.1-3.7-0.8-6.7-2.6-8.9l-3-3.5l7.3-3.2c0.5-0.2,0.9-0.5,0.8-1l-1.2-4.2c-0.4-1.4-1.9-2.6-3.4-2.6h-12.8l-8.6-13.2
	c-0.6-0.7-1.9-2-4.3-2.3c-24.1-1.5-40.6-1.5-64.7,0c-2.4,0.3-3.7,1.6-4.3,2.3l-8.6,13.2H6.2c-1.4,0-3,1.2-3.4,2.6l-1.2,4.2
	c-0.2,0.6,0.2,0.8,0.8,1l7.3,3.2l-3,3.5C4.9,35,4,38,4.1,41.7c0,22.1,0,25.5,0,35.5c0,1.4,1.2,2.6,2.7,2.6h14.1
	c1.5,0,2.7-1.2,2.7-2.6l0.1-6.9C47.2,71.7,81.7,71.6,104.5,70.3L104.5,70.3z M29.2,70.7L11,69.2l-7.1-9.1 M98.8,70.7l18.2-1.5
	l7.1-9.1 M35.9,45.7c19.9,0.9,36.5,0.9,56.4,0l-1.6,10.4c-17.2,1.9-36,2-53.1,0L35.9,45.7z"/>
<g>
	<g class="st1">
		<path class="st2" d="M32.9,43.5c0,4.3-3.5,7.8-7.8,7.8s-7.8-3.5-7.8-7.8s3.5-7.8,7.8-7.8C29.4,35.6,32.9,39.1,32.9,43.5z"/>
		<path class="st2" d="M111,43.5c0,4.3-3.5,7.8-7.8,7.8s-7.8-3.5-7.8-7.8s3.5-7.8,7.8-7.8C107.5,35.6,111,39.1,111,43.5z"/>
		<line class="st2" x1="47" y1="41.8" x2="81.2" y2="41.8"/>
		<line class="st2" x1="40.9" y1="49.8" x2="87.3" y2="49.8"/>
		<path class="st2" d="M32,70.6c0,2.8,0,5,0,5c0,1.3-1.1,2.4-2.4,2.4H15.5c-1.3,0-2.4-1.1-2.4-2.4c0,0,0-1.3,0-5.5"/>
		<path class="st2" d="M96.2,70.6c0,2.8,0,5,0,5c0,1.3,1.1,2.4,2.4,2.4h14.1c1.3,0,2.4-1.1,2.4-2.4c0,0,0-1.3,0-5.5"/>
		<path class="st2" d="M101,11.8c-1.1-2.4-2.9-6.3-2.9-6.3c-1.7-4.1-6.7-7.3-11-7.3h-46c-4.4,0-9.3,3.3-11,7.3c0,0-1.7,3.7-2.8,6"/>
		<path class="st2" d="M116.1,25.4c1.9-0.4,3.4-0.7,3.4-0.7c1.5-0.2,2.6-1.6,2.6-3.1v-5.3c0-1.5-1.2-2.7-2.7-2.7l-8.9-0.1
			c-2,0-4.5,1.3-5.7,2.9l-3.4,4.7c-1.7,2.4-5.5,4.3-8.5,4.3H35.2c-3,0-6.7-1.9-8.5-4.3l-3.4-4.7c-1.2-1.6-3.7-2.9-5.7-2.9l-8.9,0.1
			c-1.5,0-2.7,1.2-2.7,2.7v5.3c0,1.5,1.2,2.9,2.6,3.1c0,0,1.6,0.3,3.4,0.7"/>
		<path class="st2" d="M21.5,24.4c0,0-5.1,4.1-7,5.8s-4,3.3-4.1,7.2v20.8c0,4.4,3.6,8,8,8h91.5c4.4,0,8-3.6,8-8V37.4
			c0-3.7-2.3-5.6-4.1-7.2s-6.7-5.8-6.7-5.8"/>
	</g>
</g>
</svg>
