<?xml version="1.0" encoding="utf-8"?>
<!-- Generator: Adobe Illustrator 25.0.0, SVG Export Plug-In . SVG Version: 6.00 Build 0)  -->
<svg version="1.1" id="Layer_1" xmlns="http://www.w3.org/2000/svg" xmlns:xlink="http://www.w3.org/1999/xlink" x="0px" y="0px"
	 viewBox="0 0 198.1 232.6" style="enable-background:new 0 0 198.1 232.6;" xml:space="preserve">
<style type="text/css">
	.st0{fill:#FFFFFF;}
</style>
<path class="st0" d="M136.8,178.8V73.7h-15.5v114l-15.5,8.9v-123H91.1v131.5L75.6,214V73.7H60.1v149.4L44.6,232
	c0-59.6,0-98.8,0-158.3V59.1h15.5h15.5h15.5h14.8h15.5h15.5h15.5v14.6c0,32.9,0,45.4,0,78.3v17.8l0,0L136.8,178.8L136.8,178.8z
	 M39.9,29.8h117.2c4,0,7.3,3.3,7.3,7.3l0,0c0,4-3.3,7.3-7.3,7.3H39.9c-4,0-7.3-3.3-7.3-7.3l0,0C32.6,33.1,35.8,29.8,39.9,29.8z
	 M136.8,15.2h-15.5h-15.5H91.1H75.6H60.1H44.6h-4.2h-3.1h-6.6v0.1C30.8,23.4,24.1,30,16,30S1.3,23.4,1.3,15.3S7.9,0.6,16,0.6h166.3
	c8.1,0,14.7,6.6,14.7,14.7S190.4,30,182.3,30c-8.1,0-14.7-6.6-14.7-14.7v-0.1h-5.3h-1.9h-8H136.8z"/>
</svg>
