<?xml version="1.0" encoding="utf-8"?>
<!-- Generator: Adobe Illustrator 25.0.0, SVG Export Plug-In . SVG Version: 6.00 Build 0)  -->
<svg version="1.1" id="Layer_1" xmlns="http://www.w3.org/2000/svg" xmlns:xlink="http://www.w3.org/1999/xlink" x="0px" y="0px"
	 viewBox="0 0 1653.1 232.6" style="enable-background:new 0 0 1653.1 232.6;" xml:space="preserve">
<style type="text/css">
	.st0{enable-background:new    ;}
	.st1{fill:#FFFFFF;}
</style>
<g class="st0">
	<path class="st1" d="M189.3,61h16.3l7.5,82.9h0.3l8-82.9H240l8,82.9h0.3l7.5-82.9h14.6l-10.9,107.8h-21.1l-7.7-72.7h-0.3l-7.7,72.7
		h-22.5L189.3,61z"/>
	<path class="st1" d="M279.1,61h25.1c17.6,0,25.1,8.2,25.1,24.8v6.6c0,11.1-3.5,18.2-11.1,21.3v0.3c8.5,2.6,11.2,10.6,11.2,22.8
		v18.9c0,5.2,0.2,9.1,1.8,13.1h-17.2c-0.9-2.8-1.5-4.5-1.5-13.2v-19.7c0-10-2.9-13.2-10.6-13.2H296v46.2h-16.9V61z M302.2,107.2
		c6.3,0,10.2-2.8,10.2-11.4v-8.3c0-7.7-2.6-11.1-8.6-11.1H296v30.8H302.2z"/>
	<path class="st1" d="M339.9,143.2V86.6c0-17.2,9.1-27.1,25.7-27.1s25.7,9.9,25.7,27.1v56.7c0,17.2-9.1,27.1-25.7,27.1
		S339.9,160.5,339.9,143.2z M374.4,144.3V85.5c0-7.7-3.4-10.6-8.8-10.6s-8.8,2.9-8.8,10.6v58.8c0,7.7,3.4,10.6,8.8,10.6
		S374.4,152,374.4,144.3z"/>
	<path class="st1" d="M402.8,61H424l16.5,64.5h0.3V61h15.1v107.8h-17.4l-20.3-78.7h-0.3v78.7h-15.1V61z"/>
	<path class="st1" d="M467.3,143.2V86.6c0-17.2,8.6-27.1,25.3-27.1s25.3,9.9,25.3,27.1v9.2h-16V85.5c0-7.7-3.4-10.6-8.8-10.6
		s-8.8,2.9-8.8,10.6v59c0,7.7,3.4,10.5,8.8,10.5s8.8-2.8,8.8-10.5v-21.1h-8.5V108h24.5v35.3c0,17.2-8.6,27.1-25.3,27.1
		S467.3,160.5,467.3,143.2z"/>
	<path class="st1" d="M528.7,61h44.8v15.4h-27.9v30h21.9v15.4h-21.9v47h-16.9V61z"/>
	<path class="st1" d="M581.1,143.2V61H598v83.5c0,7.7,3.2,10.5,8.6,10.5c5.4,0,8.6-2.8,8.6-10.5V61h16.3v82.2
		c0,17.2-8.6,27.1-25.3,27.1S581.1,160.5,581.1,143.2z"/>
	<path class="st1" d="M643.6,61h16.9v92.4h27.9v15.4h-44.8V61z"/>
	<path class="st1" d="M734.5,76.4h-17.7V61h52.4v15.4h-17.7v92.4h-16.9V76.4z"/>
	<path class="st1" d="M777.3,61h46.2v15.4h-29.3v28.5h23.3v15.4h-23.3v33.1h29.3v15.4h-46.2V61z"/>
	<path class="st1" d="M833.2,61h25.1c17.6,0,25.1,8.2,25.1,24.8v6.6c0,11.1-3.5,18.2-11.1,21.3v0.3c8.5,2.6,11.2,10.6,11.2,22.8
		v18.9c0,5.2,0.2,9.1,1.8,13.1h-17.2c-0.9-2.8-1.5-4.5-1.5-13.2v-19.7c0-10-2.9-13.2-10.6-13.2h-5.9v46.2h-16.9V61z M856.3,107.2
		c6.3,0,10.2-2.8,10.2-11.4v-8.3c0-7.7-2.6-11.1-8.6-11.1h-7.7v30.8H856.3z"/>
	<path class="st1" d="M895.2,61h24.2l10.8,77.2h0.3L941.3,61h24.2v107.8h-16V87.2h-0.3l-12.3,81.6h-14.2l-12.3-81.6H910v81.6h-14.8
		V61z"/>
	<path class="st1" d="M978.1,61H995v107.8h-16.9V61z"/>
	<path class="st1" d="M1007.7,61h21.3l16.5,64.5h0.3V61h15.1v107.8h-17.4l-20.3-78.7h-0.3v78.7h-15.1V61z"/>
	<path class="st1" d="M1086.5,61h22.9l17.6,107.8h-16.9l-3.1-21.4v0.3h-19.3l-3.1,21.1h-15.7L1086.5,61z M1105,133.1l-7.5-53.3h-0.3
		l-7.4,53.3H1105z"/>
	<path class="st1" d="M1141.3,76.4h-17.7V61h52.4v15.4h-17.7v92.4h-16.9V76.4z"/>
	<path class="st1" d="M1184.1,61h16.9v107.8h-16.9V61z"/>
	<path class="st1" d="M1212.5,143.2V86.6c0-17.2,9.1-27.1,25.7-27.1s25.7,9.9,25.7,27.1v56.7c0,17.2-9.1,27.1-25.7,27.1
		S1212.5,160.5,1212.5,143.2z M1247,144.3V85.5c0-7.7-3.4-10.6-8.8-10.6c-5.4,0-8.8,2.9-8.8,10.6v58.8c0,7.7,3.4,10.6,8.8,10.6
		C1243.6,154.9,1247,152,1247,144.3z"/>
	<path class="st1" d="M1275.3,61h21.3l16.5,64.5h0.3V61h15.1v107.8H1311l-20.3-78.7h-0.3v78.7h-15.1V61z"/>
	<path class="st1" d="M1362.8,143.2v-6.2h16v7.4c0,7.7,3.4,10.5,8.8,10.5c5.4,0,8.8-2.8,8.8-10.8c0-8.9-3.4-14.6-14.5-24.3
		c-14.2-12.5-18.8-21.3-18.8-33.6c0-16.9,8.8-26.8,25.3-26.8s24.6,9.9,24.6,27.1V91h-16v-5.5c0-7.7-3.1-10.6-8.5-10.6
		s-8.5,2.9-8.5,10.3c0,7.9,3.5,13.6,14.6,23.3c14.2,12.5,18.6,21.1,18.6,34.5c0,17.6-8.9,27.4-25.6,27.4S1362.8,160.5,1362.8,143.2z
		"/>
	<path class="st1" d="M1421.7,143.2V86.6c0-17.2,9.1-27.1,25.7-27.1s25.7,9.9,25.7,27.1v56.7c0,17.2-9.1,27.1-25.7,27.1
		S1421.7,160.5,1421.7,143.2z M1456.2,144.3V85.5c0-7.7-3.4-10.6-8.8-10.6c-5.4,0-8.8,2.9-8.8,10.6v58.8c0,7.7,3.4,10.6,8.8,10.6
		C1452.9,154.9,1456.2,152,1456.2,144.3z"/>
	<path class="st1" d="M1483.5,143.9V85.9c0-16.6,8.6-26.5,24.9-26.5c16.3,0,24.9,9.9,24.9,26.5v11.4h-16V84.9c0-7.1-3.4-10-8.5-10
		s-8.5,2.9-8.5,10v60.2c0,7.1,3.4,9.9,8.5,9.9s8.5-2.8,8.5-9.9v-16.5h16v15.2c0,16.6-8.6,26.5-24.9,26.5
		C1492.1,170.3,1483.5,160.5,1483.5,143.9z"/>
	<path class="st1" d="M1556.7,61h22.9l17.6,107.8h-16.9l-3.1-21.4v0.3h-19.3l-3.1,21.1h-15.7L1556.7,61z M1575.1,133.1l-7.5-53.3
		h-0.3l-7.4,53.3H1575.1z"/>
	<path class="st1" d="M1605.3,61h16.9v92.4h27.9v15.4h-44.8V61z"/>
</g>
<path class="st1" d="M136.8,178.8V73.7h-15.5v114l-15.5,8.9v-123H91.1v131.5L75.6,214V73.7H60.1v149.4L44.6,232
	c0-59.6,0-98.8,0-158.3V59.1h15.5h15.5h15.5h14.8h15.5h15.5h15.5v14.6c0,32.9,0,45.4,0,78.3v17.8l0,0L136.8,178.8L136.8,178.8z
	 M39.9,29.8h117.2c4,0,7.3,3.3,7.3,7.3l0,0c0,4-3.3,7.3-7.3,7.3H39.9c-4,0-7.3-3.3-7.3-7.3l0,0C32.6,33.1,35.8,29.8,39.9,29.8z
	 M136.8,15.2h-15.5h-15.5H91.1H75.6H60.1H44.6h-4.2h-3.1h-6.6v0.1C30.8,23.4,24.1,30,16,30S1.3,23.4,1.3,15.3S7.9,0.6,16,0.6h166.3
	c8.1,0,14.7,6.6,14.7,14.7S190.4,30,182.3,30c-8.1,0-14.7-6.6-14.7-14.7v-0.1h-5.3h-1.9h-8H136.8z"/>
</svg>
