<?xml version="1.0" encoding="utf-8"?>
<!-- Generator: Adobe Illustrator 24.0.0, SVG Export Plug-In . SVG Version: 6.00 Build 0)  -->
<svg version="1.1" id="Layer_1" xmlns="http://www.w3.org/2000/svg" xmlns:xlink="http://www.w3.org/1999/xlink" x="0px" y="0px"
	 viewBox="0 0 240.72 239.42" style="enable-background:new 0 0 240.72 239.42;" xml:space="preserve">
<style type="text/css">
	.st0{fill:#FFFFFF;}
	.st1{fill-rule:evenodd;clip-rule:evenodd;fill:#FFFFFF;}
</style>
<g>
	<path class="st0" d="M238.25,109.52l-8.71-12.39c-1.77-3.16-2.73-6.72-2.77-10.35l0.98-14.69c0.54-9.71-3.66-15.26-10.16-19.12
		l-14.09-7.93c-3.12-1.85-5.72-4.46-7.57-7.57l-7.04-13.53c-3.86-6.5-10.83-10.52-18.39-10.62l-15.78,0.36
		c-3.63-0.04-7.18-1-10.35-2.77L131.2,2.77c-6.59-3.7-14.64-3.7-21.23,0l-13.19,8.14c-3.16,1.77-6.72,2.73-10.35,2.77L70,13.19
		c-7.56,0.09-14.53,4.12-18.39,10.62l-6.38,13.67c-1.85,3.12-4.46,5.72-7.57,7.57l-14.17,7.2c-6.5,3.86-9.92,10.88-10.01,18.44
		l0.39,16.19c-0.04,3.63-1,7.18-2.77,10.35L2.78,110.7c-3.7,6.59-3.7,14.64,0,21.23l9,12.07c1.77,3.16,2.73,6.72,2.77,10.35
		l-0.66,15.99c0.09,7.56,4.12,14.53,10.62,18.39l14.4,6.98c3.12,1.85,5.72,4.46,7.57,7.57l6.5,13.06
		c3.86,6.5,10.83,10.52,18.39,10.62l16.08-1.25c3.63,0.04,7.18,1,10.35,2.77l12.18,8.18c6.59,3.7,14.64,3.7,21.23,0l11.94-7.88
		c3.16-1.77,6.72-2.73,10.35-2.77l16.42,0.71c7.56-0.09,14.53-4.12,18.39-10.62l7.29-14.21c1.85-3.12,4.46-5.72,7.57-7.57
		l13.32-5.66c6.5-3.86,10.52-10.83,10.62-18.39l-0.56-16.37c0.05-3.63,1-7.18,2.77-10.35l8.94-12.79
		C242.21,124.11,240.8,113.7,238.25,109.52z M120.68,224.63c-58.06,0-105.12-47.06-105.12-105.12S62.63,14.39,120.68,14.39
		S225.8,61.45,225.8,119.51S178.74,224.63,120.68,224.63z"/>
</g>
<path class="st1" d="M120.58,60.61c33.52,0,60.7,27.18,60.7,60.7s-27.18,60.7-60.7,60.7s-60.7-27.18-60.7-60.7
	C59.88,87.78,87.05,60.61,120.58,60.61 M120.58,57.53c35.22,0,63.78,28.56,63.78,63.78s-28.56,63.78-63.78,63.78
	c-35.23,0-63.78-28.56-63.78-63.78C56.8,86.08,85.35,57.53,120.58,57.53"/>
<path class="st0" d="M120.68,27.62c50.75,0,91.88,41.14,91.88,91.88s-41.14,91.88-91.88,91.88S28.8,170.25,28.8,119.51
	S69.94,27.62,120.68,27.62 M120.68,19.62c-55.08,0-99.88,44.81-99.88,99.88s44.81,99.88,99.88,99.88s99.88-44.81,99.88-99.88
	S175.76,19.62,120.68,19.62L120.68,19.62z"/>
<g>
	<path class="st0" d="M44.58,157.13c-0.77,0.58-1.24,1.03-1.36,1.43c-0.07,0.31,0.04,0.79,0.11,1c0.08,0.23,0.11,0.38-0.08,0.45
		c-0.16,0.06-0.27-0.11-0.39-0.44c-0.42-1.21-0.79-2.52-0.86-2.73c-0.07-0.21-0.5-1.21-0.96-2.56c-0.11-0.33-0.1-0.51,0.04-0.56
		c0.19-0.06,0.27,0.11,0.36,0.35c0.06,0.19,0.14,0.42,0.29,0.55c0.17,0.18,0.35,0.17,0.6,0.08c0.3-0.1,1.02-0.61,1.97-1.25
		c1.4-0.93,7.72-5.54,8.96-6.46l-13.82-0.34c-0.73-0.01-0.98-0.11-1.04-0.29c-0.09-0.26,0.22-0.49,0.86-1.05l10.13-8.98
		c-1.81,0.13-8.61,0.39-11.62,0.51c-0.59,0.02-1.11,0.12-1.43,0.23c-0.37,0.13-0.63,0.45-0.31,1.36c0.08,0.23,0.07,0.42-0.07,0.47
		c-0.16,0.06-0.27-0.11-0.4-0.46c-0.43-1.24-0.69-2.24-0.77-2.45c-0.06-0.16-0.47-1.14-0.74-1.91c-0.09-0.26-0.1-0.44,0.04-0.48
		c0.16-0.06,0.27,0.04,0.35,0.25c0.08,0.23,0.22,0.55,0.4,0.78c0.4,0.49,1.42,0.42,2.92,0.45c3.31,0.06,11.57-0.06,15.46-0.12
		c0.9-0.03,1.22-0.01,1.33,0.3c0.08,0.23-0.15,0.47-0.89,1.12l-10.07,8.93c1.42,0.03,10.74,0.28,13.23,0.54
		c1.11,0.11,1.43,0.13,1.53,0.41c0.08,0.23-0.14,0.41-0.68,0.83L44.58,157.13z"/>
	<path class="st0" d="M39.84,126.42c-3.75,0.18-4.44,0.22-5.22,0.3c-0.84,0.09-1.24,0.36-1.34,0.9c-0.06,0.27-0.07,0.6-0.06,0.89
		c0.01,0.25-0.03,0.4-0.23,0.41c-0.15,0.01-0.21-0.19-0.22-0.58c-0.05-0.94-0.05-2.49-0.08-3.21c-0.03-0.62-0.18-2.07-0.22-3
		c-0.02-0.32,0.02-0.52,0.17-0.53c0.2-0.01,0.25,0.14,0.27,0.38c0.01,0.25,0.05,0.44,0.11,0.73c0.16,0.66,0.58,0.84,1.45,0.84
		c0.79,0.01,1.48-0.02,5.23-0.21l4.34-0.21c2.39-0.12,4.34-0.21,5.39-0.36c0.66-0.11,1.1-0.3,1.16-1.04
		c0.03-0.35,0.05-0.89,0.04-1.26c-0.01-0.27,0.05-0.4,0.18-0.4c0.17-0.01,0.26,0.18,0.27,0.46c0.08,1.63,0.08,3.18,0.11,3.85
		c0.03,0.57,0.18,2.11,0.23,3.1c0.02,0.32-0.05,0.5-0.22,0.5c-0.12,0.01-0.2-0.09-0.22-0.38c-0.02-0.37-0.08-0.66-0.14-0.88
		c-0.12-0.49-0.55-0.62-1.27-0.65c-1.04-0.07-2.99,0.02-5.38,0.14L39.84,126.42z"/>
	<path class="st0" d="M44.86,109.68c3.12,0.48,4.8,0.74,5.32,0.3c0.43-0.36,0.7-0.97,0.99-2.87c0.2-1.29,0.32-2.25-0.24-2.96
		c-0.27-0.34-0.91-0.74-1.36-0.86c-0.22-0.06-0.35-0.13-0.32-0.32c0.03-0.17,0.15-0.18,0.45-0.13c0.27,0.04,2.07,0.49,2.75,0.8
		c0.51,0.23,0.62,0.37,0.42,1.64c-0.35,2.24-0.84,4.46-1.24,7.07c-0.15,0.97-0.23,1.99-0.4,3.08c-0.05,0.32-0.15,0.48-0.32,0.45
		c-0.12-0.02-0.18-0.13-0.13-0.42c0.06-0.37,0.05-0.67,0.04-0.89c-0.02-0.5-0.54-0.71-1.23-0.91c-1-0.28-2.93-0.58-5.17-0.92
		l-4.29-0.66c-3.71-0.57-4.39-0.68-5.18-0.75c-0.84-0.08-1.26,0.06-1.55,0.83c-0.08,0.19-0.15,0.48-0.2,0.79
		c-0.04,0.27-0.11,0.41-0.28,0.38c-0.17-0.03-0.19-0.2-0.14-0.57c0.18-1.15,0.49-2.67,0.59-3.33c0.09-0.59,0.29-2.38,0.44-3.33
		c0.05-0.34,0.13-0.51,0.3-0.48s0.2,0.18,0.15,0.47c-0.04,0.27-0.08,0.66-0.07,0.96c0.02,0.68,0.4,0.94,1.25,1.12
		c0.77,0.17,1.45,0.27,5.16,0.85L44.86,109.68z"/>
	<path class="st0" d="M53.97,99.96c-0.3,0.31-0.45,0.33-0.95,0.13c-1.26-0.5-2.6-1.13-2.96-1.29c-0.34-0.16-0.56-0.33-0.49-0.51
		c0.08-0.21,0.3-0.15,0.48-0.08c0.3,0.12,0.82,0.21,1.25,0.25c1.9,0.16,3.05-0.95,3.61-2.37c0.81-2.07-0.19-3.63-1.41-4.1
		c-1.13-0.44-2.32-0.51-4.56,0.81l-1.24,0.73c-2.97,1.75-4.92,1.99-6.77,1.26c-2.53-0.99-3.51-3.81-2.26-7.01
		c0.34-0.87,0.7-1.52,1.01-2.04c0.22-0.36,0.41-0.63,0.58-0.86c0.13-0.19,0.24-0.28,0.4-0.21c0.3,0.12,0.93,0.47,2.72,1.17
		c0.51,0.2,0.66,0.34,0.59,0.52c-0.06,0.16-0.23,0.18-0.5,0.07c-0.21-0.08-0.96-0.25-1.75,0c-0.57,0.17-1.52,0.57-2.11,2.06
		c-0.67,1.7-0.08,3.12,1.29,3.66c1.06,0.41,2.07,0.2,4.26-1.14l0.73-0.45c3.18-1.96,5.15-2.33,7.33-1.47
		c1.33,0.52,2.72,1.65,3.15,3.73c0.28,1.44-0.01,2.8-0.49,4.02C55.36,98.17,54.79,99.14,53.97,99.96z"/>
	<path class="st0" d="M59.51,68.92c0.05-0.06,0.05-0.15-0.05-0.22l-0.41-0.31c-2.98-2.27-3.53-2.69-4.19-3.13
		c-0.7-0.47-1.13-0.55-1.76-0.01c-0.16,0.13-0.43,0.45-0.64,0.72c-0.17,0.22-0.29,0.3-0.43,0.2c-0.14-0.1-0.07-0.27,0.14-0.55
		c0.81-1.06,1.81-2.25,2.21-2.78c0.36-0.47,1.24-1.75,1.83-2.51c0.21-0.27,0.35-0.38,0.49-0.28c0.14,0.11,0.09,0.25-0.09,0.49
		c-0.12,0.16-0.23,0.35-0.38,0.61c-0.31,0.6-0.09,1.02,0.56,1.58c0.6,0.52,1.15,0.94,4.13,3.21l3.45,2.63
		c1.8,1.38,3.35,2.56,4.27,3.1c0.59,0.36,1.12,0.57,1.64,0.04c0.25-0.25,0.62-0.65,0.84-0.94c0.16-0.22,0.3-0.27,0.4-0.19
		c0.14,0.1,0.08,0.31-0.1,0.54c-0.97,1.27-1.97,2.47-2.39,3.01c-0.34,0.45-1.23,1.73-1.81,2.5c-0.21,0.27-0.37,0.37-0.51,0.26
		c-0.1-0.07-0.1-0.2,0.08-0.43c0.22-0.3,0.36-0.56,0.46-0.77c0.22-0.45-0.14-0.88-0.65-1.39c-0.75-0.73-2.3-1.91-4.1-3.28
		l-1.73-1.32c-0.08-0.06-0.16-0.03-0.21,0.03l-5.72,7.49c-0.04,0.06-0.07,0.13,0.03,0.21l1.73,1.32c1.8,1.38,3.35,2.56,4.27,3.1
		c0.59,0.36,1.12,0.57,1.64,0.04c0.25-0.24,0.62-0.65,0.84-0.94c0.16-0.22,0.3-0.27,0.4-0.19c0.14,0.1,0.08,0.31-0.1,0.54
		c-0.97,1.27-1.97,2.47-2.39,3.01c-0.34,0.45-1.23,1.73-1.83,2.52c-0.19,0.26-0.36,0.35-0.5,0.24c-0.1-0.07-0.1-0.2,0.08-0.43
		c0.22-0.29,0.36-0.56,0.46-0.77c0.22-0.45-0.14-0.88-0.65-1.39c-0.75-0.73-2.3-1.91-4.1-3.28l-3.45-2.63
		c-2.98-2.27-3.53-2.69-4.19-3.13c-0.7-0.47-1.13-0.55-1.76-0.01c-0.16,0.13-0.43,0.45-0.64,0.72c-0.16,0.22-0.29,0.3-0.43,0.2
		c-0.14-0.1-0.07-0.27,0.14-0.55c0.81-1.06,1.81-2.25,2.21-2.78c0.36-0.47,1.24-1.75,1.83-2.52c0.21-0.27,0.35-0.38,0.49-0.28
		c0.14,0.1,0.04,0.31-0.09,0.49c-0.12,0.16-0.29,0.43-0.39,0.6c-0.33,0.59-0.07,1.03,0.58,1.59c0.6,0.52,1.15,0.94,4.13,3.21
		l0.41,0.31c0.1,0.07,0.18,0.05,0.23-0.01L59.51,68.92z"/>
	<path class="st0" d="M69.81,58.23c-2.28-2.97-2.7-3.52-3.22-4.12c-0.55-0.64-1-0.82-1.51-0.59c-0.26,0.11-0.53,0.28-0.76,0.46
		c-0.2,0.15-0.34,0.2-0.46,0.04c-0.09-0.12,0.04-0.28,0.35-0.52c0.74-0.57,2.02-1.46,2.59-1.89c0.49-0.38,1.6-1.32,2.34-1.89
		c0.25-0.2,0.44-0.28,0.53-0.16c0.12,0.16,0.03,0.29-0.16,0.44c-0.2,0.15-0.34,0.29-0.54,0.51c-0.45,0.5-0.35,0.96,0.13,1.67
		c0.44,0.66,0.86,1.2,3.15,4.18l2.64,3.44c1.46,1.9,2.64,3.44,3.37,4.22c0.46,0.48,0.87,0.73,1.52,0.36
		c0.3-0.17,0.76-0.46,1.06-0.69c0.22-0.17,0.36-0.18,0.43-0.08c0.1,0.14-0.01,0.32-0.22,0.48c-1.29,0.99-2.57,1.88-3.1,2.28
		c-0.45,0.35-1.64,1.35-2.42,1.95c-0.25,0.2-0.44,0.24-0.54,0.1c-0.07-0.1-0.04-0.22,0.19-0.4c0.29-0.23,0.5-0.45,0.64-0.62
		c0.33-0.38,0.19-0.8-0.18-1.41c-0.53-0.9-1.72-2.44-3.18-4.34L69.81,58.23z"/>
	<path class="st0" d="M101.53,43.06c-0.88-3.65-1.04-4.32-1.27-5.07c-0.24-0.8-0.53-1.14-1.36-1.12c-0.2,0-0.62,0.07-0.95,0.15
		c-0.26,0.06-0.42,0.05-0.46-0.12s0.12-0.26,0.48-0.34c1.1-0.27,2.22-0.46,3.47-0.76c0.77-0.18,5.54-1.33,5.99-1.47
		c0.44-0.16,0.82-0.3,1-0.39c0.11-0.05,0.24-0.16,0.36-0.19s0.17,0.06,0.2,0.18c0.04,0.17-0.01,0.48,0.18,1.61
		c0.03,0.25,0.24,1.31,0.26,1.61c0.01,0.13-0.01,0.28-0.18,0.32s-0.25-0.09-0.32-0.38c-0.02-0.1-0.14-0.47-0.33-0.73
		c-0.27-0.39-0.58-0.62-1.81-0.48c-0.42,0.05-2.95,0.61-3.43,0.72c-0.12,0.03-0.15,0.11-0.11,0.28l1.46,6.07
		c0.04,0.17,0.09,0.26,0.23,0.22c0.53-0.13,3.29-0.79,3.83-0.97c0.56-0.19,0.91-0.34,1.06-0.64c0.12-0.23,0.19-0.37,0.31-0.4
		c0.1-0.02,0.18,0.01,0.21,0.15c0.03,0.14,0.03,0.55,0.23,1.8c0.09,0.49,0.25,1.46,0.29,1.63c0.05,0.19,0.11,0.46-0.11,0.51
		c-0.17,0.04-0.28-0.21-0.31-0.33c-0.08-0.23-0.12-0.38-0.26-0.67c-0.24-0.45-0.66-0.73-1.57-0.61c-0.47,0.06-2.85,0.61-3.42,0.75
		c-0.12,0.03-0.12,0.13-0.09,0.28l0.46,1.89c0.2,0.82,0.7,3.03,0.89,3.72c0.45,1.64,0.92,1.91,3.36,1.32
		c0.62-0.15,1.63-0.39,2.19-0.83c0.55-0.44,0.72-1.01,0.65-2.03c-0.02-0.28,0.01-0.38,0.18-0.42c0.19-0.05,0.24,0.15,0.29,0.39
		c0.13,0.55,0.33,2.23,0.33,2.74c-0.02,0.66-0.23,0.72-1.15,0.94c-2.13,0.51-4.28,0.88-6.68,1.45c-0.96,0.23-1.93,0.54-3,0.8
		c-0.31,0.07-0.5,0.04-0.54-0.12c-0.03-0.12,0.05-0.21,0.34-0.28c0.36-0.09,0.64-0.2,0.84-0.3c0.46-0.21,0.45-0.77,0.38-1.49
		c-0.12-1.04-0.58-2.93-1.11-5.14L101.53,43.06z"/>
	<path class="st0" d="M133.38,46.2c-0.57,3.11-0.88,4.78-0.45,5.31c0.35,0.44,0.95,0.73,2.84,1.07c1.29,0.24,2.24,0.39,2.96-0.16
		c0.35-0.26,0.77-0.89,0.9-1.34c0.06-0.21,0.14-0.35,0.33-0.31c0.17,0.03,0.17,0.16,0.12,0.45c-0.05,0.27-0.55,2.05-0.88,2.72
		c-0.24,0.51-0.39,0.61-1.65,0.37c-2.23-0.41-4.44-0.97-7.03-1.44c-0.97-0.18-1.98-0.29-3.07-0.49c-0.32-0.06-0.47-0.16-0.44-0.33
		c0.02-0.12,0.13-0.18,0.42-0.12c0.36,0.07,0.66,0.07,0.89,0.06c0.5-0.01,0.72-0.52,0.95-1.21c0.31-1,0.66-2.91,1.07-5.14l0.79-4.27
		c0.68-3.69,0.8-4.37,0.9-5.15c0.1-0.83-0.02-1.26-0.79-1.57c-0.18-0.08-0.47-0.16-0.79-0.22c-0.27-0.05-0.4-0.12-0.37-0.29
		c0.03-0.17,0.21-0.19,0.57-0.12c1.14,0.21,2.66,0.56,3.31,0.68c0.58,0.11,2.37,0.36,3.31,0.53c0.34,0.06,0.5,0.14,0.47,0.31
		c-0.03,0.17-0.19,0.19-0.48,0.14c-0.27-0.05-0.66-0.1-0.96-0.1c-0.68,0-0.95,0.38-1.15,1.22c-0.19,0.77-0.32,1.45-0.99,5.13
		L133.38,46.2z"/>
	<path class="st0" d="M150.88,52.91c-0.11-0.06-0.18-0.04-0.29,0.07l-2.85,2.47c-0.51,0.42-0.9,0.89-1.04,1.15
		c-0.21,0.39-0.17,0.78,0.5,1.14c0.11,0.06,0.24,0.13,0.33,0.18c0.26,0.14,0.3,0.22,0.23,0.35c-0.09,0.17-0.25,0.15-0.49,0.02
		c-0.69-0.38-1.59-0.95-2.27-1.31c-0.24-0.13-1.47-0.71-2.6-1.32c-0.28-0.15-0.39-0.27-0.3-0.44c0.07-0.13,0.22-0.1,0.4-0.01
		c0.19,0.1,0.47,0.22,0.65,0.3c1.07,0.41,1.88-0.11,2.9-0.95l12.82-10.68c0.6-0.49,0.88-0.64,1.08-0.54
		c0.17,0.09,0.22,0.37,0.17,0.99c-0.12,1.48-1.44,12.21-1.83,16.25c-0.23,2.4,0.23,3.04,0.63,3.4c0.29,0.24,0.6,0.44,0.86,0.58
		c0.17,0.09,0.26,0.2,0.19,0.33c-0.09,0.17-0.31,0.11-1.12-0.32c-0.78-0.42-2.52-1.36-4.23-2.34c-0.38-0.23-0.48-0.31-0.41-0.44
		c0.06-0.11,0.18-0.13,0.41-0.03c0.18,0.04,0.43-0.08,0.47-0.39l0.75-5.54c0.02-0.13-0.03-0.21-0.13-0.27L150.88,52.91z
		 M155.91,54.02c0.11,0.05,0.17,0,0.18-0.08l0.66-6.45c0.03-0.23-0.03-0.34-0.24-0.12l-4.69,4.47c-0.07,0.08-0.08,0.16,0.01,0.2
		L155.91,54.02z"/>
	<path class="st0" d="M170.18,51.36c0.41-0.86,0.63-1.48,0.55-1.9c-0.08-0.31-0.4-0.69-0.56-0.84c-0.18-0.17-0.27-0.29-0.13-0.43
		c0.12-0.13,0.3-0.03,0.55,0.21c0.93,0.88,1.86,1.87,2.02,2.03c0.16,0.15,1,0.85,2.03,1.83c0.25,0.24,0.32,0.41,0.22,0.52
		c-0.14,0.14-0.3,0.02-0.47-0.15c-0.14-0.14-0.32-0.31-0.51-0.35c-0.23-0.08-0.38,0.01-0.57,0.21c-0.22,0.23-0.62,1.01-1.17,2.02
		c-0.82,1.47-4.31,8.46-4.99,9.86l12.43-6.05c0.66-0.33,0.92-0.35,1.06-0.22c0.2,0.19,0.03,0.54-0.28,1.33l-4.87,12.63
		c1.55-0.94,7.47-4.3,10.08-5.8c0.52-0.29,0.93-0.62,1.17-0.87c0.27-0.29,0.35-0.69-0.35-1.35c-0.18-0.17-0.25-0.34-0.15-0.45
		c0.12-0.13,0.3-0.02,0.56,0.23c0.95,0.9,1.65,1.67,1.81,1.82c0.12,0.12,0.94,0.8,1.53,1.36c0.2,0.19,0.29,0.34,0.19,0.45
		c-0.12,0.12-0.26,0.09-0.42-0.06c-0.18-0.17-0.45-0.39-0.71-0.51c-0.58-0.25-1.46,0.28-2.8,0.94c-2.96,1.47-10.25,5.36-13.67,7.21
		c-0.79,0.44-1.09,0.57-1.32,0.35c-0.18-0.17-0.08-0.49,0.28-1.4l4.84-12.56c-1.28,0.63-9.67,4.69-12,5.6
		c-1.04,0.41-1.33,0.54-1.54,0.33c-0.18-0.17-0.06-0.43,0.22-1.05L170.18,51.36z"/>
	<path class="st0" d="M192.32,85.21c3.46-1.44,4.1-1.71,4.81-2.06c0.76-0.37,1.04-0.7,0.89-1.52c-0.03-0.2-0.17-0.6-0.3-0.92
		c-0.09-0.23-0.12-0.41,0.02-0.46c0.18-0.08,0.3,0.09,0.45,0.43c0.44,1.05,0.81,2.12,1.3,3.31c0.36,0.87,2.29,5.49,2.53,6
		c0.2,0.42,0.32,0.7,0.48,0.9c0.1,0.12,0.24,0.19,0.29,0.31c0.04,0.09-0.02,0.2-0.14,0.24c-0.16,0.07-0.48,0.07-1.1,0.25
		c-0.24,0.07-1.6,0.59-1.89,0.66c-0.19,0.05-0.35,0.06-0.41-0.09c-0.07-0.16,0.03-0.25,0.27-0.38c0.18-0.08,0.55-0.23,0.81-0.5
		c0.25-0.29,0.39-0.91,0.06-1.79c-0.31-0.81-1.13-2.84-1.4-3.54c-0.06-0.14-0.15-0.18-0.4-0.07l-5.69,2.38
		c-0.14,0.06-0.2,0.11-0.14,0.24c0.26,0.61,0.9,2.09,1.24,2.91c0.55,1.32,0.7,1.68,1.27,1.82c0.18,0.06,0.29,0.06,0.35,0.2
		c0.04,0.09-0.01,0.17-0.15,0.22c-0.14,0.06-0.75,0.18-1.49,0.41c-0.47,0.14-1.54,0.54-1.7,0.6c-0.21,0.09-0.43,0.18-0.53-0.05
		c-0.06-0.14,0.08-0.25,0.24-0.31c0.16-0.07,0.41-0.23,0.65-0.43c0.27-0.25,0.54-0.76,0.34-1.5c-0.17-0.6-1.18-3.01-1.34-3.4
		c-0.05-0.11-0.11-0.14-0.27-0.07l-1.84,0.77c-2.19,0.91-3.89,1.62-4.8,2.14c-0.63,0.34-1.08,0.69-0.88,1.41
		c0.09,0.34,0.25,0.86,0.38,1.18c0.12,0.3,0.09,0.42-0.02,0.46c-0.16,0.07-0.29-0.06-0.44-0.41c-0.6-1.43-1.13-2.9-1.38-3.49
		s-0.91-2-1.27-2.86c-0.13-0.32-0.15-0.5,0.03-0.57c0.11-0.05,0.22,0.01,0.33,0.27c0.14,0.34,0.3,0.6,0.43,0.78
		c0.28,0.42,0.83,0.32,1.53,0.14c1-0.29,2.71-1,4.9-1.91L192.32,85.21z"/>
	<path class="st0" d="M197.99,102.03c3.68-0.74,4.35-0.88,5.12-1.08c0.81-0.21,1.18-0.54,1.19-1.09c0.02-0.28-0.02-0.6-0.08-0.89
		c-0.05-0.24-0.03-0.4,0.16-0.44c0.15-0.03,0.23,0.15,0.31,0.54c0.19,0.92,0.42,2.46,0.56,3.16c0.12,0.6,0.48,2.02,0.67,2.94
		c0.06,0.31,0.05,0.52-0.09,0.55c-0.19,0.04-0.27-0.1-0.32-0.34s-0.11-0.43-0.22-0.71c-0.25-0.63-0.7-0.74-1.56-0.62
		c-0.78,0.11-1.46,0.24-5.14,0.98l-4.25,0.86c-2.35,0.47-4.26,0.86-5.28,1.16c-0.64,0.2-1.04,0.46-0.99,1.21
		c0.02,0.35,0.08,0.89,0.15,1.25c0.05,0.27,0.01,0.4-0.12,0.43c-0.17,0.03-0.28-0.14-0.33-0.41c-0.32-1.6-0.56-3.13-0.69-3.79
		c-0.11-0.56-0.49-2.06-0.69-3.03c-0.06-0.31-0.03-0.5,0.14-0.53c0.12-0.02,0.21,0.06,0.27,0.35c0.07,0.36,0.18,0.64,0.27,0.85
		c0.19,0.46,0.63,0.53,1.35,0.46c1.04-0.08,2.95-0.47,5.29-0.94L197.99,102.03z"/>
	<path class="st0" d="M182.44,155.13c-1.52-0.37-2.28-0.41-2.76,0.19c-0.47,0.58-0.68,1.03-0.8,1.33c-0.08,0.21-0.17,0.36-0.31,0.3
		c-0.18-0.07-0.14-0.38-0.01-0.7c0.23-0.57,1.57-3.7,2-4.59c0.26-0.51,0.38-0.62,0.52-0.56c0.11,0.05,0.15,0.17,0.15,0.35
		c-0.01,0.16,0.26,0.34,0.94,0.51l10.77,2.7l-8.5-9.29c-0.86-0.96-1.02-1.16-0.94-1.36c0.08-0.21,0.63-0.25,1.47-0.34
		c1.27-0.13,5.5-0.53,6.25-0.55c0.56-0.01,4.19-0.23,6.23-0.35l-8.78-4.93c-0.39-0.21-0.68-0.35-1.05-0.5
		c-0.43-0.17-0.76,0.04-1.01,0.39c-0.26,0.38-0.41,0.69-0.5,0.92c-0.07,0.18-0.18,0.33-0.3,0.28c-0.21-0.08-0.17-0.31-0.03-0.65
		c0.39-0.96,0.87-1.96,1.03-2.38c0.18-0.43,0.55-1.56,0.84-2.29c0.09-0.23,0.21-0.39,0.42-0.31c0.11,0.05,0.1,0.2,0.01,0.43
		c-0.07,0.18-0.14,0.34-0.21,0.71c-0.12,0.7,0.7,1.24,1.43,1.66l14.01,8.26c0.36,0.22,0.51,0.44,0.44,0.63
		c-0.07,0.18-0.24,0.27-0.96,0.33l-15.42,1.06l10.57,11.47c0.29,0.33,0.43,0.52,0.35,0.72c-0.08,0.21-0.37,0.25-0.88,0.13
		L182.44,155.13z"/>
</g>
<path class="st0" d="M199.84,115.77c3.75,0.04,4.44,0.05,5.23,0.01c0.84-0.04,1.24-0.23,1.42-1.04c0.05-0.2,0.08-0.62,0.08-0.96
	c0-0.27,0.05-0.42,0.23-0.42c0.17,0,0.22,0.18,0.22,0.55c-0.02,1.31-0.11,2.86-0.11,3.38c-0.01,0.84,0.04,2.71,0.03,3.48
	c-0.02,1.55-0.18,3.2-1.11,4.53c-0.48,0.69-1.74,1.66-3.4,1.64c-1.82-0.02-3.47-0.78-5.46-3.29c-2.79,2.16-6.4,4.15-6.25,4.06
	c0.16-0.09-1.76,1.13-2.02,1.88c-0.09,0.26-0.14,0.5-0.14,0.7c0,0-0.06,0.31-0.26,0.29c-0.2,0-0.19-0.18-0.18-0.47l0.05-1.53
	c0.16-1.45,0.39-2.14,0.86-2.7c0.6-0.72,1.2-0.87,3.12-2.23c1.37-0.97,3.28-1.97,3.65-2.29c0.15-0.12,0.18-0.27,0.18-0.44l0.07-2.07
	c0-0.12-0.05-0.2-0.19-0.2h-0.35c-2.29-0.03-4.24-0.05-5.28,0.06c-0.72,0.07-1.26,0.21-1.37,0.95c-0.05,0.37-0.11,0.91-0.11,1.21
	c0,0.2-0.08,0.29-0.2,0.29c-0.17,0-0.24-0.18-0.24-0.5c0.02-1.43,0.11-3.25,0.12-3.62c0-0.47-0.05-2.02-0.04-3.01
	c0-0.32,0.08-0.49,0.25-0.49c0.12,0,0.2,0.1,0.19,0.4c0,0.37,0.04,0.67,0.09,0.89c0.09,0.49,0.63,0.62,1.35,0.73
	c1.03,0.13,2.98,0.16,5.25,0.18L199.84,115.77z M197.92,118.7c-0.27-0.01-0.37,0.04-0.45,0.21c-0.19,0.51-0.29,1.25-0.31,1.87
	c-0.03,0.99,0.06,1.31,0.36,1.76c0.52,0.76,1.63,1.51,3.65,1.57c3.5,0.11,4.58-2.17,4.63-3.63c0.02-0.62,0.01-1.06-0.06-1.31
	c-0.04-0.17-0.14-0.23-0.34-0.23L197.92,118.7z"/>
<path class="st0" d="M80.56,51.44c-1.59-3.39-1.89-4.02-2.27-4.71c-0.4-0.74-0.75-1.01-1.56-0.82c-0.2,0.04-0.59,0.2-0.9,0.34
	c-0.25,0.12-0.4,0.13-0.47-0.02c-0.07-0.16,0.06-0.27,0.4-0.43c1.18-0.55,2.62-1.15,3.09-1.37c0.76-0.36,2.42-1.22,3.12-1.54
	c1.41-0.66,2.97-1.23,4.56-0.97c0.82,0.13,2.25,0.85,2.95,2.35c0.77,1.65,0.81,3.46-0.59,6.35c3.16,1.57,6.52,3.96,6.37,3.86
	c-0.15-0.1,1.79,1.1,2.58,1c0.27-0.03,0.51-0.09,0.69-0.18c0,0,0.3-0.08,0.38,0.11c0.08,0.18-0.07,0.27-0.34,0.39l-1.4,0.6
	c-1.37,0.48-2.09,0.58-2.8,0.4c-0.91-0.23-1.31-0.7-3.37-1.84c-1.47-0.81-3.2-2.09-3.65-2.29c-0.17-0.08-0.32-0.04-0.47,0.03
	l-1.9,0.84c-0.11,0.05-0.16,0.13-0.09,0.26l0.15,0.31c0.97,2.08,1.8,3.84,2.35,4.73c0.37,0.62,0.73,1.04,1.45,0.82
	c0.36-0.11,0.87-0.3,1.14-0.42c0.18-0.08,0.3-0.06,0.35,0.05c0.07,0.16-0.05,0.3-0.34,0.43c-1.29,0.61-2.98,1.32-3.31,1.47
	c-0.42,0.2-1.8,0.93-2.69,1.35c-0.29,0.14-0.48,0.14-0.55-0.01c-0.05-0.11,0.01-0.22,0.27-0.35c0.33-0.16,0.58-0.33,0.76-0.47
	c0.4-0.3,0.29-0.84,0.07-1.53c-0.33-0.99-1.16-2.75-2.12-4.81L80.56,51.44z M84.03,51.9c0.11,0.25,0.2,0.32,0.38,0.32
	c0.54-0.05,1.25-0.28,1.81-0.54c0.9-0.4,1.15-0.62,1.43-1.09c0.46-0.8,0.65-2.12-0.17-3.97c-1.42-3.2-3.95-3.18-5.28-2.59
	c-0.56,0.25-0.96,0.45-1.15,0.62c-0.14,0.11-0.14,0.22-0.06,0.41L84.03,51.9z"/>
<g>
	<path class="st0" d="M98.26,193.22c0.83-3.65,0.99-4.33,1.12-5.11c0.14-0.83,0.03-1.26-0.72-1.61c-0.18-0.09-0.59-0.21-0.92-0.29
		c-0.26-0.06-0.4-0.14-0.36-0.31s0.22-0.18,0.58-0.09c1.27,0.29,2.77,0.71,3.45,0.86c0.99,0.23,2.4,0.47,3.5,0.72
		c3.01,0.69,3.76,1.82,4.19,2.48c0.41,0.65,0.81,1.75,0.43,3.41c-0.68,2.96-3.75,4.89-7.16,4.11c-0.12-0.03-0.38-0.09-0.5-0.14
		s-0.28-0.11-0.24-0.28c0.04-0.19,0.23-0.23,0.73-0.11c1.35,0.31,3.57-0.8,4.13-3.26c0.18-0.79,0.54-2.38-0.53-3.89
		c-0.69-0.99-1.71-1.38-2.26-1.5c-0.36-0.08-0.73-0.14-0.96-0.12c-0.13,0.02-0.24,0.15-0.3,0.41l-2.2,9.62
		c-0.51,2.21-0.94,4.11-1.06,5.17c-0.08,0.69-0.06,1.25,0.64,1.51c0.33,0.13,0.84,0.29,1.2,0.38c0.26,0.06,0.37,0.16,0.34,0.28
		c-0.04,0.17-0.25,0.2-0.51,0.14c-1.59-0.36-3.08-0.78-3.71-0.92c-0.55-0.13-2.08-0.4-3.05-0.62c-0.31-0.07-0.46-0.18-0.43-0.35
		c0.03-0.12,0.14-0.17,0.43-0.1c0.36,0.08,0.66,0.1,0.89,0.1c0.5,0.01,0.74-0.49,1-1.16c0.35-0.98,0.79-2.88,1.29-5.09L98.26,193.22
		z"/>
	<path class="st0" d="M119.09,200.18c0.05,3.16,0.08,4.86,0.61,5.29c0.43,0.36,1.07,0.52,2.99,0.49c1.31-0.02,2.27-0.06,2.87-0.74
		c0.29-0.33,0.57-1.02,0.61-1.49c0.02-0.22,0.07-0.37,0.27-0.37c0.17,0,0.2,0.12,0.2,0.42c0,0.27-0.14,2.12-0.32,2.84
		c-0.14,0.55-0.26,0.67-1.54,0.69c-2.27,0.04-4.54-0.07-7.18-0.03c-0.99,0.02-2,0.11-3.11,0.13c-0.32,0.01-0.5-0.07-0.5-0.24
		c0-0.12,0.1-0.2,0.39-0.2c0.37-0.01,0.66-0.06,0.89-0.11c0.49-0.11,0.61-0.65,0.69-1.37c0.11-1.04,0.07-2.99,0.03-5.25l-0.07-4.34
		c-0.06-3.75-0.08-4.44-0.14-5.23c-0.06-0.84-0.27-1.23-1.08-1.39c-0.2-0.05-0.5-0.07-0.82-0.06c-0.27,0-0.42-0.04-0.42-0.21
		c0-0.17,0.17-0.22,0.54-0.23c1.16-0.02,2.71,0.03,3.38,0.02c0.59-0.01,2.39-0.11,3.35-0.13c0.35-0.01,0.52,0.04,0.52,0.21
		c0,0.17-0.14,0.22-0.44,0.23c-0.27,0-0.67,0.04-0.96,0.09c-0.66,0.13-0.85,0.56-0.89,1.42c-0.04,0.79-0.02,1.48,0.04,5.23
		L119.09,200.18z"/>
	<path class="st0" d="M134.83,203.98c-2.81-1.56-4.02-4.13-4.53-6.46c-0.35-1.64-0.46-4.59,1.39-7.22c1.39-1.97,3.47-3.43,7.06-4.2
		c1.49-0.32,2.41-0.42,3.55-0.52c0.94-0.08,1.83-0.04,2.57-0.13c0.27-0.03,0.32,0.08,0.35,0.23c0.04,0.19,0.03,0.5,0.17,1.35
		c0.12,0.81,0.43,2.13,0.49,2.62c0.05,0.37,0.05,0.59-0.16,0.64c-0.19,0.04-0.29-0.16-0.36-0.5c-0.19-0.74-0.68-1.52-1.42-2.01
		c-0.98-0.67-3-0.91-5.22-0.43c-2.1,0.45-3.36,1.28-4.21,2.48c-1.41,2-1.37,4.39-0.87,6.72c1.24,5.74,6.22,7.64,9.45,6.94
		c2.15-0.46,3.4-0.99,4.12-2.31c0.31-0.55,0.47-1.31,0.47-1.77c-0.01-0.4,0.02-0.51,0.21-0.55c0.17-0.04,0.25,0.12,0.3,0.31
		c0.06,0.29,0.23,2.45,0.16,3.32c-0.03,0.44-0.1,0.58-0.47,0.84c-0.88,0.59-2.68,1.16-4.22,1.49
		C140.37,205.53,137.44,205.41,134.83,203.98z"/>
</g>
<path class="st0" d="M120.68,63.03c-17.91,0-33.93,8.07-44.65,20.76c2.35,0.04,4.63,0.15,5.2,0.15c1.09,0,4.32-0.14,6.78-0.14
	c0.64,0,0.96,0.14,0.96,0.47c0,0.33-0.32,0.47-0.73,0.47c-0.46,0.05-0.64,0.05-1.14,0.19c-0.55,0.09-0.82,0.47-0.82,1.03
	c0,0.61,0.45,2.06,1.09,4.22c0.5,1.69,3.91,12.62,5.41,16.65l8.05-21.25c0.45-1.22,0.82-1.69,1.27-1.69c0.59,0,0.87,0.84,1.55,2.2
	l9.1,20.78c1.32-3.94,3.69-11.92,4.96-16.56c0.55-1.93,0.91-3.33,0.91-3.99c0-0.98-0.37-1.36-2.78-1.59c-0.41,0-0.77-0.19-0.77-0.42
	c0-0.29,0.1-0.52,0.96-0.52c2.91,0,5.23,0.14,5.64,0.14c0.32,0,3.55-0.09,5.14-0.09c0.55,0,0.91,0.05,0.91,0.42
	c0,0.28-0.18,0.47-0.73,0.47c-0.46,0.04-0.78,0.04-1.46,0.23c-1.32,0.28-2.01,1.64-3.19,4.97c-1.45,4.15-4.22,12.2-6.91,19.72
	l-0.13,0.36c0.4-0.05,0.8-0.11,0.8-0.11c0.2-0.03,0.45-0.04,0.76-0.04c2.59,0,4.96,0.14,6.73,0.14c0.41,0,6.05-0.14,7.69-0.14
	c0.82,0,1.09,0.14,1.09,0.42c0,0.43-0.45,0.52-1.09,0.52c-0.46,0.05-0.91,0.05-1.55,0.19c-1.23,0.24-1.55,1.13-1.64,2.77
	c-0.09,1.5-0.14,2.44-0.14,10.18v7.83c0,4.74-0.13,8.12,0.64,9.1c0.64,0.9,1.5,1.13,5.28,1.13c2.5,0,3.96-0.05,5.23-0.75
	c1.1-0.52,1.87-1.73,2.37-3.94c0.13-0.52,0.23-0.89,0.59-0.89c0.31,0,0.36,0.23,0.36,0.89c0,1.08-0.51,5.54-0.96,6.9
	c-0.37,1.22-0.73,1.27-2.55,1.27c-6.28,0-10.51-0.28-15.33-0.28c-2.14,0-4.6,0.14-7.1,0.14c-0.63,0-1-0.1-1-0.52
	c0-0.28,0.27-0.42,0.91-0.42c0.55-0.05,1.05-0.1,1.55-0.19c1.64-0.28,1.68-1.13,1.82-4.88c0.02-0.48,0.04-1.02,0.06-1.6
	c0.05-1.71,0.08-3.83,0.1-6.01v-8.25c0-7.64-0.05-8.49-0.14-9.99c-0.09-1.31-0.41-2.11-1.55-2.44c-0.41-0.14-1.09-0.18-1.77-0.23
	c-0.26,0-0.49-0.02-0.67-0.09l-0.64-0.26l-0.1,0.27c-0.8,2.21-1.58,4.36-2.31,6.32c-0.55,1.55-1.05,2.86-1.82,2.86
	c-0.59,0-0.95-0.7-1.68-2.34l-9.1-20.12c-1.87,4.78-5.92,14.77-8.19,19.79c-0.73,1.68-1.27,2.67-2,2.67c-0.59,0-0.91-0.71-1.73-2.91
	l-10.1-28.61c-0.87-2.39-1.49-3.4-3-3.49c-8.04,10.01-12.87,22.72-12.87,36.56c0,32.26,26.16,58.42,58.42,58.42
	c13.46,0,25.85-4.56,35.73-12.21c-1.58-0.04-2.56-0.13-6.43-0.13c-3.23,0-5.91,0.14-7.05,0.14c-0.68,0-0.95-0.19-0.95-0.47
	c0-0.23,0.14-0.42,0.82-0.47c0.45-0.05,0.68-0.1,1.18-0.19c1.23-0.19,1.45-1.41,1.59-3.33c0.18-2.54,0.18-4.65,0.18-9.15v-8.25
	c0-7.65-0.05-8.21-0.14-9.71c-0.09-1.69-0.46-2.49-1.73-2.77c-0.46-0.1-1.05-0.14-1.55-0.19c-0.5,0-0.91-0.09-0.91-0.47
	s0.32-0.47,1.05-0.47c2.64,0,4.96,0.14,6.96,0.14c1,0,12.61-0.05,13.38-0.05c0.91,0,1.73-0.09,2.32-0.23
	c0.32-0.09,0.64-0.14,0.87-0.14c0.18,0,0.32,0.19,0.27,0.42c-0.05,0.32-0.23,1.26-0.32,2.39c-0.09,1.07-0.23,2.62-0.32,4.5
	c-0.04,0.61-0.18,0.8-0.5,0.8c-0.31,0-0.41-0.28-0.45-0.75c-0.04-0.56-0.04-0.79-0.18-1.45c-0.27-1.03-0.95-1.78-3-1.92
	c-1.69-0.14-5.87-0.23-7.33-0.23c-0.27,0-0.36,0.13-0.36,0.51v10.66c0,0.33,0.04,0.56,0.36,0.56c1.32,0.04,4.51,0,6.28-0.05
	c2.51-0.09,3.1-0.14,3.69-1.08c0.28-0.42,0.41-0.61,0.64-0.61c0.27,0,0.32,0.33,0.32,0.61c0,0.47-0.27,2.16-0.36,3.8
	c-0.04,1.03-0.09,3.42-0.09,3.94c0,0.52-0.05,0.94-0.41,0.94c-0.28,0-0.46-0.29-0.46-0.8c-0.05-0.33-0.09-0.65-0.14-1.03
	c-0.18-1.27-0.82-2.11-3-2.3c-1.32-0.09-5.23-0.14-6.55-0.14c-0.22,0-0.27,0.19-0.27,0.61v3.24c0,4.5,0,7.46,0.23,9.43
	c0.13,1.36,0.41,2.3,2.09,2.58c0.59,0.09,1.03,0.13,1.45,0.18c13.12-10.71,21.51-27.01,21.51-45.27
	C179.1,89.19,152.95,63.03,120.68,63.03z"/>
</svg>
