<?xml version="1.0" encoding="utf-8"?>
<!-- Generator: Adobe Illustrator 24.0.0, SVG Export Plug-In . SVG Version: 6.00 Build 0)  -->
<svg version="1.1" id="Layer_1" xmlns="http://www.w3.org/2000/svg" xmlns:xlink="http://www.w3.org/1999/xlink" x="0px" y="0px"
	 viewBox="0 0 1958.35 239.43" style="enable-background:new 0 0 1958.35 239.43;" xml:space="preserve">
<style type="text/css">
	.st0{fill:#FFFFFF;}
	.st1{fill-rule:evenodd;clip-rule:evenodd;fill:#FFFFFF;}
</style>
<g>
	<path class="st0" d="M238.25,109.53l-8.71-12.39c-1.77-3.16-2.73-6.72-2.77-10.35l0.98-14.69c0.54-9.71-3.66-15.26-10.16-19.12
		l-14.09-7.93c-3.12-1.85-5.72-4.46-7.57-7.57l-7.04-13.53c-3.86-6.5-10.83-10.52-18.39-10.62l-15.78,0.36
		c-3.63-0.04-7.18-1-10.35-2.77L131.2,2.77c-6.59-3.7-14.64-3.7-21.23,0l-13.19,8.14c-3.16,1.77-6.72,2.73-10.35,2.77L70,13.2
		c-7.56,0.09-14.53,4.12-18.39,10.62l-6.38,13.67c-1.85,3.12-4.46,5.72-7.57,7.57l-14.17,7.2c-6.5,3.86-9.92,10.88-10.01,18.44
		l0.39,16.19c-0.04,3.63-1,7.18-2.77,10.35L2.77,110.7c-3.7,6.59-3.7,14.64,0,21.23L11.78,144c1.77,3.16,2.73,6.72,2.77,10.35
		l-0.66,15.99c0.09,7.56,4.12,14.53,10.62,18.39l14.4,6.98c3.12,1.85,5.72,4.46,7.57,7.57l6.5,13.06
		c3.86,6.5,10.83,10.52,18.39,10.62l16.08-1.25c3.63,0.04,7.18,1,10.35,2.77l12.18,8.18c6.59,3.7,14.64,3.7,21.23,0l11.94-7.88
		c3.16-1.77,6.72-2.73,10.35-2.77l16.42,0.71c7.56-0.09,14.53-4.12,18.39-10.62l7.29-14.21c1.85-3.12,4.46-5.72,7.57-7.57
		l13.32-5.66c6.5-3.86,10.52-10.83,10.62-18.39l-0.56-16.37c0.05-3.63,1-7.18,2.77-10.35l8.94-12.79
		C242.21,124.12,240.8,113.7,238.25,109.53z M120.68,224.63c-58.06,0-105.12-47.06-105.12-105.12S62.63,14.39,120.68,14.39
		S225.8,61.45,225.8,119.51S178.74,224.63,120.68,224.63z"/>
</g>
<g>
	<g>
		<path class="st1" d="M119.6,137.85c-0.02,0.58-0.04,1.12-0.06,1.6c-0.14,3.75-0.18,4.6-1.82,4.88c-0.5,0.09-1,0.14-1.55,0.19
			c-0.64,0-0.91,0.14-0.91,0.42c0,0.42,0.37,0.52,1,0.52c2.5,0,4.96-0.14,7.1-0.14c4.82,0,9.05,0.28,15.33,0.28
			c1.82,0,2.18-0.05,2.55-1.27c0.45-1.36,0.96-5.82,0.96-6.9c0-0.66-0.05-0.89-0.36-0.89c-0.36,0-0.46,0.37-0.59,0.89
			c-0.5,2.21-1.27,3.42-2.37,3.94c-1.27,0.7-2.73,0.75-5.23,0.75c-3.78,0-4.64-0.23-5.28-1.13c-0.77-0.98-0.64-4.36-0.64-9.1v-7.83
			c0-7.74,0.05-8.68,0.14-10.18c0.09-1.64,0.41-2.53,1.64-2.77c0.64-0.14,1.09-0.14,1.55-0.19c0.64,0,1.09-0.09,1.09-0.52
			c0-0.28-0.27-0.42-1.09-0.42c-1.64,0-7.28,0.14-7.69,0.14c-1.77,0-4.14-0.14-6.73-0.14c-0.31,0-0.56,0.01-0.76,0.04
			c0,0-0.4,0.06-0.8,0.11l0.13-0.36c2.69-7.52,5.46-15.57,6.91-19.72c1.18-3.33,1.87-4.69,3.19-4.97c0.68-0.19,1-0.19,1.46-0.23
			c0.55,0,0.73-0.19,0.73-0.47c0-0.37-0.36-0.42-0.91-0.42c-1.59,0-4.82,0.09-5.14,0.09c-0.41,0-2.73-0.14-5.64-0.14
			c-0.86,0-0.96,0.23-0.96,0.52c0,0.23,0.36,0.42,0.77,0.42c2.41,0.23,2.78,0.61,2.78,1.59c0,0.66-0.36,2.06-0.91,3.99
			c-1.27,4.64-3.64,12.62-4.96,16.56l-9.1-20.78c-0.68-1.36-0.96-2.2-1.55-2.2c-0.45,0-0.82,0.47-1.27,1.69l-8.05,21.25
			c-1.5-4.03-4.91-14.96-5.41-16.65c-0.64-2.16-1.09-3.61-1.09-4.22c0-0.56,0.27-0.94,0.82-1.03c0.5-0.14,0.68-0.14,1.14-0.19
			c0.41,0,0.73-0.14,0.73-0.47c0-0.33-0.32-0.47-0.96-0.47c-2.46,0-5.69,0.14-6.78,0.14c-0.57,0-2.8-0.1-5.16-0.14
			c10.72-12.76,26.79-20.88,44.76-20.88c32.26,0,58.42,26.15,58.42,58.42c0,18.32-8.44,34.68-21.64,45.39
			c-0.43-0.05-0.87-0.09-1.47-0.18c-1.68-0.28-1.96-1.22-2.09-2.58c-0.23-1.97-0.23-4.93-0.23-9.43v-3.24
			c0-0.42,0.05-0.61,0.27-0.61c1.32,0,5.23,0.05,6.55,0.14c2.18,0.19,2.82,1.03,3,2.3c0.05,0.38,0.09,0.7,0.14,1.03
			c0,0.51,0.18,0.8,0.46,0.8c0.36,0,0.41-0.42,0.41-0.94c0-0.52,0.05-2.91,0.09-3.94c0.09-1.64,0.36-3.33,0.36-3.8
			c0-0.28-0.05-0.61-0.32-0.61c-0.23,0-0.36,0.19-0.64,0.61c-0.59,0.94-1.18,0.99-3.69,1.08c-1.77,0.05-4.96,0.09-6.28,0.05
			c-0.32,0-0.36-0.23-0.36-0.56v-10.65c0-0.38,0.09-0.51,0.36-0.51c1.46,0,5.64,0.09,7.33,0.23c2.05,0.14,2.73,0.89,3,1.92
			c0.14,0.66,0.14,0.89,0.18,1.45c0.04,0.47,0.14,0.75,0.45,0.75c0.32,0,0.46-0.19,0.5-0.8c0.09-1.88,0.23-3.43,0.32-4.5
			c0.09-1.13,0.27-2.07,0.32-2.39c0.05-0.23-0.09-0.42-0.27-0.42c-0.23,0-0.55,0.05-0.87,0.14c-0.59,0.14-1.41,0.23-2.32,0.23
			c-0.77,0-12.38,0.05-13.38,0.05c-2,0-4.32-0.14-6.96-0.14c-0.73,0-1.05,0.09-1.05,0.47c0,0.38,0.41,0.47,0.91,0.47
			c0.5,0.05,1.09,0.09,1.55,0.19c1.27,0.28,1.64,1.08,1.73,2.77c0.09,1.5,0.14,2.06,0.14,9.71v8.25c0,4.5,0,6.61-0.18,9.15
			c-0.14,1.92-0.36,3.14-1.59,3.33c-0.5,0.09-0.73,0.14-1.18,0.19c-0.68,0.05-0.82,0.24-0.82,0.47c0,0.28,0.27,0.47,0.95,0.47
			c1.14,0,3.82-0.14,7.05-0.14c3.88,0,4.85,0.09,6.44,0.13c-9.86,7.59-22.2,12.1-35.6,12.1c-32.26,0-58.42-26.15-58.42-58.42
			c0-13.78,4.77-26.45,12.75-36.44c1.55,0.07,2.09,1.07,2.97,3.49l10.1,28.61c0.82,2.2,1.14,2.91,1.73,2.91c0.73,0,1.27-0.99,2-2.67
			c2.27-5.02,6.32-15.01,8.19-19.79l9.1,20.12c0.73,1.64,1.09,2.34,1.68,2.34c0.77,0,1.27-1.31,1.82-2.86
			c0.73-1.96,1.51-4.11,2.31-6.32l0.1-0.27l0.64,0.26c0.18,0.07,0.41,0.09,0.67,0.09c0.68,0.05,1.36,0.09,1.77,0.23
			c1.14,0.33,1.46,1.13,1.55,2.44c0.09,1.5,0.14,2.35,0.14,9.99v8.25C119.68,134.01,119.65,136.13,119.6,137.85"/>
	</g>
</g>
<path class="st1" d="M120.58,60.61c33.52,0,60.7,27.18,60.7,60.7c0,33.52-27.18,60.7-60.7,60.7c-33.52,0-60.7-27.18-60.7-60.7
	C59.88,87.79,87.05,60.61,120.58,60.61 M120.58,57.53c35.22,0,63.78,28.56,63.78,63.78c0,35.22-28.56,63.78-63.78,63.78
	c-35.23,0-63.78-28.56-63.78-63.78C56.8,86.09,85.35,57.53,120.58,57.53"/>
<path class="st0" d="M120.68,27.63c50.75,0,91.88,41.14,91.88,91.88s-41.14,91.88-91.88,91.88S28.8,170.26,28.8,119.51
	S69.94,27.63,120.68,27.63 M120.68,19.63c-55.08,0-99.88,44.81-99.88,99.88s44.81,99.88,99.88,99.88s99.88-44.81,99.88-99.88
	S175.76,19.63,120.68,19.63L120.68,19.63z"/>
<g>
	<path class="st0" d="M44.58,157.14c-0.77,0.58-1.24,1.03-1.36,1.43c-0.07,0.31,0.04,0.79,0.11,1c0.08,0.23,0.11,0.38-0.08,0.45
		c-0.16,0.06-0.27-0.11-0.39-0.44c-0.42-1.21-0.79-2.52-0.86-2.73c-0.07-0.21-0.5-1.21-0.96-2.56c-0.11-0.33-0.1-0.51,0.04-0.56
		c0.19-0.06,0.27,0.11,0.36,0.35c0.06,0.19,0.14,0.42,0.29,0.55c0.17,0.18,0.35,0.17,0.6,0.08c0.3-0.1,1.02-0.61,1.97-1.25
		c1.4-0.93,7.72-5.54,8.96-6.46l-13.82-0.34c-0.73-0.01-0.98-0.11-1.04-0.29c-0.09-0.26,0.22-0.49,0.86-1.05l10.13-8.98
		c-1.81,0.13-8.61,0.39-11.62,0.51c-0.59,0.02-1.11,0.12-1.43,0.23c-0.37,0.13-0.63,0.45-0.31,1.36c0.08,0.23,0.07,0.42-0.07,0.47
		c-0.16,0.06-0.27-0.11-0.4-0.46c-0.43-1.24-0.69-2.24-0.77-2.45c-0.06-0.16-0.47-1.14-0.74-1.91c-0.09-0.26-0.1-0.44,0.04-0.48
		c0.16-0.06,0.27,0.04,0.35,0.25c0.08,0.23,0.22,0.55,0.4,0.78c0.4,0.49,1.42,0.42,2.92,0.45c3.31,0.06,11.57-0.06,15.46-0.12
		c0.9-0.03,1.22-0.01,1.33,0.3c0.08,0.23-0.15,0.47-0.89,1.12L43.6,145.3c1.42,0.03,10.74,0.28,13.23,0.54
		c1.11,0.11,1.43,0.13,1.53,0.41c0.08,0.23-0.14,0.41-0.68,0.83L44.58,157.14z"/>
	<path class="st0" d="M39.84,126.43c-3.75,0.18-4.44,0.22-5.22,0.3c-0.84,0.09-1.24,0.36-1.34,0.9c-0.06,0.27-0.07,0.6-0.06,0.89
		c0.01,0.25-0.03,0.4-0.23,0.41c-0.15,0.01-0.21-0.19-0.22-0.58c-0.05-0.94-0.05-2.49-0.08-3.21c-0.03-0.62-0.18-2.07-0.22-3
		c-0.02-0.32,0.02-0.52,0.17-0.53c0.2-0.01,0.25,0.14,0.27,0.38c0.01,0.25,0.05,0.44,0.11,0.73c0.16,0.66,0.58,0.84,1.45,0.84
		c0.79,0.01,1.48-0.02,5.23-0.21l4.34-0.21c2.39-0.12,4.34-0.21,5.39-0.36c0.66-0.11,1.1-0.3,1.16-1.04
		c0.03-0.35,0.05-0.89,0.04-1.26c-0.01-0.27,0.05-0.4,0.18-0.4c0.17-0.01,0.26,0.18,0.27,0.46c0.08,1.63,0.08,3.18,0.11,3.85
		c0.03,0.57,0.18,2.12,0.23,3.1c0.02,0.32-0.05,0.5-0.22,0.5c-0.12,0.01-0.2-0.09-0.22-0.38c-0.02-0.37-0.08-0.66-0.14-0.88
		c-0.12-0.49-0.55-0.62-1.27-0.65c-1.04-0.07-2.99,0.02-5.38,0.14L39.84,126.43z"/>
	<path class="st0" d="M44.86,109.69c3.12,0.48,4.8,0.74,5.32,0.3c0.43-0.36,0.7-0.97,0.99-2.87c0.2-1.29,0.32-2.25-0.24-2.96
		c-0.27-0.34-0.91-0.74-1.36-0.86c-0.22-0.06-0.35-0.13-0.32-0.32c0.03-0.17,0.15-0.18,0.45-0.13c0.27,0.04,2.07,0.49,2.75,0.8
		c0.51,0.23,0.62,0.37,0.42,1.64c-0.35,2.24-0.84,4.46-1.24,7.07c-0.15,0.97-0.23,1.99-0.4,3.08c-0.05,0.32-0.15,0.48-0.32,0.45
		c-0.12-0.02-0.18-0.13-0.13-0.42c0.06-0.37,0.05-0.67,0.04-0.89c-0.02-0.5-0.54-0.71-1.23-0.91c-1-0.28-2.93-0.58-5.17-0.92
		l-4.29-0.66c-3.71-0.57-4.39-0.68-5.18-0.75c-0.84-0.08-1.26,0.06-1.55,0.83c-0.08,0.19-0.15,0.48-0.2,0.79
		c-0.04,0.27-0.11,0.41-0.28,0.38c-0.17-0.03-0.19-0.2-0.14-0.57c0.18-1.15,0.49-2.67,0.59-3.33c0.09-0.59,0.29-2.38,0.44-3.33
		c0.05-0.34,0.13-0.51,0.3-0.48s0.2,0.18,0.15,0.47c-0.04,0.27-0.08,0.66-0.07,0.96c0.02,0.68,0.4,0.94,1.25,1.12
		c0.77,0.17,1.45,0.27,5.16,0.85L44.86,109.69z"/>
	<path class="st0" d="M53.97,99.96c-0.3,0.31-0.45,0.33-0.95,0.13c-1.26-0.5-2.6-1.13-2.96-1.29c-0.34-0.16-0.56-0.33-0.49-0.51
		c0.08-0.21,0.3-0.15,0.48-0.08c0.3,0.12,0.82,0.21,1.25,0.25c1.9,0.16,3.05-0.95,3.61-2.37c0.81-2.07-0.19-3.63-1.41-4.1
		c-1.13-0.44-2.32-0.51-4.56,0.81l-1.24,0.73c-2.97,1.75-4.92,1.99-6.77,1.26c-2.53-0.99-3.51-3.81-2.26-7.01
		c0.34-0.87,0.7-1.52,1.01-2.04c0.22-0.36,0.41-0.63,0.58-0.86c0.13-0.19,0.24-0.28,0.4-0.21c0.3,0.12,0.93,0.47,2.72,1.17
		c0.51,0.2,0.66,0.34,0.59,0.52c-0.06,0.16-0.23,0.18-0.5,0.07c-0.21-0.08-0.96-0.25-1.75,0c-0.57,0.17-1.52,0.57-2.11,2.06
		c-0.67,1.7-0.08,3.12,1.29,3.66c1.06,0.41,2.07,0.2,4.26-1.14l0.73-0.45c3.18-1.96,5.15-2.33,7.33-1.47
		c1.33,0.52,2.72,1.65,3.15,3.73c0.28,1.44-0.01,2.8-0.49,4.02C55.36,98.18,54.79,99.15,53.97,99.96z"/>
	<path class="st0" d="M59.51,68.93c0.05-0.06,0.05-0.15-0.05-0.22l-0.41-0.31c-2.98-2.27-3.53-2.69-4.19-3.13
		c-0.7-0.47-1.13-0.55-1.76-0.01c-0.16,0.13-0.43,0.45-0.64,0.72c-0.17,0.22-0.29,0.3-0.43,0.2c-0.14-0.1-0.07-0.27,0.14-0.55
		c0.81-1.06,1.81-2.25,2.21-2.78c0.36-0.47,1.24-1.75,1.83-2.51c0.21-0.27,0.35-0.38,0.49-0.28c0.14,0.11,0.09,0.25-0.09,0.49
		c-0.12,0.16-0.23,0.35-0.38,0.61c-0.31,0.6-0.09,1.02,0.56,1.58c0.6,0.52,1.15,0.94,4.13,3.21l3.45,2.63
		c1.8,1.38,3.35,2.56,4.27,3.1c0.59,0.36,1.12,0.57,1.64,0.04c0.25-0.25,0.62-0.65,0.84-0.94c0.16-0.22,0.3-0.27,0.4-0.19
		c0.14,0.1,0.08,0.31-0.1,0.54c-0.97,1.27-1.97,2.47-2.39,3.01c-0.34,0.45-1.23,1.73-1.81,2.5c-0.21,0.27-0.37,0.37-0.51,0.26
		c-0.1-0.07-0.1-0.2,0.08-0.43c0.22-0.3,0.36-0.56,0.46-0.77c0.22-0.45-0.14-0.88-0.65-1.39c-0.75-0.73-2.3-1.91-4.1-3.28
		l-1.73-1.32c-0.08-0.06-0.16-0.03-0.21,0.03l-5.72,7.49c-0.04,0.06-0.07,0.13,0.03,0.21l1.73,1.32c1.8,1.38,3.35,2.56,4.27,3.1
		c0.59,0.36,1.12,0.57,1.64,0.04c0.25-0.24,0.62-0.65,0.84-0.94c0.16-0.22,0.3-0.27,0.4-0.19c0.14,0.1,0.08,0.31-0.1,0.54
		c-0.97,1.27-1.97,2.47-2.39,3.01c-0.34,0.45-1.23,1.73-1.83,2.52c-0.19,0.26-0.36,0.35-0.5,0.24c-0.1-0.07-0.1-0.2,0.08-0.43
		c0.22-0.29,0.36-0.56,0.46-0.77c0.22-0.45-0.14-0.88-0.65-1.39c-0.75-0.73-2.3-1.91-4.1-3.28l-3.45-2.63
		c-2.98-2.27-3.53-2.69-4.19-3.13c-0.7-0.47-1.13-0.55-1.76-0.01c-0.16,0.13-0.43,0.45-0.64,0.72c-0.16,0.22-0.29,0.3-0.43,0.2
		c-0.14-0.1-0.07-0.27,0.14-0.55c0.81-1.06,1.81-2.25,2.21-2.78c0.36-0.47,1.24-1.75,1.83-2.52c0.21-0.27,0.35-0.38,0.49-0.28
		c0.14,0.1,0.04,0.31-0.09,0.49c-0.12,0.16-0.29,0.43-0.39,0.6c-0.33,0.59-0.07,1.03,0.58,1.59c0.6,0.52,1.15,0.94,4.13,3.21
		l0.41,0.31c0.1,0.07,0.18,0.05,0.23-0.01L59.51,68.93z"/>
	<path class="st0" d="M69.81,58.24c-2.28-2.97-2.7-3.52-3.22-4.12c-0.55-0.64-1-0.82-1.51-0.59c-0.26,0.11-0.53,0.28-0.76,0.46
		c-0.2,0.15-0.34,0.2-0.46,0.04c-0.09-0.12,0.04-0.28,0.35-0.52c0.74-0.57,2.02-1.46,2.59-1.89c0.49-0.38,1.6-1.32,2.34-1.89
		c0.25-0.2,0.44-0.28,0.53-0.16c0.12,0.16,0.03,0.29-0.16,0.44c-0.2,0.15-0.34,0.29-0.54,0.51c-0.45,0.5-0.35,0.96,0.13,1.67
		c0.44,0.66,0.86,1.2,3.15,4.18l2.64,3.44c1.46,1.9,2.64,3.44,3.37,4.22c0.46,0.48,0.87,0.73,1.52,0.36
		c0.3-0.17,0.76-0.46,1.06-0.69c0.22-0.17,0.36-0.18,0.43-0.08c0.1,0.14-0.01,0.32-0.22,0.48c-1.29,0.99-2.57,1.88-3.1,2.28
		c-0.45,0.35-1.64,1.35-2.42,1.95c-0.25,0.2-0.44,0.24-0.54,0.1c-0.07-0.1-0.04-0.22,0.19-0.4c0.29-0.23,0.5-0.45,0.64-0.62
		c0.33-0.38,0.19-0.8-0.18-1.41c-0.53-0.9-1.72-2.44-3.18-4.34L69.81,58.24z"/>
	<path class="st0" d="M101.53,43.06c-0.88-3.65-1.04-4.32-1.27-5.07c-0.24-0.8-0.53-1.14-1.36-1.12c-0.2,0-0.62,0.07-0.95,0.15
		c-0.26,0.06-0.42,0.05-0.46-0.12c-0.04-0.17,0.12-0.26,0.48-0.34c1.1-0.27,2.22-0.46,3.47-0.76c0.77-0.18,5.54-1.33,5.99-1.47
		c0.44-0.16,0.82-0.3,1-0.39c0.11-0.05,0.24-0.16,0.36-0.19c0.12-0.03,0.17,0.06,0.2,0.18c0.04,0.17-0.01,0.48,0.18,1.61
		c0.03,0.25,0.24,1.31,0.26,1.61c0.01,0.13-0.01,0.28-0.18,0.32c-0.17,0.04-0.25-0.09-0.32-0.38c-0.02-0.1-0.14-0.47-0.33-0.73
		c-0.27-0.39-0.58-0.62-1.81-0.48c-0.42,0.05-2.95,0.61-3.43,0.72c-0.12,0.03-0.15,0.11-0.11,0.28l1.46,6.07
		c0.04,0.17,0.09,0.26,0.23,0.22c0.53-0.13,3.29-0.79,3.83-0.97c0.56-0.19,0.91-0.34,1.06-0.64c0.12-0.23,0.19-0.37,0.31-0.4
		c0.1-0.02,0.18,0.01,0.21,0.15c0.03,0.14,0.03,0.55,0.23,1.8c0.09,0.49,0.25,1.46,0.29,1.63c0.05,0.19,0.11,0.46-0.11,0.51
		c-0.17,0.04-0.28-0.21-0.31-0.33c-0.08-0.23-0.12-0.38-0.26-0.67c-0.24-0.45-0.66-0.73-1.57-0.61c-0.47,0.06-2.85,0.61-3.42,0.75
		c-0.12,0.03-0.12,0.13-0.09,0.28l0.46,1.89c0.2,0.82,0.7,3.03,0.89,3.72c0.45,1.64,0.92,1.91,3.36,1.32
		c0.62-0.15,1.63-0.39,2.19-0.83c0.55-0.44,0.72-1.01,0.65-2.03c-0.02-0.28,0.01-0.38,0.18-0.42c0.19-0.05,0.24,0.15,0.29,0.39
		c0.13,0.55,0.33,2.23,0.33,2.74c-0.02,0.66-0.23,0.72-1.15,0.94c-2.13,0.51-4.28,0.88-6.68,1.45c-0.96,0.23-1.93,0.54-3,0.8
		c-0.31,0.07-0.5,0.04-0.54-0.12c-0.03-0.12,0.05-0.21,0.34-0.28c0.36-0.09,0.64-0.2,0.84-0.3c0.46-0.21,0.45-0.77,0.38-1.49
		c-0.12-1.04-0.58-2.93-1.11-5.14L101.53,43.06z"/>
	<path class="st0" d="M133.38,46.2c-0.57,3.11-0.88,4.78-0.45,5.31c0.35,0.44,0.95,0.73,2.84,1.07c1.29,0.24,2.24,0.39,2.96-0.16
		c0.35-0.26,0.77-0.89,0.9-1.34c0.06-0.21,0.14-0.35,0.33-0.31c0.17,0.03,0.17,0.16,0.12,0.45c-0.05,0.27-0.55,2.05-0.88,2.72
		c-0.24,0.51-0.39,0.61-1.65,0.37c-2.23-0.41-4.44-0.97-7.03-1.44c-0.97-0.18-1.98-0.29-3.07-0.49c-0.32-0.06-0.47-0.16-0.44-0.33
		c0.02-0.12,0.13-0.18,0.42-0.12c0.36,0.07,0.66,0.07,0.89,0.06c0.5-0.01,0.72-0.52,0.95-1.21c0.31-1,0.66-2.91,1.07-5.14l0.79-4.27
		c0.68-3.69,0.8-4.37,0.9-5.15c0.1-0.83-0.02-1.26-0.79-1.57c-0.18-0.08-0.47-0.16-0.79-0.22c-0.27-0.05-0.4-0.12-0.37-0.29
		c0.03-0.17,0.21-0.19,0.57-0.12c1.14,0.21,2.66,0.56,3.31,0.68c0.58,0.11,2.37,0.36,3.31,0.53c0.34,0.06,0.5,0.14,0.47,0.31
		c-0.03,0.17-0.19,0.19-0.48,0.14c-0.27-0.05-0.66-0.1-0.96-0.1c-0.68,0-0.95,0.38-1.15,1.22c-0.19,0.77-0.32,1.45-0.99,5.13
		L133.38,46.2z"/>
	<path class="st0" d="M150.88,52.92c-0.11-0.06-0.18-0.04-0.29,0.07l-2.85,2.47c-0.51,0.42-0.9,0.89-1.04,1.15
		c-0.21,0.39-0.17,0.78,0.5,1.14c0.11,0.06,0.24,0.13,0.33,0.18c0.26,0.14,0.3,0.22,0.23,0.35c-0.09,0.17-0.25,0.15-0.49,0.02
		c-0.69-0.38-1.59-0.95-2.27-1.31c-0.24-0.13-1.47-0.71-2.6-1.32c-0.28-0.15-0.39-0.27-0.3-0.44c0.07-0.13,0.22-0.1,0.4-0.01
		c0.19,0.1,0.47,0.22,0.65,0.3c1.07,0.41,1.88-0.11,2.9-0.95l12.82-10.68c0.6-0.49,0.88-0.64,1.08-0.54
		c0.17,0.09,0.22,0.37,0.17,0.99c-0.12,1.48-1.44,12.21-1.83,16.25c-0.23,2.4,0.23,3.04,0.63,3.4c0.29,0.24,0.6,0.44,0.86,0.58
		c0.17,0.09,0.26,0.2,0.19,0.33c-0.09,0.17-0.31,0.11-1.12-0.32c-0.78-0.42-2.52-1.36-4.23-2.34c-0.38-0.23-0.48-0.31-0.41-0.44
		c0.06-0.11,0.18-0.13,0.41-0.03c0.18,0.04,0.43-0.08,0.47-0.39l0.75-5.54c0.02-0.13-0.03-0.21-0.13-0.27L150.88,52.92z
		 M155.91,54.02c0.11,0.05,0.17,0,0.18-0.08l0.66-6.45c0.03-0.23-0.03-0.34-0.24-0.12l-4.69,4.47c-0.07,0.08-0.08,0.16,0.01,0.2
		L155.91,54.02z"/>
	<path class="st0" d="M170.18,51.36c0.41-0.86,0.63-1.48,0.55-1.9c-0.08-0.31-0.4-0.69-0.56-0.84c-0.18-0.17-0.27-0.29-0.13-0.43
		c0.12-0.13,0.3-0.03,0.55,0.21c0.93,0.88,1.86,1.87,2.02,2.03c0.16,0.15,1,0.85,2.03,1.83c0.25,0.24,0.32,0.41,0.22,0.52
		c-0.14,0.14-0.3,0.02-0.47-0.15c-0.14-0.14-0.32-0.31-0.51-0.35c-0.23-0.08-0.38,0.01-0.57,0.21c-0.22,0.23-0.62,1.01-1.17,2.02
		c-0.82,1.47-4.31,8.46-4.99,9.86l12.43-6.05c0.66-0.33,0.92-0.35,1.06-0.22c0.2,0.19,0.03,0.54-0.28,1.33l-4.87,12.63
		c1.55-0.94,7.47-4.3,10.08-5.8c0.52-0.29,0.93-0.62,1.17-0.87c0.27-0.29,0.35-0.69-0.35-1.35c-0.18-0.17-0.25-0.34-0.15-0.45
		c0.12-0.13,0.3-0.02,0.56,0.23c0.95,0.9,1.65,1.67,1.81,1.82c0.12,0.12,0.94,0.8,1.53,1.36c0.2,0.19,0.29,0.34,0.19,0.45
		c-0.12,0.12-0.26,0.09-0.42-0.06c-0.18-0.17-0.45-0.39-0.71-0.51c-0.58-0.25-1.46,0.28-2.8,0.94c-2.96,1.47-10.25,5.36-13.67,7.21
		c-0.79,0.44-1.09,0.57-1.32,0.35c-0.18-0.17-0.08-0.49,0.28-1.4l4.84-12.56c-1.28,0.63-9.67,4.69-12,5.6
		c-1.04,0.41-1.33,0.54-1.54,0.33c-0.18-0.17-0.06-0.43,0.22-1.05L170.18,51.36z"/>
	<path class="st0" d="M192.32,85.22c3.46-1.44,4.1-1.71,4.81-2.06c0.76-0.37,1.04-0.7,0.89-1.52c-0.03-0.2-0.17-0.6-0.3-0.92
		c-0.09-0.23-0.12-0.41,0.02-0.46c0.18-0.08,0.3,0.09,0.45,0.43c0.44,1.05,0.81,2.12,1.3,3.31c0.36,0.87,2.29,5.49,2.53,6
		c0.2,0.42,0.32,0.7,0.48,0.9c0.1,0.12,0.24,0.19,0.29,0.31c0.04,0.09-0.02,0.2-0.14,0.24c-0.16,0.07-0.48,0.07-1.1,0.25
		c-0.24,0.07-1.6,0.59-1.89,0.66c-0.19,0.05-0.35,0.06-0.41-0.09c-0.07-0.16,0.03-0.25,0.27-0.38c0.18-0.08,0.55-0.23,0.81-0.5
		c0.25-0.29,0.39-0.91,0.06-1.79c-0.31-0.81-1.13-2.84-1.4-3.54c-0.06-0.14-0.15-0.18-0.4-0.07l-5.69,2.38
		c-0.14,0.06-0.2,0.11-0.14,0.24c0.26,0.61,0.9,2.09,1.24,2.91c0.55,1.32,0.7,1.68,1.27,1.82c0.18,0.06,0.29,0.06,0.35,0.2
		c0.04,0.09-0.01,0.17-0.15,0.22c-0.14,0.06-0.75,0.18-1.49,0.41c-0.47,0.14-1.54,0.54-1.7,0.6c-0.21,0.09-0.43,0.18-0.53-0.05
		c-0.06-0.14,0.08-0.25,0.24-0.31c0.16-0.07,0.41-0.23,0.65-0.43c0.27-0.25,0.54-0.76,0.34-1.5c-0.17-0.6-1.18-3.01-1.34-3.4
		c-0.05-0.11-0.11-0.14-0.27-0.07l-1.84,0.77c-2.19,0.91-3.89,1.62-4.8,2.14c-0.63,0.34-1.08,0.69-0.88,1.41
		c0.09,0.34,0.25,0.86,0.38,1.18c0.12,0.3,0.09,0.42-0.02,0.46c-0.16,0.07-0.29-0.06-0.44-0.41c-0.6-1.43-1.13-2.9-1.38-3.49
		c-0.25-0.59-0.91-2-1.27-2.86c-0.13-0.32-0.15-0.5,0.03-0.57c0.11-0.05,0.22,0.01,0.33,0.27c0.14,0.34,0.3,0.6,0.43,0.78
		c0.28,0.42,0.83,0.32,1.53,0.14c1-0.29,2.71-1,4.9-1.91L192.32,85.22z"/>
	<path class="st0" d="M197.99,102.03c3.68-0.74,4.35-0.88,5.12-1.08c0.81-0.21,1.18-0.54,1.19-1.09c0.02-0.28-0.02-0.6-0.08-0.89
		c-0.05-0.24-0.03-0.4,0.16-0.44c0.15-0.03,0.23,0.15,0.31,0.54c0.19,0.92,0.42,2.46,0.56,3.16c0.12,0.6,0.48,2.02,0.67,2.94
		c0.06,0.31,0.05,0.52-0.09,0.55c-0.19,0.04-0.27-0.1-0.32-0.34c-0.05-0.24-0.11-0.43-0.22-0.71c-0.25-0.63-0.7-0.74-1.56-0.62
		c-0.78,0.11-1.46,0.24-5.14,0.98l-4.25,0.86c-2.35,0.47-4.26,0.86-5.28,1.16c-0.64,0.2-1.04,0.46-0.99,1.21
		c0.02,0.35,0.08,0.89,0.15,1.25c0.05,0.27,0.01,0.4-0.12,0.43c-0.17,0.03-0.28-0.14-0.33-0.41c-0.32-1.6-0.56-3.13-0.69-3.79
		c-0.11-0.56-0.49-2.06-0.69-3.03c-0.06-0.31-0.03-0.5,0.14-0.53c0.12-0.02,0.21,0.06,0.27,0.35c0.07,0.36,0.18,0.64,0.27,0.85
		c0.19,0.46,0.63,0.53,1.35,0.46c1.04-0.08,2.95-0.47,5.29-0.94L197.99,102.03z"/>
	<path class="st0" d="M182.44,155.14c-1.52-0.37-2.28-0.41-2.76,0.19c-0.47,0.58-0.68,1.03-0.8,1.33c-0.08,0.21-0.17,0.36-0.31,0.3
		c-0.18-0.07-0.14-0.38-0.01-0.7c0.23-0.57,1.57-3.7,2-4.59c0.26-0.51,0.38-0.62,0.52-0.56c0.11,0.05,0.15,0.17,0.15,0.35
		c-0.01,0.16,0.26,0.34,0.94,0.51l10.77,2.7l-8.5-9.29c-0.86-0.96-1.02-1.16-0.94-1.36c0.08-0.21,0.63-0.25,1.47-0.34
		c1.27-0.13,5.5-0.53,6.25-0.55c0.56-0.01,4.19-0.23,6.23-0.35l-8.78-4.93c-0.39-0.21-0.68-0.35-1.05-0.5
		c-0.43-0.17-0.76,0.04-1.01,0.39c-0.26,0.38-0.41,0.69-0.5,0.92c-0.07,0.18-0.18,0.33-0.3,0.28c-0.21-0.08-0.17-0.31-0.03-0.65
		c0.39-0.96,0.87-1.96,1.03-2.38c0.18-0.43,0.55-1.56,0.84-2.29c0.09-0.23,0.21-0.39,0.42-0.31c0.11,0.05,0.1,0.2,0.01,0.43
		c-0.07,0.18-0.14,0.34-0.21,0.71c-0.12,0.7,0.7,1.24,1.43,1.66l14.01,8.26c0.36,0.22,0.51,0.44,0.44,0.63
		c-0.07,0.18-0.24,0.27-0.96,0.33l-15.42,1.06l10.57,11.47c0.29,0.33,0.43,0.52,0.35,0.72c-0.08,0.21-0.37,0.25-0.88,0.13
		L182.44,155.14z"/>
</g>
<path class="st0" d="M199.84,115.78c3.75,0.04,4.44,0.05,5.23,0.01c0.84-0.04,1.24-0.23,1.42-1.04c0.05-0.2,0.08-0.62,0.08-0.96
	c0-0.27,0.05-0.42,0.23-0.42c0.17,0,0.22,0.18,0.22,0.55c-0.02,1.31-0.11,2.86-0.11,3.38c-0.01,0.84,0.04,2.71,0.03,3.48
	c-0.02,1.55-0.18,3.2-1.11,4.53c-0.48,0.69-1.74,1.66-3.4,1.64c-1.82-0.02-3.47-0.78-5.46-3.29c-2.79,2.16-6.4,4.15-6.25,4.06
	c0.16-0.09-1.76,1.13-2.02,1.88c-0.09,0.26-0.14,0.5-0.14,0.7c0,0-0.06,0.31-0.26,0.29c-0.2,0-0.19-0.18-0.18-0.47l0.05-1.53
	c0.16-1.45,0.39-2.14,0.86-2.7c0.6-0.72,1.2-0.87,3.12-2.23c1.37-0.97,3.28-1.97,3.65-2.29c0.15-0.12,0.18-0.27,0.18-0.44l0.07-2.07
	c0-0.12-0.05-0.2-0.19-0.2l-0.35,0c-2.29-0.03-4.24-0.05-5.28,0.06c-0.72,0.07-1.26,0.21-1.37,0.95c-0.05,0.37-0.11,0.91-0.11,1.21
	c0,0.2-0.08,0.29-0.2,0.29c-0.17,0-0.24-0.18-0.24-0.5c0.02-1.43,0.11-3.25,0.12-3.62c0-0.47-0.05-2.02-0.04-3.01
	c0-0.32,0.08-0.49,0.25-0.49c0.12,0,0.2,0.1,0.19,0.4c0,0.37,0.04,0.67,0.09,0.89c0.09,0.49,0.63,0.62,1.35,0.73
	c1.03,0.13,2.98,0.16,5.25,0.18L199.84,115.78z M197.92,118.7c-0.27-0.01-0.37,0.04-0.45,0.21c-0.19,0.51-0.29,1.25-0.31,1.87
	c-0.03,0.99,0.06,1.31,0.36,1.76c0.52,0.76,1.63,1.51,3.65,1.57c3.5,0.11,4.58-2.17,4.63-3.63c0.02-0.62,0.01-1.06-0.06-1.31
	c-0.04-0.17-0.14-0.23-0.34-0.23L197.92,118.7z"/>
<path class="st0" d="M80.56,51.45c-1.59-3.39-1.89-4.02-2.27-4.71c-0.4-0.74-0.75-1.01-1.56-0.82c-0.2,0.04-0.59,0.2-0.9,0.34
	c-0.25,0.12-0.4,0.13-0.47-0.02c-0.07-0.16,0.06-0.27,0.4-0.43c1.18-0.55,2.62-1.15,3.09-1.37c0.76-0.36,2.42-1.22,3.12-1.54
	c1.41-0.66,2.97-1.23,4.56-0.97c0.82,0.13,2.25,0.85,2.95,2.35c0.77,1.65,0.81,3.46-0.59,6.35c3.16,1.57,6.52,3.96,6.37,3.86
	s1.79,1.1,2.58,1c0.27-0.03,0.51-0.09,0.69-0.18c0,0,0.3-0.08,0.38,0.11c0.08,0.18-0.07,0.27-0.34,0.39l-1.4,0.6
	c-1.37,0.48-2.09,0.58-2.8,0.4c-0.91-0.23-1.31-0.7-3.37-1.84c-1.47-0.81-3.2-2.09-3.65-2.29c-0.17-0.08-0.32-0.04-0.47,0.03
	l-1.9,0.84c-0.11,0.05-0.16,0.13-0.09,0.26l0.15,0.31c0.97,2.08,1.8,3.84,2.35,4.73c0.37,0.62,0.73,1.04,1.45,0.82
	c0.36-0.11,0.87-0.3,1.14-0.42c0.18-0.08,0.3-0.06,0.35,0.05c0.07,0.16-0.05,0.3-0.34,0.43c-1.29,0.61-2.98,1.32-3.31,1.47
	c-0.42,0.2-1.8,0.93-2.69,1.35c-0.29,0.14-0.48,0.14-0.55-0.01c-0.05-0.11,0.01-0.22,0.27-0.35c0.33-0.16,0.58-0.33,0.76-0.47
	c0.4-0.3,0.29-0.84,0.07-1.53c-0.33-0.99-1.16-2.75-2.12-4.81L80.56,51.45z M84.03,51.91c0.11,0.25,0.2,0.32,0.38,0.32
	c0.54-0.05,1.25-0.28,1.81-0.54c0.9-0.4,1.15-0.62,1.43-1.09c0.46-0.8,0.65-2.12-0.17-3.97c-1.42-3.2-3.95-3.18-5.28-2.59
	c-0.56,0.25-0.96,0.45-1.15,0.62c-0.14,0.11-0.14,0.22-0.06,0.41L84.03,51.91z"/>
<g>
	<path class="st0" d="M98.26,193.22c0.83-3.65,0.99-4.33,1.12-5.11c0.14-0.83,0.03-1.26-0.72-1.61c-0.18-0.09-0.59-0.21-0.92-0.29
		c-0.26-0.06-0.4-0.14-0.36-0.31c0.04-0.17,0.22-0.18,0.58-0.09c1.27,0.29,2.77,0.71,3.45,0.86c0.99,0.23,2.4,0.47,3.5,0.72
		c3.01,0.69,3.76,1.82,4.19,2.48c0.41,0.65,0.81,1.75,0.43,3.41c-0.68,2.96-3.75,4.89-7.16,4.11c-0.12-0.03-0.38-0.09-0.5-0.14
		c-0.12-0.05-0.28-0.11-0.24-0.28c0.04-0.19,0.23-0.23,0.73-0.11c1.35,0.31,3.57-0.8,4.13-3.26c0.18-0.79,0.54-2.38-0.53-3.89
		c-0.69-0.99-1.71-1.38-2.26-1.5c-0.36-0.08-0.73-0.14-0.96-0.12c-0.13,0.02-0.24,0.15-0.3,0.41l-2.2,9.62
		c-0.51,2.21-0.94,4.11-1.06,5.17c-0.08,0.69-0.06,1.25,0.64,1.51c0.33,0.13,0.84,0.29,1.2,0.38c0.26,0.06,0.37,0.16,0.34,0.28
		c-0.04,0.17-0.25,0.2-0.51,0.14c-1.59-0.36-3.08-0.78-3.71-0.92c-0.55-0.13-2.08-0.4-3.05-0.62c-0.31-0.07-0.46-0.18-0.43-0.35
		c0.03-0.12,0.14-0.17,0.43-0.1c0.36,0.08,0.66,0.1,0.89,0.1c0.5,0.01,0.74-0.49,1-1.16c0.35-0.98,0.79-2.88,1.29-5.09L98.26,193.22
		z"/>
	<path class="st0" d="M119.09,200.19c0.05,3.16,0.08,4.86,0.61,5.29c0.43,0.36,1.07,0.52,2.99,0.49c1.31-0.02,2.27-0.06,2.87-0.74
		c0.29-0.33,0.57-1.02,0.61-1.49c0.02-0.22,0.07-0.37,0.27-0.37c0.17,0,0.2,0.12,0.2,0.42c0,0.27-0.14,2.12-0.32,2.84
		c-0.14,0.55-0.26,0.67-1.54,0.69c-2.27,0.04-4.54-0.07-7.18-0.03c-0.99,0.02-2,0.11-3.11,0.13c-0.32,0.01-0.5-0.07-0.5-0.24
		c0-0.12,0.1-0.2,0.39-0.2c0.37-0.01,0.66-0.06,0.89-0.11c0.49-0.11,0.61-0.65,0.69-1.37c0.11-1.04,0.07-2.99,0.03-5.25l-0.07-4.34
		c-0.06-3.75-0.08-4.44-0.14-5.23c-0.06-0.84-0.27-1.23-1.08-1.39c-0.2-0.05-0.5-0.07-0.82-0.06c-0.27,0-0.42-0.04-0.42-0.21
		c0-0.17,0.17-0.22,0.54-0.23c1.16-0.02,2.71,0.03,3.38,0.02c0.59-0.01,2.39-0.11,3.35-0.13c0.35-0.01,0.52,0.04,0.52,0.21
		c0,0.17-0.14,0.22-0.44,0.23c-0.27,0-0.67,0.04-0.96,0.09c-0.66,0.13-0.85,0.56-0.89,1.42c-0.04,0.79-0.02,1.48,0.04,5.23
		L119.09,200.19z"/>
	<path class="st0" d="M134.83,203.98c-2.81-1.56-4.02-4.13-4.53-6.46c-0.35-1.64-0.46-4.59,1.39-7.22c1.39-1.97,3.47-3.43,7.06-4.2
		c1.49-0.32,2.41-0.42,3.55-0.52c0.94-0.08,1.83-0.04,2.57-0.13c0.27-0.03,0.32,0.08,0.35,0.23c0.04,0.19,0.03,0.5,0.17,1.35
		c0.12,0.81,0.43,2.13,0.49,2.62c0.05,0.37,0.05,0.59-0.16,0.64c-0.19,0.04-0.29-0.16-0.36-0.5c-0.19-0.74-0.68-1.52-1.42-2.01
		c-0.98-0.67-3-0.91-5.22-0.43c-2.1,0.45-3.36,1.28-4.21,2.48c-1.41,2-1.37,4.39-0.87,6.72c1.24,5.74,6.22,7.64,9.45,6.94
		c2.15-0.46,3.4-0.99,4.12-2.31c0.31-0.55,0.47-1.31,0.47-1.77c-0.01-0.4,0.02-0.51,0.21-0.55c0.17-0.04,0.25,0.12,0.3,0.31
		c0.06,0.29,0.23,2.45,0.16,3.32c-0.03,0.44-0.1,0.58-0.47,0.84c-0.88,0.59-2.68,1.16-4.22,1.49
		C140.37,205.53,137.44,205.41,134.83,203.98z"/>
</g>
<polygon id="Divider_1_" class="st1" points="270.77,0 270.77,0 272.54,119.72 270.77,239.43 270.77,239.43 268.99,119.72 "/>
<g id="text_1_">
	<rect id="Lower_Text_Bar_1_" x="305.59" y="220.92" class="st1" width="1519.95" height="14.16"/>
	<g id="PLC_Text_1_">
		<g>
			<path class="st0" d="M1856.08,208.28c0-8.83,0-10.41-0.11-12.23c-0.11-1.93-0.57-2.83-2.43-3.23c-0.45-0.11-1.42-0.17-1.93-0.17
				c-0.22,0-0.45-0.11-0.45-0.34c0-0.34,0.28-0.45,0.9-0.45c2.55,0,5.95,0.17,6.4,0.17c1.24,0,4.53-0.17,7.13-0.17
				c7.08,0,9.62,2.37,10.53,3.23c1.24,1.19,2.83,3.73,2.83,7.41c0,7.36-5.89,12.8-13.93,12.8c-0.28,0-0.91,0-1.19-0.06
				c-0.28,0-0.62-0.11-0.62-0.4c0-0.45,0.34-0.51,1.53-0.51c5.49,0,9.79-3.74,9.79-9.68c0-1.42-0.17-5.21-3.17-8.27
				c-3-3.06-6.45-2.83-7.76-2.83c-0.96,0-1.92,0.11-2.43,0.34c-0.34,0.11-0.45,0.51-0.45,1.08v23.27c0,5.43,0,9.91,0.28,12.29
				c0.17,1.64,0.51,2.89,2.21,3.11c0.79,0.11,2.04,0.23,2.55,0.23c0.34,0,0.45,0.17,0.45,0.34c0,0.28-0.28,0.45-0.9,0.45
				c-3.11,0-6.68-0.17-6.96-0.17c-0.17,0-3.74,0.17-5.44,0.17c-0.62,0-0.91-0.11-0.91-0.45c0-0.17,0.11-0.34,0.45-0.34
				c0.51,0,1.19-0.11,1.7-0.23c1.13-0.23,1.41-1.47,1.64-3.11c0.28-2.38,0.28-6.85,0.28-12.29V208.28z"/>
			<path class="st0" d="M1897.19,218.36c0,8.32,0.23,11.95,1.25,12.97c0.9,0.9,2.38,1.3,6.79,1.3c3,0,5.49-0.06,6.85-1.7
				c0.74-0.91,1.3-2.32,1.47-3.39c0.06-0.45,0.17-0.74,0.51-0.74c0.28,0,0.34,0.23,0.34,0.85c0,0.62-0.4,4.02-0.85,5.66
				c-0.39,1.3-0.56,1.53-3.57,1.53c-4.87,0-9.68-0.34-15.17-0.34c-1.76,0-3.45,0.17-5.55,0.17c-0.62,0-0.91-0.11-0.91-0.45
				c0-0.17,0.11-0.34,0.45-0.34c0.51,0,1.19-0.11,1.7-0.23c1.13-0.23,1.41-1.47,1.64-3.11c0.28-2.38,0.28-6.85,0.28-12.29v-9.97
				c0-8.83,0-10.41-0.11-12.23c-0.11-1.93-0.57-2.83-2.43-3.23c-0.45-0.11-1.42-0.17-1.93-0.17c-0.22,0-0.45-0.11-0.45-0.34
				c0-0.34,0.28-0.45,0.9-0.45c2.55,0,6.12,0.17,6.4,0.17c0.28,0,4.41-0.17,6.11-0.17c0.62,0,0.91,0.11,0.91,0.45
				c0,0.23-0.23,0.34-0.45,0.34c-0.4,0-1.19,0.06-1.87,0.17c-1.64,0.28-2.09,1.25-2.21,3.23c-0.11,1.81-0.11,3.4-0.11,12.23V218.36z
				"/>
			<path class="st0" d="M1926.36,229.34c-5.49-4.92-6.85-11.38-6.85-16.76c0-3.79,1.3-10.42,6.34-15.46
				c3.4-3.4,8.55-6.06,17.27-6.06c2.27,0,5.44,0.17,8.21,0.68c2.15,0.39,3.91,0.56,6,0.85c0.39,0.06,0.51,0.28,0.51,0.62
				c0,0.45-0.17,1.13-0.28,3.17c-0.11,1.87-0.11,4.98-0.17,5.83c-0.06,0.85-0.17,1.19-0.51,1.19c-0.4,0-0.45-0.4-0.45-1.19
				c0-2.21-0.91-4.53-2.38-5.78c-1.98-1.7-6.34-3.23-11.32-3.23c-7.53,0-11.04,2.21-13.02,4.13c-4.13,3.96-5.09,9-5.09,14.78
				c0,10.81,8.32,20.72,20.44,20.72c4.25,0,7.59-0.51,9.85-2.83c1.19-1.24,1.93-3.73,2.1-4.75c0.11-0.62,0.23-0.85,0.57-0.85
				c0.28,0,0.39,0.39,0.39,0.85c0,0.4-0.68,5.32-1.24,7.25c-0.34,1.08-0.45,1.19-1.47,1.64c-2.26,0.91-6.57,1.3-10.19,1.3
				C1936.55,235.45,1930.84,233.36,1926.36,229.34z"/>
		</g>
	</g>
	<g id="Wilshire_Law_Firm_Text_1_">
		<g>
			<path class="st0" d="M330.15,67.41c-2.52-8.35-4.57-10.71-8.66-12.28c-2.05-0.79-5.98-0.94-7.09-0.94c-0.79,0-1.42-0.16-1.42-1.1
				c0-0.79,0.94-1.1,2.52-1.1c8.19,0,16.85,0.47,18.58,0.47c1.42,0,8.35-0.47,16.22-0.47c2.2,0,2.83,0.47,2.83,1.1
				c0,0.94-0.79,1.1-1.57,1.1c-1.26,0-4.25,0-6.14,0.94c-0.94,0.47-2.05,1.73-2.05,3.78s1.42,7.56,2.99,14.49
				c2.36,10.08,18.74,67.87,21.26,76.69l33.54-90.23c2.36-6.46,2.99-7.24,3.94-7.24c1.1,0,2.05,2.05,3.94,7.4l31.65,90.23
				c4.57-15.43,19.05-61.1,24.56-81.25c1.58-5.83,1.73-8.03,1.73-10.08c0-2.83-1.73-4.72-8.98-4.72c-0.79,0-1.42-0.47-1.42-1.1
				c0-0.79,0.79-1.1,2.68-1.1c8.03,0,14.65,0.47,16.06,0.47c1.1,0,7.87-0.47,12.76-0.47c1.42,0,2.2,0.32,2.2,0.94
				c0,0.79-0.47,1.26-1.42,1.26c-0.63,0-3.62,0.16-5.36,0.79c-4.72,1.73-7.24,8.35-10.23,17.01c-6.93,20-22.83,70.07-28.97,87.71
				c-4.09,11.65-4.88,13.54-6.61,13.54c-1.58,0-2.52-2.05-4.72-8.19l-31.02-88.03c-5.83,15.59-27.4,73.22-33.07,87.87
				c-2.52,6.62-3.62,8.35-5.2,8.35c-1.58,0-2.36-1.73-5.51-12.44L330.15,67.41z"/>
			<path class="st0" d="M512.36,108.51c0-20.78,0-24.56-0.31-28.82c-0.31-4.25-1.26-6.61-4.57-7.24c-1.57-0.32-2.68-0.32-3.62-0.47
				c-1.1-0.16-1.73-0.47-1.73-1.1c0-0.79,0.63-1.1,2.36-1.1c4.88,0,13.86,0.47,14.33,0.47c0.63,0,9.76-0.47,14.17-0.47
				c1.57,0,2.36,0.31,2.36,1.1c0,0.63-0.47,0.94-1.73,1.1c-0.94,0.16-1.73,0.16-2.83,0.32c-4.57,0.63-5.04,2.99-5.35,7.56
				c-0.31,4.25-0.16,7.87-0.16,28.66v23.62c0,12.12-0.16,23.15,0.63,28.82c0.63,4.57,1.26,6.3,5.35,7.24
				c2.05,0.47,5.35,0.63,5.98,0.63c1.42,0.16,1.73,0.48,1.73,1.1s-0.63,1.1-2.21,1.1c-8.03,0-17.16-0.47-17.95-0.47
				c-0.47,0-9.76,0.47-14.17,0.47c-1.42,0-2.52-0.31-2.52-1.1c0-0.63,0.63-1.1,2.05-1.1c0.79,0,2.52-0.16,3.78-0.47
				c2.68-0.63,3.15-3.78,3.62-7.56c0.79-5.67,0.79-16.85,0.79-28.66V108.51z"/>
			<path class="st0" d="M587.01,132.45c0,18.11,0.63,27.24,3.31,29.76c2.52,2.2,5.67,3.15,16.53,3.15c6.93,0,13.23,0,16.69-4.41
				c1.58-2.36,2.68-5.51,2.99-7.87c0.16-1.26,0.47-1.89,1.26-1.89c0.63,0,0.94,0.47,0.94,2.05c0,1.57-0.94,10.55-1.89,14.17
				c-0.94,3.15-0.79,3.94-8.35,3.94c-10.71,0-22.52-0.79-38.26-0.79c-5.2,0-8.35,0.47-13.86,0.47c-1.58,0-2.52-0.31-2.52-1.26
				c0-0.47,0.47-0.95,1.73-0.95c1.26,0,2.52,0,3.78-0.31c2.68-0.47,3.62-3.62,4.09-7.4c0.94-5.98,0.63-16.85,0.63-28.98v-23.62
				c0-20.78,0-24.25-0.31-28.5c-0.31-4.41-0.94-7.24-6.3-7.87c-0.94-0.16-2.68-0.16-3.94-0.16c-1.1,0-1.73-0.47-1.73-1.1
				c0-0.79,0.79-1.1,2.36-1.1c6.61,0,16.06,0.47,16.38,0.47c2.2,0,11.81-0.47,16.22-0.47c1.57,0,2.05,0.47,2.05,1.1
				s-0.79,1.1-1.73,1.1c-1.1,0-2.68,0.16-4.25,0.32c-4.41,0.63-5.35,3.15-5.67,7.71c-0.31,4.25-0.16,7.72-0.16,28.5V132.45z"/>
			<path class="st0" d="M648.74,169.3c-2.05-0.95-2.05-1.58-2.05-5.36c0-7.24,0.47-12.6,0.63-14.8c0.16-1.42,0.47-2.2,1.26-2.2
				c0.79,0,1.1,0.47,1.1,1.57c0,0.95,0,2.84,0.47,4.73c2.05,10.24,11.34,14.17,20.47,14.17c13.07,0,19.37-8.98,19.37-16.85
				c0-8.97-4.09-14.49-15.59-23.77l-6.3-4.88c-15.12-12.12-18.27-20.47-18.27-29.76c0-14.49,11.49-24.25,29.13-24.25
				c5.51,0,9.29,0.47,12.76,1.26c2.99,0.63,4.25,0.79,5.35,0.79s1.42,0.31,1.42,0.94s-0.63,6.14-0.63,15.27
				c0,2.36-0.31,3.31-1.1,3.31s-0.94-0.63-1.1-1.73c-0.16-1.42-0.47-4.72-1.89-7.4c-0.79-1.42-4.41-7.4-17.64-7.4
				c-9.45,0-16.53,5.67-16.53,15.12c0,7.4,3.78,11.97,16.85,21.89l3.62,2.84c16.38,12.6,20.63,20.94,20.63,32.12
				c0,5.67-2.36,15.74-11.97,22.36c-6.14,3.94-13.7,5.51-21.26,5.51C660.86,172.76,654.72,171.97,648.74,169.3z"/>
			<path class="st0" d="M808.11,111.98c0.47,0,0.94,0,0.94-0.79v-2.84c0-20.78,0-24.41-0.31-28.66c-0.31-4.25-0.94-6.46-6.14-7.4
				c-1.1-0.16-2.68-0.32-3.94-0.32c-1.1,0-1.89-0.47-1.89-1.1c0-0.94,0.79-1.1,2.2-1.1c6.62,0,15.9,0.47,16.53,0.47
				c0.63,0,9.45-0.47,14.17-0.47c1.58,0,2.52,0.16,2.52,1.1c0,0.47-0.48,1.1-1.73,1.1c-0.95,0-2.2,0.16-3.15,0.32
				c-4.25,0.63-4.88,3.15-5.19,7.56c-0.16,4.25-0.16,7.87-0.16,28.66v23.62c0,12.91,0,23.15,0.63,28.82
				c0.47,3.78,1.26,6.93,5.36,7.4c2.05,0.31,4.09,0.47,5.51,0.47c1.26,0,2.05,0.48,2.05,1.1c0,0.79-0.79,1.1-2.36,1.1
				c-7.87,0-17-0.47-17.79-0.47c-0.63,0-9.76,0.47-14.01,0.47c-1.57,0-2.36-0.31-2.36-1.26c0-0.47,0.47-0.95,1.73-0.95
				c1.26,0,2.36,0,3.62-0.31c2.68-0.47,3.47-3.94,3.94-7.56c0.79-5.67,0.79-15.59,0.79-28.34v-14.01c0-0.63-0.47-0.94-0.94-0.94
				h-57.16c-0.47,0-0.79,0.16-0.79,0.94v14.01c0,12.76,0,22.99,0.79,28.66c0.48,3.46,1.26,6.61,5.36,7.08
				c2.05,0.31,4.41,0.47,5.67,0.47c1.1,0,1.89,0.48,1.89,1.1s-0.63,1.1-2.05,1.1c-8.03,0-17.32-0.47-18.11-0.47
				c-0.47,0-10.08,0.47-14.17,0.47c-1.58,0-2.52-0.31-2.52-1.1c0-0.47,0.31-1.1,1.73-1.1c1.26,0,2.52-0.16,3.78-0.47
				c2.84-0.63,3.47-3.62,3.94-7.08c0.95-5.67,0.79-16.22,0.79-29.13v-23.3c0-20.79,0-24.88-0.32-29.13
				c-0.31-4.09-1.41-7.09-5.98-7.56c-1.41-0.16-2.99-0.31-4.25-0.31c-1.1,0-1.73-0.47-1.73-0.94c0-0.94,0.79-1.1,2.36-1.1
				c6.77,0,14.33,0.47,16.38,0.47c0.63,0,9.76-0.47,14.17-0.47c1.58,0,2.36,0.31,2.36,1.1c0,0.63-0.63,0.94-1.58,0.94
				c-0.94,0-1.41,0-3.15,0.31c-3.94,0.63-4.88,3.31-5.2,7.72c-0.16,4.25-0.16,7.72-0.16,28.5v2.84c0,0.79,0.47,0.79,0.94,0.79
				H808.11z"/>
			<path class="st0" d="M870.48,108.51c0-20.78,0-24.56-0.31-28.82c-0.31-4.25-1.26-6.61-4.57-7.24c-1.58-0.32-2.68-0.32-3.62-0.47
				c-1.1-0.16-1.73-0.47-1.73-1.1c0-0.79,0.63-1.1,2.36-1.1c4.88,0,13.86,0.47,14.33,0.47c0.63,0,9.76-0.47,14.17-0.47
				c1.58,0,2.36,0.31,2.36,1.1c0,0.63-0.48,0.94-1.73,1.1c-0.95,0.16-1.73,0.16-2.84,0.32c-4.57,0.63-5.04,2.99-5.35,7.56
				c-0.32,4.25-0.16,7.87-0.16,28.66v23.62c0,12.12-0.16,23.15,0.63,28.82c0.63,4.57,1.26,6.3,5.35,7.24
				c2.05,0.47,5.36,0.63,5.98,0.63c1.42,0.16,1.73,0.48,1.73,1.1s-0.63,1.1-2.2,1.1c-8.03,0-17.16-0.47-17.95-0.47
				c-0.47,0-9.76,0.47-14.17,0.47c-1.41,0-2.52-0.31-2.52-1.1c0-0.63,0.63-1.1,2.05-1.1c0.79,0,2.52-0.16,3.78-0.47
				c2.68-0.63,3.15-3.78,3.62-7.56c0.79-5.67,0.79-16.85,0.79-28.66V108.51z"/>
			<path class="st0" d="M932.37,108.51c0-20.78,0-24.56-0.31-28.82c-0.31-4.25-1.42-6.61-6.3-7.56c-0.95-0.16-2.52-0.31-3.78-0.31
				c-1.1,0-1.73-0.31-1.73-0.94s0.47-1.1,1.89-1.1c6.77,0,16.38,0.47,16.69,0.47c1.42,0,12.12-0.47,16.54-0.47
				c8.82,0,18.42,0.79,25.82,5.98c2.99,2.2,9.45,8.5,9.45,19.21c0,8.66-4.25,19.69-16.69,29.76c11.5,14.17,20.94,25.82,28.97,34.17
				c7.56,7.72,12.28,8.98,16.69,9.61c1.1,0.16,4.41,0.31,4.88,0.31c1.26,0,1.73,0.48,1.73,1.1c0,0.79-0.63,1.1-2.84,1.1h-11.02
				c-7.4,0-10.87-0.47-14.33-1.89c-6.62-2.84-11.34-9.92-19.53-20.47c-6.14-7.56-12.44-16.06-15.11-19.37
				c-0.63-0.63-0.95-0.95-1.89-0.95l-16.22-0.16c-0.63,0-0.79,0.16-0.79,0.79v2.2c0,12.6,0,24.09,0.79,29.76
				c0.47,3.78,0.94,6.93,6.14,7.56c1.57,0.16,3.3,0.31,4.57,0.31c1.42,0,2.05,0.48,2.05,0.95c0,0.79-0.63,1.26-2.2,1.26
				c-8.19,0-17.01-0.47-17.64-0.47c-2.52,0-9.45,0.47-13.7,0.47c-1.57,0-2.2-0.31-2.2-1.26c0-0.47,0.95-0.95,1.89-0.95
				c1.1,0,2.2,0,3.47-0.31c2.68-0.47,3.62-2.2,4.09-5.98c0.79-5.67,0.63-18.58,0.63-30.39V108.51z M944.49,119.69
				c0,0.79,0.16,1.58,0.79,1.89c2.05,1.1,8.35,2.05,14.01,2.05c3.3,0,7.24-0.16,10.55-2.36c4.72-2.99,7.87-9.92,7.87-20
				c0-17.17-9.13-26.61-23.15-26.61c-3.94,0-7.24,0.31-9.13,0.79c-0.48,0.16-0.95,0.63-0.95,1.42V119.69z"/>
			<path class="st0" d="M1043.25,108.51c0-20.63,0-24.41-0.31-28.66c-0.31-4.41-1.42-6.61-5.98-7.56c-0.94-0.16-2.52-0.32-3.78-0.32
				c-1.1,0-8.05-0.47-8.05-0.94c0-0.94,6.79-1.26,8.36-1.26c3.15,0,7.4,0.31,16.22,0.47c0.79,0,28.82,0,31.97-0.16
				c3.15-0.16,4.88-0.31,6.14-0.79c0.95-0.32,1.1-0.47,1.73-0.47c0.31,0,0.63,0.31,0.63,1.1c0,0.94-0.94,3.15-1.26,7.09
				c-0.16,2.68-0.31,5.2-0.47,8.19c0,1.42-0.32,2.36-1.1,2.36c-0.79,0-1.1-0.63-1.1-1.73c-0.16-2.36-0.63-3.94-1.1-5.04
				c-0.95-3.15-2.36-4.25-10.23-4.72c-2.05-0.16-17.64-0.31-17.95-0.31c-0.47,0-0.79,0.31-0.79,1.26v35.75
				c0,0.94,0.16,1.57,0.94,1.57c1.89,0,17.95-0.16,21.26-0.47c3.62-0.16,5.98-0.63,7.24-2.36c0.63-0.95,1.1-1.26,1.73-1.26
				c0.31,0,0.63,0.16,0.63,0.95c0,0.79-0.63,3.78-1.1,8.35c-0.47,4.41-0.47,7.56-0.63,9.61c-0.16,1.26-0.47,1.73-1.1,1.73
				c-0.79,0-0.95-0.95-0.95-2.05c0-0.95-0.16-2.52-0.47-3.78c-0.63-2.05-1.58-4.25-7.56-4.73c-3.62-0.31-16.38-0.63-18.89-0.63
				c-0.94,0-1.1,0.47-1.1,1.1v11.49c0,4.88-0.16,18.74,0,21.42c0.31,5.83,1.1,8.82,4.41,10.24c2.36,1.1,6.14,1.42,11.49,1.42
				c2.99,0,8.03,0.16,11.97-0.95c4.73-1.41,5.83-4.57,7.09-10.39c0.31-1.58,0.79-2.2,1.42-2.2c0.94,0,0.94,1.42,0.94,2.36
				c0,1.1-1.26,11.02-1.73,13.7c-0.63,3.15-1.73,3.47-6.93,3.47c-10.39,0-14.8-0.32-20.31-0.32c-5.51-0.16-12.76-0.47-18.58-0.47
				c-3.62,0-6.61,0.47-10.39,0.47c-1.41,0-2.2-0.31-2.2-1.1c0-0.63,0.63-1.1,1.42-1.1c0.94,0,2.05-0.16,3.15-0.47
				c2.84-0.63,4.73-2.68,5.04-12.44c0.16-5.36,0.31-11.81,0.31-23.78V108.51z"/>
			<path class="st0" d="M1190.64,125.68c0,23.15,0.63,33.22,3.47,36.06c2.52,2.52,6.61,3.62,18.9,3.62c8.35,0,15.27-0.16,19.05-4.73
				c2.05-2.52,3.62-6.46,4.09-9.45c0.16-1.26,0.47-2.05,1.42-2.05c0.79,0,0.94,0.63,0.94,2.36s-1.1,11.18-2.36,15.75
				c-1.1,3.62-1.58,4.25-9.92,4.25c-13.54,0-26.93-0.95-42.2-0.95c-4.88,0-9.61,0.47-15.43,0.47c-1.73,0-2.52-0.31-2.52-1.26
				c0-0.47,0.31-0.95,1.26-0.95c1.42,0,3.31-0.31,4.72-0.63c3.15-0.63,3.94-4.09,4.57-8.66c0.79-6.61,0.79-19.06,0.79-34.17V97.65
				c0-24.57,0-28.97-0.31-34.01c-0.31-5.35-1.58-7.87-6.77-8.98c-1.26-0.31-3.94-0.47-5.35-0.47c-0.63,0-1.26-0.32-1.26-0.94
				c0-0.94,0.79-1.26,2.52-1.26c7.09,0,17.01,0.47,17.79,0.47c0.79,0,12.28-0.47,17.01-0.47c1.73,0,2.52,0.32,2.52,1.26
				c0,0.63-0.63,0.94-1.26,0.94c-1.1,0-3.3,0.16-5.19,0.47c-4.57,0.79-5.83,3.46-6.14,8.98c-0.32,5.04-0.32,9.45-0.32,34.01V125.68z
				"/>
			<path class="st0" d="M1273.95,132.6c-0.79,0-1.26,0.48-1.58,1.26l-6.93,19.68c-1.57,4.41-2.68,8.66-2.68,11.18
				c0,2.84,1.73,4.09,5.2,4.09c0.47,0,0.63,0,1.1,0c1.42,0,1.89,0.48,1.89,1.1c0,0.79-1.26,1.1-2.36,1.1
				c-3.47,0-10.71-0.47-12.44-0.47c-1.58,0-8.51,0.47-15.12,0.47c-1.73,0-2.52-0.31-2.52-1.1c0-0.63,0.63-1.1,1.89-1.1
				c0.79,0,2.2,0,3.15-0.16c6.77-0.63,9.45-5.83,12.12-12.44l31.49-82.99c1.73-4.57,2.2-5.35,3.31-5.35c0.79,0,1.41,0.63,3.15,5.04
				c2.2,5.2,23.62,60.15,31.97,79.83c5.2,12.44,9.76,14.49,11.97,15.28c2.05,0.79,4.25,0.79,5.36,0.79c1.1,0,1.89,0.32,1.89,1.1
				s-0.63,1.1-2.36,1.1c-1.58,0-13.39,0-23.94-0.31c-2.99-0.16-3.94-0.31-3.94-1.1c0-0.47,0.47-0.95,1.1-1.1
				c0.63-0.31,1.58-1.1,0.63-3.46l-12.44-31.65c-0.31-0.47-0.63-0.79-1.26-0.79H1273.95z M1300.72,127.1c0.63,0,0.63-0.48,0.47-0.95
				l-12.44-34.8c-0.79-2.2-0.95-2.2-1.73,0l-11.81,34.8c-0.31,0.63,0,0.95,0.31,0.95H1300.72z"/>
			<path class="st0" d="M1352.85,83.16c-2.21-6.93-3.31-9.29-7.72-10.55c-1.73-0.47-4.57-0.63-5.67-0.63
				c-0.79,0-1.89-0.31-1.89-1.26c0-0.63,0.79-0.94,2.36-0.94c8.19,0,15.43,0.47,17.01,0.47c1.1,0,8.03-0.47,15.43-0.47
				c1.89,0,2.2,0.63,2.2,1.1c0,0.94-0.94,1.26-2.2,1.26c-1.1,0-3.3,0-5.04,0.63c-1.42,0.47-1.58,1.73-1.58,3.31
				c0,1.73,1.26,6.14,2.68,12.12c2.05,8.51,15.59,55.27,17.95,62.83l29.13-74.01c2.2-5.98,2.99-6.77,3.78-6.77
				c1.1,0,1.89,1.89,3.78,6.93l27.87,74.01c3.78-12.91,17.01-52.91,21.26-68.5c1.1-4.09,1.26-4.88,1.26-6.61
				c0-2.36-0.79-4.09-7.56-4.09c-1.42,0-2.05-0.63-2.05-1.26c0-0.63,0.63-0.94,2.36-0.94c5.83,0,12.12,0.47,13.23,0.47
				c0.95,0,8.66-0.47,12.91-0.47c1.26,0,1.89,0.47,1.89,0.94c0,0.79-0.79,1.26-2.05,1.26c-0.48,0-2.52,0.16-4.09,0.47
				c-4.73,1.1-6.3,7.71-8.82,14.8c-6.14,17.01-20.16,59.21-24.88,72.28c-4.09,11.02-5.2,13.23-6.46,13.23
				c-1.58,0-2.52-2.2-4.57-8.03l-27.08-71.8c-5.04,12.28-24.09,59.84-28.82,71.8c-2.36,6.14-3.47,8.03-4.88,8.03
				c-1.57,0-2.36-2.05-5.51-11.97L1352.85,83.16z"/>
			<path class="st0" d="M1570.96,97.65c0-24.57,0-28.97-0.31-34.01c-0.31-5.35-1.58-7.87-6.77-8.98c-0.94-0.16-2.52-0.16-3.94-0.31
				c-1.41-0.16-2.68-0.32-2.68-1.1c0-0.94,0.79-1.26,2.52-1.26c6.14,0,12.12,0.47,17.79,0.47c3.15,0,35.12,0,38.74-0.16
				c3.62-0.16,6.46-0.16,7.72-0.94c0.47-0.32,1.1-0.63,1.42-0.63c0.63,0,0.94,0.63,0.94,1.42c0,0.79-0.63,2.99-0.94,4.88
				c-0.63,4.57-0.63,7.09-0.95,11.5c0,1.89-0.79,3.15-1.41,3.15c-0.79,0-0.95-0.63-1.1-2.05c-0.16-2.2-0.79-5.98-2.99-7.87
				c-1.89-1.58-4.73-2.83-9.29-2.99c-8.03-0.16-16.06-0.31-24.09-0.47c-0.94,0-1.42,0.47-1.42,1.73v43.46c0,0.94,0.16,1.42,1.1,1.42
				c6.46,0,15.43,0,21.89-0.16c8.35-0.16,10.39-0.32,12.6-2.99c0.79-0.94,1.1-1.58,1.73-1.58c0.63,0,0.79,0.48,0.79,1.26
				c0,0.94-0.79,3.62-1.26,8.82c-0.47,4.73-0.47,8.51-0.63,10.87c-0.16,1.73-0.31,2.68-1.1,2.68c-0.95,0-1.1-1.1-1.26-2.68
				c-0.31-3.47-0.79-8.98-8.97-10.08c-3.94-0.48-21.1-0.48-23.78-0.48c-0.79,0-1.1,0.32-1.1,1.42v13.39c0,13.38,0,24.56,0.48,31.81
				c0.47,7.08,2.2,10.55,6.46,11.02c2.05,0.31,4.72,0.47,6.46,0.63c1.42,0.16,1.89,0.48,1.89,1.1c0,0.79-0.79,1.1-2.52,1.1
				c-8.82,0-18.58-0.47-19.37-0.47h-1.42c-3.15,0.16-10.23,0.47-14.01,0.47c-1.73,0-2.52-0.31-2.52-1.26c0-0.47,0.31-0.79,1.73-0.95
				c1.58-0.16,2.99-0.31,4.09-0.63c3.31-0.94,4.41-3.31,4.88-10.24c0.47-6.77,0.63-17.79,0.63-32.59V97.65z"/>
			<path class="st0" d="M1660.57,108.51c0-20.78,0-24.56-0.31-28.82c-0.31-4.25-1.26-6.61-4.57-7.24c-1.58-0.32-2.68-0.32-3.62-0.47
				c-1.1-0.16-1.73-0.47-1.73-1.1c0-0.79,0.63-1.1,2.36-1.1c4.88,0,13.86,0.47,14.33,0.47c0.63,0,9.76-0.47,14.17-0.47
				c1.58,0,2.36,0.31,2.36,1.1c0,0.63-0.47,0.94-1.73,1.1c-0.95,0.16-1.73,0.16-2.84,0.32c-4.57,0.63-5.04,2.99-5.35,7.56
				c-0.32,4.25-0.16,7.87-0.16,28.66v23.62c0,12.12-0.16,23.15,0.63,28.82c0.63,4.57,1.26,6.3,5.35,7.24
				c2.05,0.47,5.35,0.63,5.98,0.63c1.42,0.16,1.73,0.48,1.73,1.1s-0.63,1.1-2.2,1.1c-8.03,0-17.16-0.47-17.95-0.47
				c-0.47,0-9.76,0.47-14.17,0.47c-1.41,0-2.52-0.31-2.52-1.1c0-0.63,0.63-1.1,2.05-1.1c0.79,0,2.52-0.16,3.78-0.47
				c2.68-0.63,3.15-3.78,3.62-7.56c0.79-5.67,0.79-16.85,0.79-28.66V108.51z"/>
			<path class="st0" d="M1722.46,108.51c0-20.78,0-24.56-0.31-28.82c-0.31-4.25-1.42-6.61-6.3-7.56c-0.95-0.16-2.52-0.31-3.78-0.31
				c-1.1,0-1.73-0.31-1.73-0.94s0.47-1.1,1.89-1.1c6.77,0,16.38,0.47,16.69,0.47c1.42,0,12.12-0.47,16.54-0.47
				c8.82,0,18.42,0.79,25.82,5.98c2.99,2.2,9.45,8.5,9.45,19.21c0,8.66-4.25,19.69-16.69,29.76c11.5,14.17,20.94,25.82,28.97,34.17
				c7.56,7.72,12.28,8.98,16.69,9.61c1.1,0.16,4.41,0.31,4.88,0.31c1.26,0,1.73,0.48,1.73,1.1c0,0.79-0.63,1.1-2.84,1.1h-11.02
				c-7.4,0-10.87-0.47-14.33-1.89c-6.62-2.84-11.34-9.92-19.53-20.47c-6.14-7.56-12.44-16.06-15.11-19.37
				c-0.63-0.63-0.95-0.95-1.89-0.95l-16.22-0.16c-0.63,0-0.79,0.16-0.79,0.79v2.2c0,12.6,0,24.09,0.79,29.76
				c0.47,3.78,0.94,6.93,6.14,7.56c1.57,0.16,3.3,0.31,4.57,0.31c1.42,0,2.05,0.48,2.05,0.95c0,0.79-0.63,1.26-2.2,1.26
				c-8.19,0-17.01-0.47-17.64-0.47c-2.52,0-9.45,0.47-13.7,0.47c-1.57,0-2.2-0.31-2.2-1.26c0-0.47,0.95-0.95,1.89-0.95
				c1.1,0,2.2,0,3.47-0.31c2.68-0.47,3.62-2.2,4.09-5.98c0.79-5.67,0.63-18.58,0.63-30.39V108.51z M1734.59,119.69
				c0,0.79,0.16,1.58,0.79,1.89c2.05,1.1,8.35,2.05,14.01,2.05c3.3,0,7.24-0.16,10.55-2.36c4.72-2.99,7.87-9.92,7.87-20
				c0-17.17-9.13-26.61-23.15-26.61c-3.94,0-7.24,0.31-9.13,0.79c-0.48,0.16-0.95,0.63-0.95,1.42V119.69z"/>
			<path class="st0" d="M1945.28,153.71c0.47,3.78,0.7,12.39,6.84,13.81c1.33,0.3,1.99,0.15,4.19,0.3c0.63,0,2.05,0.16,2.05,0.95
				c0,0.79-0.63,1.26-2.36,1.26c-2.83,0-15.27,0.15-20.32,0.06c-5.36-0.1-4.72-0.63-4.72-1.42c0-0.47,0.63-1.1,1.41-1.41
				c0.79-0.32,1.26-2.2,0.95-4.41l-6.93-67.39L1893,163.16c-2.99,6.14-3.47,7.56-4.88,7.56c-0.94,0-1.73-1.41-4.72-6.77
				c-2.52-4.57-15.12-29.76-16.06-31.18c-0.94-1.89-16.38-32.44-17.64-35.75l-5.83,60.62c-0.16,2.2-0.16,3.62-0.16,5.98
				c0,1.73,0.79,4.09,3.94,4.72c1.73,0.31,2.84,0.31,4.41,0.47c1.26,0.16,1.58,0.63,1.58,0.95c0,1.1-0.94,1.26-2.68,1.26
				c-5.04,0-11.78-0.21-13.04-0.21c-1.57,0-9.22,0.21-13.16,0.21c-1.41,0-1.36-0.16-1.36-1.26c0-0.31,0.63-0.95,2.05-0.95
				c1.1,0,1.26,0,2.99-0.16c3.78-0.31,5.19-4.09,5.98-10.39l10.55-86.45c0.31-2.68,0.94-3.94,1.73-3.94c0.79,0,1.26,0.47,2.36,2.52
				l42.2,81.72l40.15-81.57c0.79-1.73,1.41-2.68,2.36-2.68c0.94,0,1.42,1.42,1.58,3.94L1945.28,153.71z"/>
		</g>
	</g>
	<rect id="Upper_Text_Bar_1_" x="305.59" y="2.5" class="st1" width="1653.09" height="14.16"/>
</g>
</svg>
