<?xml version="1.0" encoding="utf-8"?>
<!-- Generator: Adobe Illustrator 23.0.6, SVG Export Plug-In . SVG Version: 6.00 Build 0)  -->
<svg version="1.1" id="Layer_1" xmlns="http://www.w3.org/2000/svg" xmlns:xlink="http://www.w3.org/1999/xlink" x="0px" y="0px"
	 viewBox="0 0 70.5 40.5" style="enable-background:new 0 0 70.5 40.5;" xml:space="preserve">
<style type="text/css">
	.st0{fill:#072C72;}
</style>
<path class="st0" d="M17,22.5C17,22.5,17,22.5,17,22.5l-9.7-1.1c-0.3,0-0.5-0.3-0.5-0.6c0-0.3,0.3-0.5,0.6-0.5l9.7,1.1
	c0.3,0,0.5,0.3,0.5,0.6C17.5,22.3,17.3,22.5,17,22.5z"/>
<path class="st0" d="M53.7,22.5c-0.3,0-0.5-0.2-0.5-0.5c0-0.3,0.2-0.5,0.5-0.6l9.7-1.1c0.3,0,0.5,0.2,0.6,0.5c0,0.3-0.2,0.5-0.5,0.6
	L53.7,22.5C53.8,22.5,53.8,22.5,53.7,22.5z"/>
<path class="st0" d="M70.1,12.4l-0.6-2.1c-0.3-0.9-1.3-1.7-2.3-1.7h-6.7l-1-1.4c0,0,0,0,0,0c0,0,0,0,0,0l-3.6-5
	c-0.7-0.8-1.6-1.2-2.7-1.3c-13.5-0.8-22.5-0.8-35.5,0c-1.1,0.1-2,0.6-2.7,1.4l-3.5,5c0,0,0,0,0,0c0,0,0,0,0,0l-1,1.4H3.6
	c-1,0-2.1,0.7-2.3,1.7l-0.6,2.1c-0.2,0.5,0.1,0.9,0.7,1.1l3.3,1.3l-1.1,1.2C2.5,17.4,2,19,2,21v17.4c0,1,0.9,1.8,2,1.8h8.9
	c1.1,0,2-0.8,2-1.8l0-2.5c12.3,0.6,28.2,0.6,40.9,0l0,2.5c0,1,0.9,1.8,2,1.8h8.9c1.1,0,2-0.8,2-1.8l0-17.4c0-2-0.5-3.6-1.6-4.8
	L66,14.9l3.3-1.3C70,13.3,70.2,13,70.1,12.4z M15.7,2.9c0.5-0.6,1.2-0.9,2-1c12.9-0.8,21.8-0.8,35.3,0c0.8,0.1,1.5,0.4,2,1l3.5,5
	c0.6,1,0.7,1.8,0.7,2.6c0,1.7-1.5,2.3-2.9,2.4c-13.7,0.6-28.2,0.6-41.9,0c-1.3-0.1-2.9-0.7-2.9-2.4c0-0.8,0.1-1.6,0.7-2.6L15.7,2.9z
	 M12.9,39.3H4c-0.5,0-1-0.4-1-0.8l0-3.2c2.2,0.1,4.4,0.3,6.5,0.4c1.5,0.1,2.9,0.2,4.4,0.3l0,2.6C13.9,38.9,13.4,39.3,12.9,39.3z
	 M17.2,35l1.9-4.3c0.3-0.6,0.8-1.2,1.7-1.1c11.2,1,18,1,29.2,0c0.9-0.1,1.4,0.5,1.7,1.1l1.9,4.3C42.1,35.5,28.4,35.5,17.2,35z
	 M66.8,39.3h-8.9c-0.5,0-1-0.4-1-0.8l0-2.6c1.4-0.1,2.9-0.2,4.4-0.3c2.1-0.1,4.3-0.3,6.5-0.4v3.2C67.7,38.9,67.3,39.3,66.8,39.3z
	 M69,12.6l-4.7,1.9l2.1,2.3c0.9,1,1.3,2.4,1.3,4.1v13.2c-2.2,0.1-4.4,0.3-6.6,0.4c-1.5,0.1-2.9,0.2-4.3,0.3l0,0l-0.5,0
	c-0.5,0-1.1,0.1-1.6,0.1c0,0,0,0,0-0.1l-2.1-4.7c-0.3-0.4-1-1.8-2.7-1.6c-11.1,1-17.9,1-29,0c-1.7-0.2-2.4,1.2-2.7,1.7l-2.1,4.6
	c0,0,0,0.1,0,0.1c-0.5,0-1.1,0-1.6-0.1l-0.1,0c-1.6-0.1-3.2-0.2-4.8-0.3c-2.2-0.1-4.4-0.3-6.6-0.4L3,21c0-1.7,0.4-3.1,1.3-4.1
	l2.1-2.3l-4.7-1.9c0,0-0.1,0-0.1,0l0.6-2c0.1-0.5,0.8-0.9,1.3-0.9h6.9c0,0.3,0,0.5,0,0.8c0,1.9,1.5,3.3,3.9,3.4
	c6.9,0.3,13.9,0.5,21,0.5c7.1,0,14.1-0.2,21-0.5c2.3-0.1,3.9-1.5,3.9-3.4c0-0.3,0-0.5,0-0.8h6.9c0.6,0,1.2,0.4,1.3,0.9L69,12.6
	C69,12.6,69,12.6,69,12.6z"/>
</svg>
