<?xml version="1.0" encoding="utf-8"?>
<!-- Generator: Adobe Illustrator 23.0.6, SVG Export Plug-In . SVG Version: 6.00 Build 0)  -->
<svg version="1.1" id="Layer_1" xmlns="http://www.w3.org/2000/svg" xmlns:xlink="http://www.w3.org/1999/xlink" x="0px" y="0px"
	 viewBox="0 0 77 80" style="enable-background:new 0 0 77 80;" xml:space="preserve">
<style type="text/css">
	.st0{fill:#072C72;}
</style>
<g>
	<g>
		<g>
			<path class="st0" d="M59.6,61c-0.5,0-0.9-0.2-1.2-0.6C55.3,56.9,41.6,41.6,40.9,41l-0.1-0.1c-0.6-0.7-0.8-0.6-1.1-0.4
				c-3.8,2.2-10.4,5.5-10.5,5.5c-3.7,2.3-5.4,0.5-5.8-0.1c-1.1-1.5-0.7-3.9,0.8-5.2l0,0c1.6-1.3,3.2-2.6,5.1-3.8
				c2.6-1.8,5.2-3.5,7.7-5c2.1-1.3,4.5-2.8,7.6-2.3c2,0.3,3.5,1.2,5.1,2.2c0.5,0.3,1,0.6,1.4,1c0.9,0.6,1.7,1.2,2.6,1.4
				c1.1,0.3,1.8,0,2.8-0.7c0.4-0.2,0.8-0.3,1.2-0.2c0.3,0.1,0.6,0.4,0.7,0.7c3.6,7.1,7.4,14.2,8.7,16.6c0.5,0.7,0.5,1.7,0,2.6
				c-1.8,3.1-5,5.9-6.5,7.2C60.3,60.9,60,61,59.6,61z M42,39.9c1.2,1.2,15.3,16.9,17.6,19.5c0,0.1,0.1,0,0.2,0
				c1.5-1.1,4.4-3.9,6.1-6.7c0.1-0.3,0.3-0.7,0-1.1c-1.3-2.5-5-9.5-8.6-16.6c-1,0.7-2.2,1.2-3.8,0.8c-1.2-0.3-2.2-1-3.1-1.7
				c-0.5-0.3-0.9-0.6-1.3-0.9c-1.6-1-2.9-1.7-4.5-2c-2.3-0.4-4.2,0.7-6.6,2.1c-2.5,1.5-5.1,3.1-7.7,5c-1.8,1.1-3.4,2.4-5,3.7
				c-0.9,0.7-1.1,2.3-0.5,3.1c0.6,0.9,2,0.7,3.8-0.4c0.1-0.1,6.7-3.3,10.4-5.5C40.5,38.2,41.6,39.4,42,39.9z"/>
			<path class="st0" d="M29.3,75.9c-0.1,0-0.2,0-0.3,0c-0.9-0.1-1.8-0.6-2.4-1.4l0,0c-1.1-1.5-0.9-3.8,0.5-5.2l5.5-5
				c0.7-0.6,1.7-1,2.6-0.9c0.9,0.1,1.7,0.6,2.3,1.4c1.1,1.5,0.9,3.8-0.5,5.2l-5.5,5C30.9,75.6,30.1,75.9,29.3,75.9z M27.9,73.6
				c0.3,0.4,0.8,0.7,1.3,0.8c0.5,0,0.9-0.1,1.3-0.5l5.5-5c0.8-0.8,1-2.3,0.3-3.2c-0.3-0.4-0.7-0.7-1.2-0.8c-0.5-0.1-1,0.1-1.4,0.5
				l-5.5,5C27.4,71.3,27.3,72.7,27.9,73.6z"/>
			<path class="st0" d="M23.7,70.7c-0.1,0-0.2,0-0.3,0c-0.9-0.1-1.8-0.6-2.4-1.3l0,0c-1.1-1.5-0.9-3.8,0.5-5.2l4.4-4
				c0.7-0.6,1.7-1,2.6-0.9c0.9,0.1,1.7,0.6,2.3,1.4c1.1,1.5,0.9,3.8-0.5,5.2l-4.4,4C25.2,70.4,24.5,70.7,23.7,70.7z M22.2,68.4
				c0.3,0.4,0.8,0.7,1.3,0.7c0.5,0,0.9-0.1,1.3-0.4l4.4-4c0.8-0.8,1-2.3,0.3-3.2c-0.3-0.4-0.7-0.7-1.2-0.8c-0.5-0.1-1,0.1-1.4,0.5
				l-4.4,4C21.7,66.1,21.5,67.6,22.2,68.4z"/>
			<path class="st0" d="M18.8,64.4c-0.3,0-0.5,0-0.7-0.1c-0.9-0.2-1.6-0.7-2.2-1.5c-1.2-1.8-1-3.9,0.5-5.2l1.4-1
				c0.7-0.6,1.7-0.9,2.6-0.8c0.9,0.1,1.8,0.6,2.3,1.4l0.2,0.2c1.1,1.7,0.8,3.9-0.7,5.2L21,63.6C20.3,64.1,19.5,64.4,18.8,64.4z
				 M19.9,57.4c-0.4,0-0.9,0.2-1.2,0.5l-1.4,1c-0.9,0.8-0.7,2.2-0.1,3.1l0,0c0.3,0.4,0.7,0.7,1.1,0.8c0.5,0.1,1.1,0,1.7-0.4l1.1-1
				c0.9-0.8,1-2,0.4-3l-0.1-0.1c-0.3-0.4-0.8-0.7-1.3-0.8C20.1,57.4,20,57.4,19.9,57.4z"/>
			<path class="st0" d="M36.7,79.8c-0.1,0-0.2,0-0.4,0c-0.9-0.1-1.7-0.6-2.3-1.3c-1.1-1.6-0.9-4,0.5-5.2l2.5-2.4
				c0.8-0.7,1.7-0.9,2.6-0.8c0.9,0.1,1.7,0.6,2.3,1.3c1.1,1.5,0.9,3.8-0.4,5.3L38.9,79C38.3,79.5,37.5,79.8,36.7,79.8z M39.3,71.5
				c-0.4,0-0.8,0.2-1.2,0.5l-2.5,2.4c-0.8,0.8-1,2.2-0.3,3.2c0.3,0.4,0.7,0.6,1.2,0.7c0.5,0.1,1-0.1,1.4-0.5l2.5-2.3
				c0.8-0.9,1-2.4,0.3-3.3h0c-0.3-0.4-0.7-0.7-1.2-0.7C39.4,71.5,39.4,71.5,39.3,71.5z"/>
			<path class="st0" d="M70.8,52.1c-0.8,0-1.6-0.5-2-1.3l-9.5-18.4c-0.6-1.2-0.3-2.4,0.8-3l4-2.1c1.2-0.5,2.4,0,2.9,1.1l9.5,18.4
				c0.6,1.2,0.3,2.4-0.8,3l-4,2.1C71.5,52,71.1,52.1,70.8,52.1z M65,28.6c-0.1,0-0.2,0-0.2,0.1l-3.9,2.1c-0.5,0.3-0.3,0.8-0.2,1
				L70.2,50c0.2,0.4,0.6,0.6,0.9,0.4l3.9-2.1c0.5-0.3,0.3-0.8,0.2-1l-9.5-18.4C65.6,28.7,65.3,28.6,65,28.6z"/>
		</g>
		<path class="st0" d="M6,52.2c-0.2,0-0.4,0-0.6-0.1l-4-1.4c-0.4-0.1-0.8-0.5-1.1-0.9c-0.3-0.6-0.3-1.3-0.1-1.9l7.3-19.4
			c0.4-1.2,1.6-1.8,2.7-1.5l4,1.4c0.4,0.1,0.8,0.5,1,0.9c0.3,0.6,0.3,1.3,0.1,2L8.1,50.7C7.8,51.6,6.9,52.2,6,52.2z M9.7,28.4
			c-0.2,0-0.5,0.2-0.7,0.6L1.7,48.4c-0.1,0.2-0.1,0.5,0,0.7c0,0.1,0.1,0.2,0.2,0.2l4,1.4c0.2,0.1,0.6-0.1,0.7-0.5l7.2-19.4
			c0.1-0.3,0.1-0.6,0-0.8c0-0.1-0.1-0.1-0.1-0.1L9.7,28.4C9.7,28.4,9.7,28.4,9.7,28.4z"/>
		<path class="st0" d="M62,63.4L62,63.4c0,0.5-1.4,1.8-1.7,2.2c-0.6,0.6-1.3,1-2,1c-0.8,0-1.6-0.4-2.2-1l-7.2-8.3
			c-0.1-0.2-0.3-0.2-0.5-0.2c-0.7,0-1.4,1.1-0.8,1.8l5.9,6.6c1.1,1.3,1.2,3.3,0,4.6C53,70.7,52.3,71,51.7,71c-0.8,0-1.5-0.4-2.1-1.1
			l-6.8-7.6c-0.2-0.2-0.3-0.3-0.5-0.3c-0.6,0-1.3,1.1-0.6,1.8l5.2,6c1.1,1.3,1,3.2-0.1,4.5c-0.5,0.6-1.1,0.8-1.7,0.8
			c-0.4,0-0.7-0.1-1.1-0.3l0,0c-0.2,0.6-0.5,1.1-0.9,1.6l0,0c0.6,0.4,1.3,0.6,2,0.6c1.1,0,2.2-0.5,3-1.4c0.8-1,1.3-2.2,1.3-3.4l0,0
			c0.7,0.4,1.5,0.7,2.3,0.7c1.2,0,2.3-0.5,3.1-1.5s1.3-2.2,1.3-3.4l0,0c0.6,0.4,1.4,0.5,2.1,0.5c1.3,0,2.6-0.8,3.5-1.7
			c0.9-1,2.1-2.5,2.3-3.3c0.1-0.4,0.1-0.6,0-0.9c-0.1-0.2-0.6-0.8-0.9-1c-0.3-0.3-0.7-0.3-1,0l-0.5,0.5c-0.2,0.2-0.3,0.6-0.1,0.8
			L62,63.4z"/>
		<path class="st0" d="M15.8,56.1c-2.6-2.6-4-4-4.4-4.5c-0.1-0.1-0.1-0.2-0.1-0.3c2.8-7.2,5.9-15.6,6.7-17.7
			c0.1-0.2,0.4-0.3,0.5-0.1c0.9,0.9,1.6,1.2,1.9,1.4c1.1,0.5,2.4,0.4,2.6,0.4c2-0.2,3.9-1.4,5.7-2.4c1.2-0.7,2.7-1.4,4.1-1.4
			c0.6,0,1.2,0.1,1.8,0.5c0.1,0.1,0.2,0,0.3,0c0.4-0.2,0.7-0.4,1.1-0.6c0.2-0.1,0.2-0.4,0-0.5l0,0c-0.9-0.7-2-1.1-3.2-1.1
			c-1.9,0-3.7,0.9-4.9,1.6l-0.5,0.3c-1.5,0.9-3.1,1.8-4.6,1.9c-0.1,0-1.3,0.2-1.8-0.2c-0.2-0.2-2-1.7-2.5-1.8c-0.1,0-0.2,0-0.4,0
			c-0.7,0-1.3,0.4-1.6,1.2c0,0.1-3.7,10.1-6.9,18.3c-0.2,0.6-0.1,1.3,0.3,1.8c0.1,0.1,1.4,1.4,4.6,4.7c0.1,0.1,0.3,0,0.5-0.1
			c0.2-0.2,0.6-0.6,0.8-0.8C16,56.4,15.9,56.2,15.8,56.1z"/>
	</g>
</g>
<path class="st0" d="M42.2,21.3c0-0.8-0.3-1.4-0.8-1.9c-0.5-0.5-1.4-1.1-2.7-1.5c-1.8-0.5-3-1.2-4-2.2c-1-0.8-1.4-2.1-1.4-3.6
	c0-1.4,0.4-2.6,1.2-3.4c0.8-1,1.9-1.4,3.4-1.6V4.2h2.1v2.9c1.4,0.1,2.6,0.8,3.4,1.8s1.1,2.3,1.1,4H42c0-1.1-0.3-1.9-0.8-2.6
	S39.8,9.1,39,9.1c-1,0-1.8,0.3-2.3,0.8c-0.5,0.5-0.8,1.2-0.8,2.2c0,0.8,0.3,1.5,0.8,2.1c0.5,0.5,1.5,1,2.9,1.5
	c1.8,0.5,3.1,1.2,4,2.2c1,1,1.2,2.1,1.2,3.4c0,1.5-0.4,2.6-1.4,3.6c-1,1-2.2,1.4-3.7,1.6V29h-2.1v-2.5c-1.5-0.1-2.7-0.7-3.7-1.6
	c-1-1-1.4-2.3-1.4-4.1v-0.1H35c0,1.4,0.4,2.3,1,2.9c0.7,0.5,1.5,1,2.5,1c1.1,0,1.9-0.3,2.6-0.8C41.8,23.1,42.2,22.3,42.2,21.3z"/>
</svg>
