<?xml version="1.0" encoding="utf-8"?>
<!-- Generator: Adobe Illustrator 23.0.6, SVG Export Plug-In . SVG Version: 6.00 Build 0)  -->
<svg version="1.1" id="new" xmlns="http://www.w3.org/2000/svg" xmlns:xlink="http://www.w3.org/1999/xlink" x="0px" y="0px"
	 viewBox="0 0 81 53" style="enable-background:new 0 0 81 53;" xml:space="preserve">
<style type="text/css">
	.st0{fill:#072C72;}
</style>
<g>
	<path class="st0" d="M12.2,47.2c-0.7,0-1.3-0.4-1.5-1.1L3.7,19.8C3.6,19,4.1,18.2,4.8,18l0,0L63,2.4c0.8-0.2,1.6,0.2,1.9,1.1
		l7,26.2c0.2,0.8-0.2,1.6-1.1,1.9L12.6,47.1C12.5,47.2,12.4,47.2,12.2,47.2z M12.2,45.5C12.2,45.5,12.2,45.5,12.2,45.5L12.2,45.5z
		 M5.5,19.6l6.9,25.8l57.7-15.5L63.2,4.1L5.5,19.6z M70.2,30.1C70.2,30.1,70.2,30.1,70.2,30.1L70.2,30.1z M63.5,4.1L63.5,4.1
		C63.5,4.1,63.5,4.1,63.5,4.1z"/>
	<path class="st0" d="M17.8,41.7l-0.2-0.9c-0.2-0.8-0.7-1.5-1.5-1.9c-0.7-0.4-1.6-0.5-2.4-0.3l-0.9,0.2L9.2,25.1l0.9-0.2
		c0.8-0.2,1.5-0.7,1.9-1.5c0.4-0.7,0.5-1.6,0.3-2.4L12,20.1L27.4,16c0.5-0.1,0.9,0.2,1.1,0.6c0.1,0.5-0.2,0.9-0.6,1.1l-13.7,3.7
		c0.1,1-0.1,2-0.6,2.9c-0.5,0.9-1.3,1.6-2.2,2l2.8,10.5c1-0.1,2,0.1,2.9,0.6c0.9,0.5,1.6,1.3,2,2.2l13.7-3.6
		c0.5-0.1,0.9,0.2,1.1,0.6c0.1,0.5-0.2,0.9-0.6,1.1L17.8,41.7z M47.7,33.6c-0.4,0-0.7-0.3-0.8-0.6c-0.1-0.5,0.2-0.9,0.6-1.1l14-3.7
		c-0.1-1,0.1-2,0.6-2.9c0.5-0.9,1.3-1.6,2.2-2l-2.8-10.5c-1,0.1-2-0.1-2.9-0.6c-0.9-0.5-1.6-1.3-2-2.2l-14.1,3.8
		c-0.5,0.1-0.9-0.2-1.1-0.6c-0.1-0.5,0.2-0.9,0.6-1.1l15.8-4.2L58,8.7c0.2,0.8,0.7,1.5,1.5,1.9c0.7,0.4,1.6,0.5,2.4,0.3l0.9-0.2
		l3.7,13.7l-0.8,0.2c-0.8,0.2-1.5,0.8-1.9,1.5c-0.4,0.7-0.5,1.6-0.3,2.4l0.2,0.9l-15.7,4.2C47.9,33.6,47.8,33.6,47.7,33.6z"/>
	<path class="st0" d="M37.8,35.9c-1.9,0-3.8-0.5-5.6-1.5c-2.6-1.5-4.4-3.9-5.2-6.7c-1.6-5.9,2-12,7.9-13.6l0,0
		c5.9-1.6,12,2,13.6,7.9c1.6,5.9-2,12-7.9,13.6C39.7,35.8,38.8,35.9,37.8,35.9z M35.4,15.7c-5,1.3-7.9,6.5-6.6,11.5
		c0.6,2.4,2.2,4.4,4.4,5.7c2.2,1.3,4.7,1.6,7.1,0.9c5-1.3,8-6.5,6.6-11.5C45.5,17.4,40.4,14.4,35.4,15.7L35.4,15.7z"/>
	<path class="st0" d="M38.5,30.4C38.5,30.4,38.5,30.4,38.5,30.4c-1.5,0-2.8-1-3.3-2.7c-0.1-0.5,0.1-1,0.6-1.1c0.5-0.1,1,0.1,1.1,0.6
		c0.3,1,0.9,1.5,1.6,1.5c0,0,0,0,0,0c0.6,0,1.2-0.4,1.4-1c0.1-0.3,0.1-0.5,0-0.8c-0.3-0.8-1-1-2.3-1.3c-1.1-0.3-2.4-0.6-3.1-1.9
		c-0.5-1-0.6-2.1-0.2-3c0.4-0.8,1.1-1.4,2-1.7c2.1-0.6,3.5,1.5,3.9,2.6c0.2,0.5-0.1,1-0.6,1.1c-0.5,0.2-1-0.1-1.1-0.6
		s-0.9-1.7-1.7-1.5c-0.4,0.1-0.7,0.4-0.8,0.7c-0.2,0.4-0.1,1,0.1,1.5c0.2,0.5,0.9,0.7,1.9,0.9c1.3,0.3,2.9,0.7,3.5,2.5
		c0.2,0.7,0.2,1.3-0.1,1.9C41.2,29.5,39.9,30.4,38.5,30.4z"/>
	<path class="st0" d="M36.5,20.8c-0.4,0-0.7-0.3-0.8-0.6l-0.4-1.6c-0.1-0.5,0.1-0.9,0.6-1.1c0.5-0.1,0.9,0.1,1.1,0.6l0.4,1.6
		c0.1,0.5-0.1,0.9-0.6,1.1C36.6,20.8,36.5,20.8,36.5,20.8z"/>
	<path class="st0" d="M39.5,32.2c-0.4,0-0.7-0.3-0.8-0.6l-0.5-1.7c-0.1-0.5,0.1-0.9,0.6-1.1c0.5-0.1,0.9,0.1,1.1,0.6l0.5,1.7
		c0.1,0.5-0.1,0.9-0.6,1.1C39.7,32.2,39.6,32.2,39.5,32.2z"/>
	<path class="st0" d="M16.3,49.5c-0.2,0-0.5-0.1-0.7-0.2c-0.4-0.2-0.6-0.6-0.8-1l-0.7-2.4c-0.1-0.5,0.1-0.9,0.6-1.1
		c0.5-0.1,0.9,0.1,1.1,0.6l0.6,2.3l58.1-14.2L68.2,7.7l-2.9,0.7c-0.5,0.1-0.9-0.2-1.1-0.6c-0.1-0.5,0.2-0.9,0.6-1.1L68,5.9
		c0.8-0.2,1.6,0.3,1.9,1.1l6.5,26.3c0.1,0.3,0.1,0.7-0.1,1.1c-0.2,0.4-0.6,0.6-1,0.8L16.6,49.5C16.5,49.5,16.4,49.5,16.3,49.5z
		 M16.2,47.8C16.2,47.8,16.2,47.8,16.2,47.8L16.2,47.8z M74.6,33.8C74.6,33.8,74.6,33.8,74.6,33.8L74.6,33.8z M68.4,7.6L68.4,7.6
		C68.4,7.6,68.4,7.6,68.4,7.6z"/>
</g>
</svg>
