<?xml version="1.0" encoding="utf-8"?>
<!-- Generator: Adobe Illustrator 23.0.3, SVG Export Plug-In . SVG Version: 6.00 Build 0)  -->
<svg version="1.1" id="Layer_1" xmlns="http://www.w3.org/2000/svg" xmlns:xlink="http://www.w3.org/1999/xlink" x="0px" y="0px"
	 viewBox="0 0 67.6 55.5" style="enable-background:new 0 0 67.6 55.5;" xml:space="preserve">
<style type="text/css">
	.st0{fill:none;stroke:#072C72;stroke-width:1.65;stroke-linecap:round;stroke-miterlimit:10;}
</style>
<g>
	<path class="st0" d="M66.7,17.3v34c0,1.8-1.4,3.2-3.2,3.2H4.2c-1.8,0-3.2-1.4-3.2-3.2v-34"/>
	<g>
		<g>
			<path class="st0" d="M12.2,7C12.1,7.4,12,7.8,12,8.2c0,1.7,1.4,3,3,3s3-1.4,3-3c0-0.4-0.1-0.8-0.2-1.2"/>
		</g>
		<line class="st0" x1="15" y1="8.1" x2="15" y2="1"/>
	</g>
	<g>
		<g>
			<path class="st0" d="M55.5,7c0.2,0.4,0.2,0.8,0.2,1.2c0,1.7-1.4,3-3,3c-1.7,0-3-1.4-3-3c0-0.4,0.1-0.8,0.2-1.2"/>
		</g>
		<line class="st0" x1="52.7" y1="8.1" x2="52.7" y2="1"/>
	</g>
	<line class="st0" x1="49.3" y1="2.9" x2="18.4" y2="2.9"/>
	<path class="st0" d="M11.7,2.9H4.2c-1.8,0-3.2,1.4-3.2,3.2v11.1h65.8V6.1c0-1.8-1.4-3.2-3.2-3.2H56"/>
	<g>
		<line class="st0" x1="19.6" y1="24.3" x2="19.6" y2="31.1"/>
		<line class="st0" x1="29.1" y1="24.3" x2="29.1" y2="31.1"/>
		<line class="st0" x1="38.6" y1="24.3" x2="38.6" y2="31.1"/>
		<line class="st0" x1="48.1" y1="24.3" x2="48.1" y2="31.1"/>
		<line class="st0" x1="19.6" y1="40.7" x2="19.6" y2="47.4"/>
		<line class="st0" x1="29.1" y1="40.7" x2="29.1" y2="47.4"/>
		<line class="st0" x1="38.6" y1="40.7" x2="38.6" y2="47.4"/>
		<line class="st0" x1="48.1" y1="40.7" x2="48.1" y2="47.4"/>
	</g>
	<line class="st0" x1="14.2" y1="35.9" x2="53.5" y2="35.9"/>
	<line class="st0" x1="45.2" y1="8.4" x2="22.5" y2="8.4"/>
</g>
</svg>
