<?xml version="1.0" encoding="utf-8"?>
<!-- Generator: Adobe Illustrator 23.0.6, SVG Export Plug-In . SVG Version: 6.00 Build 0)  -->
<svg version="1.1" id="Layer_1" xmlns="http://www.w3.org/2000/svg" xmlns:xlink="http://www.w3.org/1999/xlink" x="0px" y="0px"
	 viewBox="0 0 72.9 76" style="enable-background:new 0 0 72.9 76;" xml:space="preserve">
<style type="text/css">
	.st0{fill:#072C72;}
</style>
<g>
	<path class="st0" d="M61,52.3c-6.5,0-11.7,5.2-11.7,11.7H1.4c0,0-0.1,0-0.1,0l0,0l2.2-11.6c0.6-2.6,1.9-4.8,3.8-6.3
		c1.2-1,2.5-1.7,3.7-2l10.2-3l0.3-0.1l9,9.2c0,0,0,0,0,0c0,0,0,0,0,0c0,0,0.1,0,0.1,0.1c0,0,0,0,0.1,0c0.1,0,0.1,0,0.2,0
		c0.1,0,0.1,0,0.2,0c0,0,0,0,0.1,0c0,0,0.1,0,0.1-0.1c0,0,0,0,0,0c0,0,0,0,0,0l8.9-9.2c0.1,0,0.2,0.1,0.2,0.1c0,0,0.1,0,0.2,0.1
		l10.1,2.9c1.2,0.2,2.4,0.8,3.6,1.9c1.5,1.3,2.6,2.9,3.3,4.6c0.1,0.2,0.3,0.3,0.5,0.3c0.1,0,0.1,0,0.2,0c0.3-0.1,0.4-0.4,0.3-0.7
		c-0.7-1.9-1.9-3.6-3.5-5c-1.4-1.2-2.8-1.9-4.1-2.1L41,40c-0.1,0-0.2-0.1-0.3-0.1c0,0-0.1,0-0.1,0l-0.2-0.1
		c-0.3-0.2-0.6-0.6-0.8-1.3l-0.4-2.3c2.7-2.2,4.7-5.3,5.7-8.9c1.1-0.2,2.6-1.2,2.6-5.2c0-2.7-0.7-4.4-2.1-5c0-1.4-0.1-8.4-4.4-12.9
		c-2.5-2.6-5.9-3.9-10.2-3.9s-7.7,1.3-10.2,3.9c-4.3,4.5-4.5,11.3-4.5,12.8c-1.7,0.8-2,3-2,4.9c0,2.9,0.9,4.8,2.6,5.1
		c1,3.7,3.1,6.9,5.7,9l-0.4,2.4c-0.1,0.4-0.3,0.9-0.7,1.2l-0.3,0.2L10.8,43c-1.4,0.3-2.8,1.1-4.1,2.2c-2.1,1.7-3.5,4-4.2,6.9
		L0.3,63.6c-0.1,0.4,0,0.7,0.1,0.9C0.7,65,1.2,65,1.4,65h47.9c0.5,6,5.5,10.7,11.7,10.7c6.5,0,11.7-5.3,11.7-11.7S67.5,52.3,61,52.3
		z M21.4,4.9c2.3-2.4,5.5-3.6,9.5-3.6c4,0,7.1,1.2,9.4,3.6c1.6,1.6,2.5,3.6,3.1,5.5c-2.4,1.2-4.9,1.6-8.1,1.3
		c-2.3-0.3-4.2-1.2-6.3-2.2c-0.6-0.3-1.3-0.6-2-0.9c-2.6-1.1-4.8-1.3-6.5-0.7c-0.6,0.2-1.1,0.5-1.6,0.8C19.5,7.4,20.3,6.1,21.4,4.9z
		 M23.1,38.7l0.6-3l-0.3-0.2c-2.7-2-4.7-5.2-5.7-8.9l-0.1-0.3l-0.4,0c-1.8-0.2-2-2.7-2-4.2c0-2.5,0.5-3.8,1.6-4.1c0,0,0,0,0,0
		c0,0,0.1,0,0.1,0c0,0,0.1,0,0.1-0.1c0,0,0,0,0.1-0.1c0,0,0-0.1,0.1-0.1c0,0,0-0.1,0-0.1c0,0,0-0.1,0-0.1c0,0,0,0,0,0
		c0,0-0.1-2.8,0.8-6.1c0.1,0,0.1-0.1,0.1-0.2c0.5-1.1,1.5-1.9,2.7-2.2c1.5-0.5,3.5-0.3,5.8,0.7c0.7,0.3,1.3,0.6,2,0.9
		c2.1,1,4.1,2,6.6,2.3c0.7,0.1,1.4,0.1,2.1,0.1c2.4,0,4.4-0.5,6.4-1.4c0.8,3.2,0.7,5.9,0.7,5.9c0,0,0,0,0,0.1c0,0.2,0.1,0.5,0.4,0.5
		c1.1,0.3,1.7,1.7,1.7,4.1c0,1.5-0.3,4.1-2,4.2l-0.4,0l-0.1,0.4c-1,3.6-3,6.8-5.7,8.9l-0.2,0.2l0.6,3c0.2,0.6,0.4,1.1,0.7,1.4
		L30.9,49l-8.6-8.7C22.8,39.7,23,39.1,23.1,38.7z M61,74.7c-5.6,0-10.3-4.4-10.7-10c0-0.1,0.1-0.1,0.1-0.2c0-0.1,0-0.2-0.1-0.3
		c0-0.1,0-0.2,0-0.2c0-5.9,4.8-10.7,10.7-10.7S71.7,58.1,71.7,64S66.9,74.7,61,74.7z"/>
	<path class="st0" d="M63.1,67.4c0-0.5-0.2-0.9-0.5-1.3c-0.4-0.4-0.9-0.7-1.8-1c-1.2-0.4-2-0.8-2.6-1.4c-0.6-0.5-0.9-1.3-0.9-2.3
		c0-0.9,0.3-1.7,0.8-2.3c0.5-0.6,1.3-0.9,2.3-1.1v-1.9h1.4V58c0.9,0.1,1.7,0.5,2.3,1.2c0.5,0.6,0.7,1.5,0.7,2.6H63
		c0-0.7-0.2-1.3-0.5-1.7c-0.4-0.5-0.9-0.7-1.4-0.7c-0.6,0-1.2,0.2-1.5,0.5c-0.4,0.4-0.5,0.8-0.5,1.4c0,0.5,0.2,1,0.5,1.3
		c0.4,0.4,1,0.6,1.9,1c1.2,0.4,2.1,0.8,2.6,1.4c0.6,0.6,0.8,1.3,0.8,2.3c0,1-0.3,1.7-0.9,2.3c-0.6,0.6-1.4,0.9-2.4,1.1v1.6h-1.4
		v-1.6c-1-0.1-1.8-0.5-2.4-1.1c-0.6-0.6-0.9-1.5-0.9-2.7v-0.1h1.6c0,0.9,0.3,1.5,0.6,1.9c0.5,0.4,1,0.6,1.6,0.6
		c0.7,0,1.3-0.2,1.7-0.5C62.9,68.5,63.1,68,63.1,67.4z"/>
	<path class="st0" d="M6.3,62.3L6.3,62.3c-0.7,0-1.2-0.5-1.2-1.2v-3.7c0-0.7,0.5-1.2,1.2-1.2l0,0c0.7,0,1.2,0.5,1.2,1.2v3.7
		C7.5,61.8,7,62.3,6.3,62.3z"/>
	<path class="st0" d="M12,62.3L12,62.3c-0.6,0-1.2-0.5-1.2-1.2v-3.7c0-0.7,0.5-1.2,1.2-1.2l0,0c0.6,0,1.2,0.5,1.2,1.2v3.7
		C13.2,61.8,12.7,62.3,12,62.3z"/>
	<path class="st0" d="M17.7,62.3L17.7,62.3c-0.6,0-1.2-0.5-1.2-1.2v-3.7c0-0.7,0.5-1.2,1.2-1.2l0,0c0.7,0,1.2,0.5,1.2,1.2v3.7
		C18.9,61.8,18.4,62.3,17.7,62.3z"/>
	<path class="st0" d="M23.4,62.3L23.4,62.3c-0.6,0-1.2-0.5-1.2-1.2v-3.7c0-0.7,0.5-1.2,1.2-1.2l0,0c0.6,0,1.2,0.5,1.2,1.2v3.7
		C24.6,61.8,24.1,62.3,23.4,62.3z"/>
	<path class="st0" d="M29.1,62.3L29.1,62.3c-0.6,0-1.2-0.5-1.2-1.2v-3.7c0-0.7,0.5-1.2,1.2-1.2l0,0c0.7,0,1.2,0.5,1.2,1.2v3.7
		C30.3,61.8,29.8,62.3,29.1,62.3z"/>
	<path class="st0" d="M34.8,62.3L34.8,62.3c-0.7,0-1.2-0.5-1.2-1.2v-3.7c0-0.7,0.5-1.2,1.2-1.2l0,0c0.6,0,1.2,0.5,1.2,1.2v3.7
		C36,61.8,35.5,62.3,34.8,62.3z"/>
	<path class="st0" d="M40.5,62.3L40.5,62.3c-0.7,0-1.2-0.5-1.2-1.2v-3.7c0-0.7,0.5-1.2,1.2-1.2l0,0c0.6,0,1.2,0.5,1.2,1.2v3.7
		C41.7,61.8,41.1,62.3,40.5,62.3z"/>
	<path class="st0" d="M46.2,62.3L46.2,62.3c-0.7,0-1.2-0.5-1.2-1.2v-3.7c0-0.7,0.5-1.2,1.2-1.2l0,0c0.6,0,1.2,0.5,1.2,1.2v3.7
		C47.4,61.8,46.9,62.3,46.2,62.3z"/>
</g>
</svg>
