<?xml version="1.0" encoding="utf-8"?>
<!-- Generator: Adobe Illustrator 23.0.6, SVG Export Plug-In . SVG Version: 6.00 Build 0)  -->
<svg version="1.1" id="Layer_1" xmlns="http://www.w3.org/2000/svg" xmlns:xlink="http://www.w3.org/1999/xlink" x="0px" y="0px"
	 viewBox="0 0 70.5 67.5" style="enable-background:new 0 0 70.5 67.5;" xml:space="preserve">
<style type="text/css">
	.st0{fill:#072C72;}
</style>
<path class="st0" d="M62.8,66.9h-7c-1,0-1.8-0.8-1.8-1.8v-3c-0.7,0-1.5,0.1-2.2,0.1l0,0v0c-10.8,0.5-26,0.5-36.9-0.2l-0.1,3
	c0,1-0.9,1.8-1.9,1.8H5.8c-1.1,0-1.9-0.8-1.9-1.8V47.3c0-2,0.5-3.6,1.4-4.7l1.1-1.3l-3.1-1.3c-0.8-0.3-0.8-0.8-0.7-1.1l0.6-2.1
	C3.5,35.8,4.5,35,5.4,35h5.9l4.2-6.4c0.3-0.4,1.1-1.2,2.5-1.3c12-0.8,20.4-0.8,32.4,0c1.4,0.1,2.2,0.9,2.5,1.3l0.1,0.1l4.1,6.4h6.1
	c0.9,0,1.9,0.8,2.2,1.7l0.6,2.1c0.1,0.1,0.1,0.3,0,0.5c-0.1,0.3-0.4,0.5-0.7,0.6l-3.2,1.3l1.1,1.3c1,1.2,1.4,2.7,1.4,4.8v17.7
	C64.6,66.1,63.9,66.9,62.8,66.9z M55,61.9v3.1c0,0.4,0.4,0.8,0.8,0.8h7c0.5,0,0.8-0.4,0.8-0.8v-6.9l-2.5,3.3L55,61.9z M4.9,58.2V65
	c0,0.4,0.4,0.8,0.9,0.8h7.1c0.5,0,0.9-0.4,0.9-0.8l0.1-3l-6.3-0.5L4.9,58.2z M16.9,61.1c10.7,0.6,24.7,0.5,34.8,0.1l8.8-0.7l3.1-4
	v-9.1c0-1.8-0.4-3.2-1.2-4.2l-1.9-2.3L65,39c0,0,0.1,0,0.1,0l-0.6-2c-0.1-0.5-0.7-0.9-1.2-0.9h-5.7c0,2.2-1.4,3.8-3.3,3.9
	c-13,0.6-26.8,0.6-39.9,0c-2-0.1-3.6-1.8-3.6-3.9H5.4c-0.5,0-1.1,0.5-1.2,0.9l-0.6,2c0,0,0,0,0,0l4.4,1.9l-1.9,2.3
	c-0.8,1-1.2,2.3-1.2,4.1v9.3l3.1,3.9L16.9,61.1z M11.9,36.1c0,1.5,1.2,2.8,2.7,2.9c13,0.6,26.7,0.6,39.7,0c1.6-0.1,2.3-1.5,2.3-2.9
	l-4.4-6.8c-0.3-0.3-0.9-0.8-1.8-0.9c-12-0.8-20.2-0.8-32.2,0c-1.2,0.1-1.7,0.9-1.7,0.9L11.9,36.1z M65.1,39.1
	C65.1,39.1,65.2,39.2,65.1,39.1L65.1,39.1z M34.3,55.7c-4.5,0-9-0.3-13.3-0.8l-0.4,0l-1.1-6.2l0.6,0c10,0.5,18.2,0.5,28.1,0l0.6,0
	l-1,6.2l-0.4,0C43.4,55.5,38.9,55.7,34.3,55.7z M21.6,54c8.2,0.9,17.3,0.9,25.6,0l0.6-4.2c-9.5,0.5-17.4,0.5-27,0L21.6,54z
	 M51.5,48.8l-0.1-1l8.9-1l0.1,1L51.5,48.8z M17.2,48.8l-8.9-1l0.1-1l8.9,1L17.2,48.8z"/>
<g>
	<g>
		<path class="st0" d="M34.4,23.8c-6.2,0-11.2-5-11.2-11.2s5-11.2,11.2-11.2s11.2,5,11.2,11.2S40.5,23.8,34.4,23.8z M34.4,2.5
			c-5.6,0-10.1,4.6-10.1,10.1s4.6,10.1,10.1,10.1s10.1-4.6,10.1-10.1S40,2.5,34.4,2.5z"/>
		<path class="st0" d="M41.3,17.7c0,0.1-0.1,0.1-0.2,0.1c-0.1,0-0.2,0-0.2-0.1l-1.4-1.4l-0.9,0.3l-0.3,0.9l1.4,1.4
			c0.1,0.1,0.1,0.1,0.1,0.2c0,0.1-0.1,0.2-0.1,0.2c-0.4,0.2-0.8,0.2-1.1,0.2c-0.7,0-1.3-0.2-1.7-0.7c-0.7-0.7-0.9-1.8-0.5-2.7
			L34.1,14c-0.1-0.1-0.1-0.3,0-0.4c0.1-0.1,0.3-0.1,0.4,0l2.2,2.2c0.1,0.1,0.1,0.2,0.1,0.3c-0.4,0.8-0.2,1.8,0.4,2.3
			c0.5,0.5,1.2,0.7,2,0.5l-1.2-1.2c-0.1-0.1-0.1-0.2-0.1-0.3l0.4-1.1c0-0.1,0.1-0.1,0.1-0.1l1.1-0.4c0.1,0,0.2,0,0.3,0.1l1.2,1.2
			c0.2-0.7,0-1.5-0.5-2c-0.6-0.6-1.5-0.7-2.3-0.4c-0.1,0-0.2,0-0.3-0.1l-2.2-2.2c-0.1-0.1-0.1-0.3,0-0.4c0.1-0.1,0.3-0.1,0.4,0
			l2.1,2.1c1-0.4,2.1-0.2,2.7,0.5C41.6,15.5,41.7,16.7,41.3,17.7z M31.1,11l1.7,1.7c0,0,0.1,0.1,0.2,0.1c0.1,0,0.1,0,0.2-0.1
			c0.1-0.1,0.1-0.3,0-0.4l-1.9-1.9c-0.1-0.1-0.2-0.1-0.3-0.1c-0.8,0.4-1.8,0.2-2.3-0.4c-0.5-0.5-0.7-1.2-0.5-2l1.2,1.2
			c0.1,0.1,0.2,0.1,0.3,0.1L30.8,9c0.1,0,0.1-0.1,0.1-0.1l0.4-1.1c0-0.1,0-0.2-0.1-0.3l-1.2-1.2c0.7-0.2,1.5,0,2,0.5
			c0.6,0.6,0.7,1.5,0.4,2.3c0,0.1,0,0.2,0.1,0.3l1.9,1.9c0.1,0.1,0.3,0.1,0.4,0c0.1-0.1,0.1-0.3,0-0.4l-1.7-1.7
			c0.4-1,0.2-2.1-0.5-2.7c-0.7-0.7-1.9-0.9-2.9-0.5c-0.1,0-0.1,0.1-0.1,0.2c0,0.1,0,0.2,0.1,0.2l1.4,1.4l-0.3,0.9l-0.9,0.3l-1.4-1.4
			c-0.1-0.1-0.1-0.1-0.2-0.1c-0.1,0-0.2,0.1-0.2,0.1c-0.4,1-0.3,2.2,0.5,2.9C29,11.2,30.1,11.4,31.1,11z M33.2,15.8
			c0,0,0.1,0.1,0.1,0.2c0,0.1,0,0.1-0.1,0.2l-3.1,3.1c-0.3,0.3-0.6,0.4-1,0.4c-0.4,0-0.7-0.1-1-0.4l-0.6-0.6c-0.5-0.5-0.5-1.4,0-2
			l3.1-3.1c0.1-0.1,0.3-0.1,0.4,0l0.9,0.9l5.9-5.9l-0.2-0.2c0,0-0.1-0.1-0.1-0.2s0-0.1,0.1-0.2l1.6-1.4c0.1-0.1,0.3-0.1,0.3,0
			l0.6,0.6c0.1,0.1,0.1,0.2,0,0.3l-1.4,1.6c0,0.1-0.1,0.1-0.2,0.1c0,0,0,0,0,0c-0.1,0-0.1,0-0.2-0.1l-0.2-0.2l-5.9,5.9L33.2,15.8z
			 M38.3,8.2l0.4,0.4l1.1-1.2l-0.3-0.3L38.3,8.2z M31.7,17l-1.8-1.8L28,17.1c-0.3,0.3-0.3,0.9,0,1.2l0.6,0.6c0.3,0.3,0.9,0.3,1.2,0
			L31.7,17z M32.7,16l-1.8-1.8l-0.6,0.6l1.8,1.8L32.7,16z"/>
	</g>
</g>
</svg>
